<?xml version="1.0" encoding="UTF-8"?>
<svg id="_图层_1" data-name="图层 1" xmlns="http://www.w3.org/2000/svg" viewBox="0 0 512 512">
  <defs>
    <style>
      .cls-1 {
        fill: #1dc4a7;
      }

      .cls-2 {
        fill: #f70000;
      }

      .cls-3 {
        fill: #fff;
        font-family: FZMHK--GBK1-0, FZMeiHei-M07;
        font-size: 72px;
      }

      .cls-4 {
        fill: #033;
      }

      .cls-5 {
        fill: #0080ff;
      }
    </style>
  </defs>
  <circle class="cls-5" cx="256" cy="256" r="256"/>
  <g>
    <path class="cls-4" d="M384.06,402.29H127.4c-14.6,0-26.43-11.83-26.43-26.43V151.72l59.47-60h223.61c14.6,0,26.43,11.83,26.43,26.43V375.33c.29,14.59-11.3,26.66-25.9,26.95-.18,0-.36,0-.53,0ZM113.66,157.27v218.06c0,7.3,5.92,13.22,13.22,13.22H384.06c7.3,0,13.22-5.92,13.22-13.22V118.68c0-7.3-5.92-13.22-13.22-13.22H165.86l-52.2,51.81Z"/>
    <path class="cls-1" d="M214.63,186.35h82.33c14.96,0,27.09-12.13,27.09-27.09V91.72H187.4v67.53c0,14.96,12.13,27.09,27.09,27.09,.04,0,.09,0,.13,0Z"/>
    <path class="cls-1" d="M325.51,341.77H185.95c-14.96,0-27.09,12.13-27.09,27.09v33.44h193.74v-33.44c0-14.96-12.13-27.09-27.09-27.09Z"/>
    <path class="cls-4" d="M255.73,308.99c-29.78,0-53.92-24.14-53.92-53.92s24.14-53.92,53.92-53.92,53.92,24.14,53.92,53.92c-.07,29.75-24.17,53.85-53.92,53.92Zm0-94.76c-22.48,0-40.7,18.22-40.7,40.7s18.22,40.7,40.7,40.7,40.7-18.22,40.7-40.7h0c-.07-22.45-18.25-40.63-40.7-40.7Z"/>
    <path class="cls-4" d="M255.73,274.89c-11.02,.07-20.01-8.8-20.09-19.82-.07-11.02,8.8-20.01,19.82-20.09,11.02-.07,20.01,8.8,20.09,19.82,0,.04,0,.09,0,.13,0,10.97-8.85,19.88-19.82,19.96Zm0-26.43c-3.72,0-6.74,3.02-6.74,6.74,0,3.72,3.02,6.74,6.74,6.74s6.74-3.02,6.74-6.74c.15-3.72-2.75-6.85-6.47-7-.09,0-.18,0-.27,0v.26Z"/>
  </g>
  <circle class="cls-2" cx="371.49" cy="407.88" r="47"/>
  <text class="cls-3" transform="translate(351.81 433.75)"><tspan x="0" y="0">1</tspan></text>
</svg>