<?xml version="1.0" encoding="UTF-8"?>
<svg id="_图层_1" data-name="图层 1" xmlns="http://www.w3.org/2000/svg" viewBox="0 0 512 512">
  <defs>
    <style>
      .cls-1 {
        fill: #1dc4a7;
      }

      .cls-2 {
        fill: #f70000;
      }

      .cls-3 {
        fill: #fff;
        font-family: FZMHK--GBK1-0, FZMeiHei-M07;
        font-size: 72px;
      }

      .cls-4 {
        fill: #033;
      }

      .cls-5 {
        fill: #0080ff;
      }
    </style>
  </defs>
  <circle class="cls-5" cx="256" cy="256" r="256"/>
  <g>
    <path class="cls-1" d="M256,191.94c-35.38,0-64.06,28.68-64.06,64.06s28.68,64.06,64.06,64.06,64.06-28.68,64.06-64.06h0c0-35.38-28.68-64.06-64.06-64.06Zm0,86.43c-12.35,0-22.37-10.02-22.37-22.37,0-12.35,10.02-22.37,22.37-22.37,12.35,0,22.37,10.02,22.37,22.37h0c0,12.35-10.02,22.37-22.37,22.37Z"/>
    <path class="cls-4" d="M256,434.8c-98.75,0-178.8-80.05-178.8-178.8S157.25,77.2,256,77.2s178.8,80.05,178.8,178.8c-.08,98.71-80.09,178.72-178.8,178.8Zm0-342.39c-90.35,0-163.58,73.24-163.58,163.58s73.24,163.58,163.58,163.58,163.58-73.24,163.58-163.58c-.08-90.31-73.27-163.5-163.58-163.58Z"/>
    <path class="cls-4" d="M256,293.59c-20.76,0-37.59-16.83-37.59-37.59,0-20.76,16.83-37.59,37.59-37.59,20.76,0,37.59,16.83,37.59,37.59h0c0,20.76-16.83,37.59-37.59,37.59Zm0-59.96c-12.35,0-22.37,10.02-22.37,22.37,0,12.35,10.02,22.37,22.37,22.37s22.37-10.02,22.37-22.37-10.02-22.37-22.37-22.37Z"/>
    <path class="cls-4" d="M130.46,263.61h-15.22v-7.61c.08-77.7,63.05-140.67,140.76-140.76h7.61v15.22h-7.61c-69.3,.08-125.46,56.24-125.54,125.54v7.61Z"/>
    <path class="cls-4" d="M160.89,263.61h-15.22v-7.61c.08-60.9,49.43-110.24,110.32-110.32h7.61v15.22h-7.61c-52.49,.08-95.02,42.62-95.11,95.11v7.61Z"/>
    <path class="cls-4" d="M256,396.76h-7.61v-15.22h7.61c69.3-.08,125.46-56.24,125.54-125.54v-7.61h15.22v7.61c-.08,77.7-63.05,140.67-140.76,140.76Z"/>
    <path class="cls-4" d="M256,366.32h-7.61v-15.22h7.61c52.49-.08,95.02-42.62,95.11-95.11v-7.61h15.22v7.61c-.08,60.9-49.43,110.24-110.32,110.32Z"/>
  </g>
  <circle class="cls-2" cx="371.49" cy="407.88" r="47"/>
  <text class="cls-3" transform="translate(351.81 433.75)"><tspan x="0" y="0">2</tspan></text>
</svg>