<?xml version="1.0" encoding="UTF-8"?>
<svg id="_图层_1" data-name="图层 1" xmlns="http://www.w3.org/2000/svg" viewBox="0 0 512 512">
  <defs>
    <style>
      .cls-1 {
        fill: #1dc4a7;
      }

      .cls-2 {
        fill: #f70000;
      }

      .cls-3 {
        fill: #fff;
        font-family: FZMHK--GBK1-0, FZMeiHei-M07;
        font-size: 72px;
      }

      .cls-4 {
        fill: #033;
      }

      .cls-5 {
        fill: #0080ff;
      }
    </style>
  </defs>
  <circle class="cls-5" cx="256" cy="256" r="256"/>
  <g>
    <path class="cls-4" d="M340.8,441.9H171.2c-22.28,.09-40.42-17.9-40.5-40.19,0-.05,0-.11,0-.16V110.44c0-22.28,18.06-40.34,40.34-40.34h169.76c22.28-.09,40.42,17.9,40.5,40.19,0,.05,0,.11,0,.16V401.56c0,22.28-18.06,40.34-40.34,40.35-.05,0-.11,0-.16,0ZM171.2,85.92c-13.54-.09-24.59,10.82-24.68,24.36,0,.05,0,.11,0,.16V401.56c0,13.54,10.98,24.52,24.52,24.52h169.76c13.54,0,24.52-10.98,24.52-24.52V110.44c0-13.54-10.98-24.52-24.52-24.52H171.2Z"/>
    <path class="cls-1" d="M256,232.27c-47.53,0-86.07,38.53-86.07,86.07s38.53,86.07,86.07,86.07,86.07-38.53,86.07-86.07-38.53-86.07-86.07-86.07h0Zm0,68.19c9.87-.09,17.95,7.85,18.04,17.72,.09,9.87-7.85,17.95-17.72,18.04-9.87,.09-17.95-7.85-18.04-17.72,0-.05,0-.11,0-.16,0-9.81,7.91-17.79,17.72-17.88Z"/>
    <circle class="cls-1" cx="256" cy="164.87" r="47.62"/>
    <circle class="cls-1" cx="256" cy="164.87" r="47.62"/>
    <path class="cls-4" d="M256,351.88c-18.61,0-33.7-15.09-33.7-33.7,0-18.61,15.09-33.7,33.7-33.7,18.61,0,33.7,15.09,33.7,33.7,0,.05,0,.11,0,.16-.09,18.55-15.15,33.54-33.7,33.54Zm0-51.42c-9.87,0-17.88,8-17.88,17.88,0,9.87,8,17.88,17.88,17.88s17.88-8,17.88-17.88h0c0-9.87-8-17.88-17.88-17.88Z"/>
  </g>
  <circle class="cls-2" cx="371.18" cy="408.49" r="47"/>
  <text class="cls-3" transform="translate(351.5 434.37)"><tspan x="0" y="0">4</tspan></text>
</svg>