<?xml version="1.0" encoding="UTF-8"?>
<svg id="_图层_1" data-name="图层 1" xmlns="http://www.w3.org/2000/svg" viewBox="0 0 512 512">
  <defs>
    <style>
      .cls-1 {
        fill: #1dc4a7;
      }

      .cls-2 {
        fill: #f70000;
      }

      .cls-3 {
        fill: #fff;
        font-family: FZMHK--GBK1-0, FZMeiHei-M07;
        font-size: 72px;
      }

      .cls-4 {
        fill: #033;
      }

      .cls-5 {
        fill: #0080ff;
      }
    </style>
  </defs>
  <circle class="cls-5" cx="256" cy="256" r="256"/>
  <g>
    <path class="cls-4" d="M348.1,81.77H157.6c-16.41,0-29.72,13.31-29.72,29.72V404.97c0,13.95,11.31,25.26,25.26,25.26h199.72c13.95,0,25.26-11.31,25.26-25.26h0V111.93c.25-16.41-12.86-29.92-29.27-30.16-.25,0-.5,0-.75,0ZM152.84,416.12c-5.74,0-10.4-4.66-10.4-10.4h0v-11.89h12.04v16.05h14.86v-16.05h6.98v16.05h14.86v-16.05h7.13v16.05h14.86v-16.05h6.98v16.05h14.86v-16.05h7.13v16.05h14.86v-16.05h6.98v16.05h14.86v-16.05h8.92v22.29H152.84Zm210.57-11.14c0,5.74-4.66,10.4-10.4,10.4h-50.38v-22.29h60.63l.15,11.89Zm-60.63-26.75H142.29V110.75c0-8.21,6.65-14.86,14.86-14.86h190.95c8.21,0,14.86,6.65,14.86,14.86V378.22h-60.18Z"/>
    <circle class="cls-4" cx="166.96" cy="354" r="11.14"/>
    <circle class="cls-4" cx="338.74" cy="126.35" r="11.14"/>
    <circle class="cls-4" cx="344.83" cy="354" r="11.14"/>
    <circle class="cls-4" cx="166.96" cy="121.59" r="11.14"/>
    <rect class="cls-1" x="177.66" y="138.68" width="150.38" height="198.08"/>
  </g>
  <circle class="cls-2" cx="370.06" cy="407.82" r="47"/>
  <text class="cls-3" transform="translate(350.38 433.69)"><tspan x="0" y="0">5</tspan></text>
</svg>