<svg id="层_1" data-name="层 1" xmlns="http://www.w3.org/2000/svg" viewBox="0 0 301.85 114.15"><defs><style>.cls-1{fill:none;stroke:#fff;stroke-miterlimit:10;stroke-width:6px;}.cls-2{fill:#fff;}</style></defs><g id="圆角矩形_自动形状" data-name="圆角矩形 自动形状"><path class="cls-1" d="M285,3.75H17.77C8.65,3.75,3.43,9.1,3.43,18.44V97.21c0,9.34,5.22,14.69,14.34,14.69H285c9.11,0,14.33-5.35,14.33-14.69V18.44C299.28,9.1,294.06,3.75,285,3.75Z" transform="translate(-0.43 -0.75)"/></g><g id="TTTTT"><path class="cls-2" d="M54.67,42.84H40.22V33.93H79.71v8.91H65.27V82.13H54.67Z" transform="translate(-0.43 -0.75)"/><path class="cls-2" d="M99.38,42.84H84.93V33.93h39.49v8.91H110V82.13H99.38Z" transform="translate(-0.43 -0.75)"/><path class="cls-2" d="M144.09,42.84H129.65V33.93h39.49v8.91H154.69V82.13h-10.6Z" transform="translate(-0.43 -0.75)"/><path class="cls-2" d="M188.8,42.84H174.36V33.93h39.49v8.91H199.4V82.13H188.8Z" transform="translate(-0.43 -0.75)"/><path class="cls-2" d="M233.52,42.84H219.07V33.93h39.49v8.91H244.12V82.13h-10.6Z" transform="translate(-0.43 -0.75)"/></g></svg>