<svg width="20" height="20" viewBox="0 0 20 20" fill="none" xmlns="http://www.w3.org/2000/svg">
<path fill-rule="evenodd" clip-rule="evenodd" d="M2.76746 5.0448C2.64766 5.16459 2.64766 5.35882 2.76746 5.47861L7.34024 10.0514L2.76685 14.6248C2.64705 14.7446 2.64705 14.9388 2.76685 15.0586L5.04437 17.3361C5.16417 17.4559 5.35839 17.4559 5.47819 17.3361L10.0516 12.7627L14.6251 17.3362C14.7449 17.456 14.9391 17.456 15.0589 17.3362L17.3364 15.0587C17.4562 14.9389 17.4562 14.7447 17.3364 14.6249L12.7629 10.0514L17.3358 5.47852C17.4556 5.35873 17.4556 5.1645 17.3358 5.04471L15.0583 2.76718C14.9385 2.64738 14.7442 2.64738 14.6244 2.76718L10.0516 7.34005L5.4788 2.76727C5.359 2.64748 5.16478 2.64748 5.04498 2.76727L2.76746 5.0448ZM10.0516 7.34005L7.34024 10.0514L10.0516 12.7627L12.7629 10.0514L10.0516 7.34005Z" fill="white"/>
</svg>
