<?xml version="1.0" encoding="iso-8859-1"?>
<!-- Generator: Adobe Illustrator 25.0.1, SVG Export Plug-In . SVG Version: 6.00 Build 0)  -->
<svg version="1.1" id="&#x56FE;&#x5C42;_1" xmlns="http://www.w3.org/2000/svg" xmlns:xlink="http://www.w3.org/1999/xlink" x="0px"
	 y="0px" viewBox="0 0 200 200" style="enable-background:new 0 0 200 200;" xml:space="preserve">
<g>
	<rect y="0" style="fill:#185787;" width="200" height="200"/>
	<g>
		<g>
			<path style="fill:#7B5735;" d="M161.03,97.955c0,8.249-6.688,14.936-14.937,14.936c-8.249,0-14.937-6.687-14.937-14.936
				c0-8.25,6.688-14.937,14.937-14.937C154.342,83.018,161.03,89.705,161.03,97.955z"/>
			<path style="fill:#F3DBBD;" d="M155.667,97.955c0,5.288-4.285,9.574-9.574,9.574c-5.288,0-9.575-4.286-9.575-9.574
				c0-5.288,4.287-9.575,9.575-9.575C151.382,88.38,155.667,92.666,155.667,97.955z"/>
		</g>
		<g>
			<path style="fill:#7B5735;" d="M68.843,96.044c0,8.248-6.688,14.935-14.936,14.935c-8.249,0-14.937-6.687-14.937-14.935
				c0-8.25,6.688-14.937,14.937-14.937C62.155,81.108,68.843,87.794,68.843,96.044z"/>
			<path style="fill:#F3DBBD;" d="M63.482,96.044c0,5.288-4.288,9.574-9.575,9.574c-5.289,0-9.575-4.286-9.575-9.574
				c0-5.289,4.286-9.575,9.575-9.575C59.194,86.469,63.482,90.756,63.482,96.044z"/>
		</g>
		<path style="fill:#8A603C;" d="M146.579,99.849c0,25.912-21.005,46.917-46.916,46.917c-25.911,0-46.915-21.004-46.915-46.917
			c0-25.911,21.004-46.915,46.915-46.915C125.573,52.933,146.579,73.938,146.579,99.849z"/>
		<path style="fill:#F3DBBD;" d="M139.368,96.347c0.042-11.282-9.069-20.463-20.352-20.506c-8.823-0.034-16.362,5.532-19.248,13.356
			c-2.829-7.845-10.324-13.468-19.147-13.501c-11.283-0.043-20.463,9.069-20.506,20.351c-0.043,11.282,9.068,20.463,20.351,20.507
			c0.312,0,0.62-0.008,0.929-0.021c-1.327,3.454-2.082,6.975-2.082,10.107c0,11.281,9.146,20.427,20.428,20.427
			c11.283,0,20.429-9.146,20.429-20.427c0-3.086-0.641-6.551-1.797-9.956c0.163,0.004,0.325,0.014,0.488,0.014
			C130.144,116.741,139.324,107.629,139.368,96.347z"/>
		<g>
			<path style="fill:#D1BEA5;" d="M108.206,96.849c0,5.83,4.725,10.553,10.554,10.553c5.83,0,10.552-4.723,10.552-10.553
				c0-5.829-4.723-10.553-10.552-10.553C112.931,86.295,108.206,91.02,108.206,96.849z"/>
			<g>
				<path style="fill:#3D342F;" d="M112.054,96.935c0,3.468,2.811,6.278,6.278,6.278s6.279-2.81,6.279-6.278
					c0-3.467-2.812-6.279-6.279-6.279S112.054,93.467,112.054,96.935z"/>
				<path style="fill:#FFFFFF;" d="M117.436,91.752c0,1.651,1.337,2.989,2.988,2.989c1.652,0,2.991-1.338,2.991-2.989
					s-1.339-2.99-2.991-2.99C118.773,88.763,117.436,90.101,117.436,91.752z"/>
			</g>
		</g>
		<g>
			<path style="fill:#D1BEA5;" d="M91.479,96.849c0,5.83-4.723,10.553-10.552,10.553c-5.83,0-10.554-4.723-10.554-10.553
				c0-5.829,4.725-10.553,10.554-10.553C86.755,86.295,91.479,91.02,91.479,96.849z"/>
			<g>
				<path style="fill:#3D342F;" d="M87.631,96.935c0,3.468-2.811,6.278-6.278,6.278c-3.467,0-6.279-2.81-6.279-6.278
					c0-3.467,2.812-6.279,6.279-6.279C84.82,90.656,87.631,93.467,87.631,96.935z"/>
				<path style="fill:#FFFFFF;" d="M82.249,91.752c0,1.651-1.337,2.989-2.988,2.989c-1.652,0-2.99-1.338-2.99-2.989
					s1.338-2.99,2.99-2.99C80.912,88.763,82.249,90.101,82.249,91.752z"/>
			</g>
		</g>
		<path style="fill:#3D342F;" d="M104.273,131.062c0,2.229-1.808,4.037-4.038,4.037c-2.23,0-4.037-1.808-4.037-4.037
			c0-2.23,1.807-4.038,4.037-4.038C102.465,127.024,104.273,128.832,104.273,131.062z"/>
	</g>
</g>
</svg>
