<?xml version="1.0" encoding="iso-8859-1"?>
<!-- Generator: Adobe Illustrator 25.0.1, SVG Export Plug-In . SVG Version: 6.00 Build 0)  -->
<svg version="1.1" id="&#x56FE;&#x5C42;_1" xmlns="http://www.w3.org/2000/svg" xmlns:xlink="http://www.w3.org/1999/xlink" x="0px"
	 y="0px" viewBox="0 0 200 200" style="enable-background:new 0 0 200 200;" xml:space="preserve">
<g>
	<rect y="0" style="fill:#F0592B;" width="200" height="200"/>
	<g>
		<g>
			<path style="fill:#8A603C;" d="M85.149,68.43c-1.528-2.709-5.972-9.9-11.362-12.194c-6.554-2.79-11.647,20.526-3.792,27.041
				c-0.092,0.165-0.173,0.338-0.264,0.504C76.594,80.966,81.889,75.059,85.149,68.43z M73.517,78.104
				c-4.918-3.739-0.668-15.615,0.828-14.367c1.023,0.853,3.626,5.451,5.274,8.479C77.362,73.935,75.312,75.911,73.517,78.104z"/>
			<path style="fill:#3B3E43;" d="M73.161,79.462c2.131-2.605,4.565-4.953,7.248-6.993c-1.959-3.598-5.048-9.059-6.266-10.072
				C72.365,60.915,67.319,75.02,73.161,79.462z"/>
		</g>
		<g>
			<path style="fill:#8A603C;" d="M134.224,83.78c-0.09-0.165-0.171-0.339-0.264-0.504c7.855-6.515,2.764-29.831-3.791-27.041
				c-5.39,2.294-9.834,9.485-11.362,12.194C122.066,75.059,127.362,80.966,134.224,83.78z M124.336,72.217
				c1.649-3.029,4.251-7.627,5.274-8.479c1.496-1.249,5.746,10.627,0.828,14.367C128.644,75.911,126.593,73.935,124.336,72.217z"/>
			<path style="fill:#3B3E43;" d="M130.794,79.462c-2.131-2.605-4.566-4.953-7.247-6.993c1.958-3.598,5.048-9.059,6.265-10.072
				C131.589,60.915,136.636,75.02,130.794,79.462z"/>
		</g>
		<g>
			<g>
				<path style="fill:none;" d="M72.234,115.813c3.776,1.261,6.987,2.76,9.72,4.34c0.008-0.049,0.018-0.098,0.023-0.146
					C78.989,118.223,75.676,116.708,72.234,115.813z"/>
			</g>
		</g>
		<g>
			<g>
				<path style="fill:#E96332;" d="M100.337,62.199v0.002c0.013,0,0.026-0.002,0.038-0.002
					C100.364,62.199,100.35,62.199,100.337,62.199z"/>
			</g>
		</g>
		<g>
			<g>
				<path style="fill:#A84720;" d="M100.413,62.199c-0.014,0-0.026,0-0.038,0c0.012,0,0.024,0.002,0.038,0.002V62.199z"/>
			</g>
		</g>
		<path style="fill:#8A603C;" d="M139.768,101.464c0-21.66-17.54-39.223-39.19-39.262v-0.003c-0.013,0-0.026,0.002-0.04,0.002
			c-0.012,0-0.022-0.002-0.035-0.002v0.003c-0.018,0-0.039,0-0.057,0c-0.016,0-0.035,0-0.054,0v-0.003
			c-0.013,0-0.025,0.002-0.037,0.002c-0.014,0-0.024-0.002-0.038-0.002v0.003c-21.65,0.04-39.19,17.602-39.19,39.262
			c0,0.511-9.435,11.153-2.987,23.864c3.562,7.03,22.61,6.384,41.351,6.59c19.869,0.218,39.487,0.864,43.267-6.59
			C149.201,112.617,139.768,101.975,139.768,101.464z"/>
		<g>
			<path style="fill:#8A603C;" d="M106.52,117.613c0,14.023-11.369,25.391-25.393,25.391c-14.023,0-25.392-11.368-25.392-25.391
				c0-14.024,11.369-25.393,25.392-25.393C95.151,92.221,106.52,103.589,106.52,117.613z"/>
			<path style="fill:#8A603C;" d="M146.421,118.603c0,14.023-11.368,25.392-25.393,25.392c-14.023,0-25.393-11.369-25.393-25.392
				c0-14.024,11.369-25.393,25.393-25.393C135.053,93.21,146.421,104.579,146.421,118.603z"/>
		</g>
		<g>
			<g>
				<path style="fill:#3D342F;" d="M80.492,118.292c-0.172,0-0.344-0.064-0.477-0.193c-0.093-0.09-9.596-9.082-36.525-13.197
					c-0.372-0.057-0.626-0.404-0.57-0.776c0.058-0.372,0.413-0.622,0.776-0.57c27.433,4.19,36.883,13.188,37.271,13.568
					c0.268,0.264,0.272,0.693,0.01,0.962C80.845,118.223,80.668,118.292,80.492,118.292z"/>
				<path style="fill:#3D342F;" d="M78.906,121.826c-0.115,0-0.23-0.028-0.337-0.088c-0.111-0.064-11.585-6.365-38.674-3.543
					c-0.363,0.036-0.709-0.231-0.748-0.606c-0.039-0.374,0.234-0.709,0.608-0.747c27.605-2.878,39.016,3.443,39.49,3.713
					c0.325,0.187,0.437,0.602,0.252,0.928C79.373,121.703,79.142,121.826,78.906,121.826z"/>
				<path style="fill:#3D342F;" d="M39.534,131.423c-0.283,0-0.549-0.178-0.645-0.46c-0.121-0.355,0.068-0.743,0.423-0.865
					c26.252-8.992,38.794-5.397,39.316-5.238c0.358,0.108,0.563,0.487,0.454,0.847c-0.107,0.36-0.48,0.564-0.847,0.457
					c-0.124-0.038-12.713-3.603-38.481,5.223C39.681,131.411,39.607,131.423,39.534,131.423z"/>
			</g>
			<g>
				<path style="fill:#3B3E43;" d="M108.618,112.06c0,3.051-3.562,6.849-7.954,6.849c-4.392,0-7.951-3.798-7.951-6.849
					c0-3.05,3.559-5.522,7.951-5.522C105.057,106.538,108.618,109.01,108.618,112.06z"/>
				<g>
					<path style="fill:#3B3E43;" d="M92.374,128.241c-2.181,0-4.597-1.076-7.213-3.216c-0.35-0.284-0.401-0.799-0.114-1.147
						c0.284-0.348,0.801-0.4,1.147-0.114c3.059,2.502,5.692,3.359,7.829,2.547c4.257-1.62,5.52-9.239,5.53-9.315
						c0.069-0.445,0.486-0.748,0.935-0.677c0.444,0.072,0.748,0.49,0.678,0.934c-0.057,0.352-1.433,8.629-6.562,10.581
						C93.89,128.105,93.148,128.241,92.374,128.241z"/>
					<path style="fill:#3B3E43;" d="M107.516,128.956c-0.672,0-1.318-0.122-1.935-0.37c-4.879-1.952-5.792-11-5.83-11.384
						c-0.043-0.449,0.287-0.847,0.734-0.889c0.448-0.044,0.848,0.286,0.892,0.735c0.224,2.342,1.526,8.711,4.812,10.023
						c1.801,0.722,4.096-0.113,6.823-2.478c0.339-0.295,0.854-0.258,1.151,0.083c0.293,0.34,0.258,0.856-0.083,1.151
						C111.677,127.908,109.479,128.956,107.516,128.956z"/>
				</g>
				<path style="fill:#FFFFFF;" d="M105.845,110.408c-0.185,0.732-1.271,1.086-2.423,0.794c-1.153-0.293-1.937-1.124-1.753-1.856
					c0.187-0.731,1.274-1.087,2.426-0.794C105.247,108.846,106.031,109.675,105.845,110.408z"/>
			</g>
			<g>
				<path style="fill:#3D342F;" d="M119.508,119.652c-0.177,0-0.354-0.068-0.486-0.205c-0.262-0.269-0.259-0.698,0.01-0.961
					c0.39-0.381,9.841-9.378,37.271-13.569c0.372-0.054,0.719,0.198,0.776,0.57c0.057,0.371-0.198,0.719-0.57,0.776
					c-26.93,4.114-36.432,13.106-36.525,13.197C119.852,119.588,119.68,119.652,119.508,119.652z"/>
				<path style="fill:#3D342F;" d="M121.093,123.188c-0.235,0-0.466-0.123-0.591-0.343c-0.187-0.325-0.074-0.741,0.253-0.928
					c0.472-0.27,11.891-6.591,39.49-3.713c0.373,0.038,0.645,0.374,0.605,0.747c-0.037,0.375-0.373,0.643-0.746,0.606
					c-27.17-2.826-38.563,3.478-38.675,3.542C121.324,123.159,121.207,123.188,121.093,123.188z"/>
				<path style="fill:#3D342F;" d="M160.467,132.784c-0.075,0-0.148-0.012-0.222-0.036c-25.766-8.826-38.357-5.26-38.483-5.223
					c-0.364,0.109-0.738-0.098-0.846-0.458c-0.108-0.359,0.095-0.738,0.454-0.847c0.522-0.157,13.062-3.753,39.317,5.239
					c0.354,0.121,0.544,0.509,0.422,0.865C161.013,132.607,160.749,132.784,160.467,132.784z"/>
			</g>
		</g>
		<path style="fill:#C2986B;" d="M92.126,83.838c-5.059-1.474-12.506-1.621-16.726,8.128c-4.219,9.747-3.696,17.918,0,19.705
			c3.696,1.788,21.826-4.34,23.358-11.235C100.291,93.542,98.263,85.626,92.126,83.838z"/>
		<path style="fill:#C2986B;" d="M104.531,100.437c1.533,6.895,19.664,13.023,23.359,11.235c3.697-1.787,4.219-9.959,0-19.706
			c-4.219-9.749-11.667-9.601-16.726-8.127C105.029,85.626,102.999,93.543,104.531,100.437z"/>
		<g>
			<g>
				<g>
					<path style="fill:#3B3E43;" d="M110.269,95.233c0,3.323,2.696,6.019,6.021,6.019c3.324,0,6.021-2.696,6.021-6.019
						c0-3.326-2.697-6.022-6.021-6.022C112.965,89.211,110.269,91.908,110.269,95.233z"/>
				</g>
				<path style="fill:#FFFFFF;" d="M114.934,90.503c0,1.747,1.417,3.16,3.162,3.16c1.746,0,3.162-1.413,3.162-3.16
					c0-1.747-1.416-3.162-3.162-3.162C116.351,87.342,114.934,88.757,114.934,90.503z"/>
			</g>
			<g>
				<g>
					<path style="fill:#3B3E43;" d="M92.463,95.233c0,3.323-2.691,6.019-6.017,6.019s-6.021-2.696-6.021-6.019
						c0-3.326,2.695-6.022,6.021-6.022S92.463,91.908,92.463,95.233z"/>
				</g>
				<path style="fill:#FFFFFF;" d="M87.8,90.503c0,1.747-1.415,3.16-3.16,3.16c-1.746,0-3.16-1.413-3.16-3.16
					c0-1.747,1.414-3.162,3.16-3.162C86.385,87.342,87.8,88.757,87.8,90.503z"/>
			</g>
		</g>
	</g>
</g>
</svg>
