<?xml version="1.0" encoding="iso-8859-1"?>
<!-- Generator: Adobe Illustrator 25.0.1, SVG Export Plug-In . SVG Version: 6.00 Build 0)  -->
<svg version="1.1" id="&#x56FE;&#x5C42;_1" xmlns="http://www.w3.org/2000/svg" xmlns:xlink="http://www.w3.org/1999/xlink" x="0px"
	 y="0px" viewBox="0 0 200 200" style="enable-background:new 0 0 200 200;" xml:space="preserve">
<g>
	<rect y="0" style="fill:#D8D423;" width="200" height="200"/>
	<g>
		<path style="fill:#E0DCD3;" d="M150.633,97.671c19.829,36.667-8.314,48.511-53.977,48.511c-52.012,0-61.608-14.716-48.406-48.92
			c11.328-29.352,31.412-32.957,49.436-32.957C115.708,64.304,136.383,71.321,150.633,97.671z"/>
		<g>
			<path style="fill:#BAB7B0;" d="M146.925,123.781c-4.699,7.795-17.155,9.913-31.831,11.457
				c-7.795-4.696-9.348-32.429-7.427-41.324c2.062-9.526,11.503-16.821,24.075-6.903
				C138.889,92.646,151.622,115.987,146.925,123.781z"/>
			<path style="fill:#BAB7B0;" d="M52.924,125.068c4.696,7.795,23.719,10.043,33.115,11.071c7.797-4.696,10.602-31.54,8.111-43.641
				c-1.832-8.915-15.318-18.539-27.42-5.279C54.629,100.48,48.225,117.274,52.924,125.068z"/>
		</g>
		<g>
			<g>
				<path style="fill:#FFFFFF;" d="M116.012,101.686c0,4.594,3.725,8.315,8.316,8.315s8.314-3.722,8.314-8.315
					c0-4.592-3.723-8.315-8.314-8.315S116.012,97.093,116.012,101.686z"/>
				<g>
					<path style="fill:#3B3E43;" d="M120.119,101.756c0,2.325,1.883,4.208,4.209,4.208c2.324,0,4.208-1.884,4.208-4.208
						c0-2.325-1.884-4.208-4.208-4.208C122.002,97.548,120.119,99.431,120.119,101.756z"/>
					<path style="fill:#FFFFFF;" d="M123.38,98.45c0,1.22,0.988,2.21,2.21,2.21c1.221,0,2.211-0.99,2.211-2.21
						c0-1.221-0.99-2.21-2.211-2.21C124.368,96.24,123.38,97.229,123.38,98.45z"/>
				</g>
			</g>
			<g>
				<path style="fill:#FFFFFF;" d="M83.878,99.581c0,4.593-3.723,8.316-8.315,8.316c-4.592,0-8.315-3.723-8.315-8.316
					c0-4.591,3.724-8.316,8.315-8.316C80.155,91.265,83.878,94.99,83.878,99.581z"/>
				<g>
					<path style="fill:#3B3E43;" d="M79.771,99.652c0,2.324-1.884,4.208-4.209,4.208c-2.323,0-4.209-1.884-4.209-4.208
						c0-2.326,1.886-4.209,4.209-4.209C77.888,95.442,79.771,97.326,79.771,99.652z"/>
					<path style="fill:#FFFFFF;" d="M76.512,96.345c0,1.221-0.99,2.209-2.212,2.209c-1.22,0-2.209-0.988-2.209-2.209
						c0-1.222,0.989-2.212,2.209-2.212C75.521,94.134,76.512,95.123,76.512,96.345z"/>
				</g>
			</g>
		</g>
		<path style="fill:#FFFFFF;" d="M126.994,126.357c0,8.531-16.004,15.447-29.832,15.447s-25.037-6.916-25.037-15.447
			c0-8.533,11.209-15.45,25.037-15.45S126.994,117.824,126.994,126.357z"/>
		<g>
			<path style="fill:#3B3E43;" d="M109.947,125.328c0,3.986-4.652,8.946-10.389,8.946c-5.737,0-10.387-4.96-10.387-8.946
				c0-3.984,4.649-7.214,10.387-7.214C105.295,118.114,109.947,121.344,109.947,125.328z"/>
			<path style="fill:#FFFFFF;" d="M106.325,123.168c-0.242,0.957-1.66,1.421-3.167,1.038c-1.505-0.383-2.528-1.467-2.287-2.423
				c0.244-0.957,1.662-1.42,3.168-1.038C105.545,121.128,106.568,122.212,106.325,123.168z"/>
		</g>
		<g>
			<g>
				<path style="fill:#E0DCD3;" d="M58.533,54.348c-7.553,3.646,0.275,27.806,0.275,27.806l25.585-15.09
					C84.394,67.064,66.088,50.702,58.533,54.348z"/>
				<path style="fill:#BAB7B0;" d="M61.615,57.887c-5.074,2.45,0.188,18.683,0.188,18.683l17.19-10.138
					C78.993,66.432,66.691,55.436,61.615,57.887z"/>
			</g>
			<g>
				<path style="fill:#E0DCD3;" d="M141.357,54.348c7.552,3.646-0.276,27.806-0.276,27.806l-25.583-15.09
					C115.498,67.064,133.805,50.702,141.357,54.348z"/>
				<path style="fill:#BAB7B0;" d="M138.273,57.887c5.076,2.45-0.184,18.683-0.184,18.683l-17.191-10.138
					C120.898,66.432,133.2,55.436,138.273,57.887z"/>
			</g>
		</g>
	</g>
</g>
</svg>
