<?xml version="1.0" encoding="iso-8859-1"?>
<!-- Generator: Adobe Illustrator 25.0.1, SVG Export Plug-In . SVG Version: 6.00 Build 0)  -->
<svg version="1.1" id="&#x56FE;&#x5C42;_1" xmlns="http://www.w3.org/2000/svg" xmlns:xlink="http://www.w3.org/1999/xlink" x="0px"
	 y="0px" viewBox="0 0 200 200" style="enable-background:new 0 0 200 200;" xml:space="preserve">
<g>
	<rect y="0" style="fill:#62A5A2;" width="200" height="200"/>
	<g>
		<path style="fill:#EA692B;" d="M156.643,102.139c0,31.282-26.726,52.366-56.412,52.366s-56.874-21.084-56.874-52.366
			c0-31.285,25.358-56.644,56.643-56.644C131.281,45.495,156.643,70.855,156.643,102.139z"/>
		<g>
			<path style="fill:#E39335;" d="M93.534,77.664c0,8.844-7.171,16.015-16.014,16.015c-8.846,0-16.016-7.17-16.016-16.015
				c0-8.846,7.17-16.015,16.016-16.015C86.363,61.649,93.534,68.818,93.534,77.664z"/>
			<path style="fill:#8A603C;" d="M87.13,77.664c0,5.307-4.303,9.608-9.609,9.608c-5.308,0-9.61-4.301-9.61-9.608
				c0-5.308,4.303-9.609,9.61-9.609C82.827,68.054,87.13,72.356,87.13,77.664z"/>
		</g>
		<g>
			<path style="fill:#E39335;" d="M105.237,77.664c0,8.844,7.172,16.015,16.014,16.015c8.847,0,16.016-7.17,16.016-16.015
				c0-8.846-7.169-16.015-16.016-16.015C112.409,61.649,105.237,68.818,105.237,77.664z"/>
			<path style="fill:#8A603C;" d="M111.644,77.664c0,5.307,4.303,9.608,9.607,9.608c5.309,0,9.611-4.301,9.611-9.608
				c0-5.308-4.303-9.609-9.611-9.609C115.946,68.054,111.644,72.356,111.644,77.664z"/>
		</g>
		<path style="fill:#E39335;" d="M132.12,102.906c-4.735-23.885-11.942-30.329-32.461-30.329c-0.092,0-0.183,0.003-0.272,0.003
			c-0.091,0-0.181-0.003-0.271-0.003c-20.52,0-27.728,6.444-32.462,30.329c-7.101,9.477-6.051,38.361,31.102,38.361
			c0.552,0,1.093-0.005,1.632-0.013c0.537,0.008,1.079,0.013,1.632,0.013C138.172,141.267,139.221,112.383,132.12,102.906z"/>
		<g>
			<defs>
				<path id="SVGID_1_" d="M132.12,101.742c-4.735-24.609-11.942-31.248-32.461-31.248c-0.092,0-0.183,0.003-0.272,0.004
					c-0.091-0.001-0.181-0.004-0.271-0.004c-20.52,0-27.728,6.64-32.462,31.248c-7.101,9.765-6.051,39.525,31.102,39.525
					c0.552,0,1.093-0.005,1.632-0.013c0.537,0.008,1.079,0.013,1.632,0.013C138.172,141.267,139.221,111.507,132.12,101.742z"/>
			</defs>
			<clipPath id="SVGID_2_">
				<use xlink:href="#SVGID_1_"  style="overflow:visible;"/>
			</clipPath>
			<path style="clip-path:url(#SVGID_2_);fill:#F3DBBD;" d="M141.143,149.657c0,17.689-17.244,32.029-41.404,32.029
				c-24.161,0-41.405-14.34-41.405-32.029c0-17.689,17.244-37.889,41.405-37.889C123.898,111.768,141.143,131.967,141.143,149.657z"
				/>
		</g>
		<g>
			<g>
				<path style="fill:#8A603C;" d="M88.531,99.593c0,3.483-2.823,6.306-6.306,6.306c-3.484,0-6.309-2.823-6.309-6.306
					c0-3.484,2.824-6.309,6.309-6.309C85.708,93.284,88.531,96.109,88.531,99.593z"/>
				<g>
					<path style="fill:#3B3E43;" d="M85.418,99.646c0,1.763-1.43,3.191-3.192,3.191c-1.763,0-3.193-1.429-3.193-3.191
						c0-1.763,1.431-3.193,3.193-3.193C83.988,96.453,85.418,97.883,85.418,99.646z"/>
					<path style="fill:#FFFFFF;" d="M82.942,97.138c0,0.926-0.749,1.676-1.676,1.676c-0.925,0-1.676-0.75-1.676-1.676
						c0-0.927,0.751-1.677,1.676-1.677C82.193,95.46,82.942,96.211,82.942,97.138z"/>
				</g>
			</g>
			<g>
				<path style="fill:#3B3E43;" d="M107.824,114.266c0,2.921-3.41,5.387-7.616,5.387c-4.208,0-7.618-2.465-7.618-5.387
					s3.41-5.29,7.618-5.29C104.414,108.977,107.824,111.345,107.824,114.266z"/>
				<g>
					<path style="fill:#3B3E43;" d="M92.267,129.763c-2.09,0-4.404-1.03-6.908-3.08c-0.334-0.272-0.384-0.765-0.11-1.099
						c0.272-0.334,0.765-0.384,1.1-0.11c2.929,2.397,5.453,3.218,7.5,2.439c4.076-1.551,5.283-8.846,5.294-8.92
						c0.068-0.426,0.47-0.719,0.896-0.648c0.426,0.067,0.716,0.467,0.647,0.894c-0.055,0.337-1.369,8.267-6.283,10.136
						C93.719,129.633,93.006,129.763,92.267,129.763z"/>
					<path style="fill:#3B3E43;" d="M106.77,130.448c-0.646,0-1.266-0.119-1.854-0.356c-4.672-1.87-5.548-10.535-5.584-10.903
						c-0.041-0.429,0.273-0.811,0.704-0.852c0.429-0.042,0.812,0.275,0.852,0.704c0.215,2.245,1.464,8.344,4.607,9.602
						c1.727,0.691,3.926-0.109,6.538-2.373c0.326-0.284,0.819-0.249,1.102,0.077c0.283,0.326,0.247,0.82-0.077,1.102
						C110.755,129.444,108.65,130.448,106.77,130.448z"/>
				</g>
				<path style="fill:#FFFFFF;" d="M105.168,112.682c-0.18,0.701-1.217,1.041-2.32,0.76c-1.105-0.28-1.855-1.075-1.679-1.776
					c0.181-0.701,1.218-1.042,2.322-0.761C104.596,111.187,105.347,111.98,105.168,112.682z"/>
			</g>
			<g>
				<path style="fill:#8A603C;" d="M110.24,99.593c0,3.483,2.823,6.306,6.307,6.306c3.483,0,6.309-2.823,6.309-6.306
					c0-3.484-2.825-6.309-6.309-6.309C113.063,93.284,110.24,96.109,110.24,99.593z"/>
				<g>
					<path style="fill:#3B3E43;" d="M113.355,99.646c0,1.763,1.43,3.191,3.191,3.191c1.764,0,3.193-1.429,3.193-3.191
						c0-1.763-1.43-3.193-3.193-3.193C114.785,96.453,113.355,97.883,113.355,99.646z"/>
					<path style="fill:#FFFFFF;" d="M115.829,97.138c0,0.926,0.75,1.676,1.677,1.676c0.924,0,1.677-0.75,1.677-1.676
						c0-0.927-0.753-1.677-1.677-1.677C116.579,95.46,115.829,96.211,115.829,97.138z"/>
				</g>
			</g>
		</g>
		<g>
			<path style="fill:none;stroke:#3D342F;stroke-width:2;stroke-linecap:round;stroke-miterlimit:10;" d="M84.581,116.555
				c0,0-8.545-5.399-32.062-5.844"/>
			<path style="fill:none;stroke:#3D342F;stroke-width:2;stroke-linecap:round;stroke-miterlimit:10;" d="M83.492,119.088
				c0,0-10.058-3.418-33.22,0.955"/>
			<path style="fill:none;stroke:#3D342F;stroke-width:2;stroke-linecap:round;stroke-miterlimit:10;" d="M83.399,122.086
				c0,0-10.856-1.473-32.445,6.94"/>
		</g>
		<g>
			<path style="fill:none;stroke:#3D342F;stroke-width:2;stroke-linecap:round;stroke-miterlimit:10;" d="M114.982,117.337
				c0,0,8.545-5.399,32.062-5.846"/>
			<path style="fill:none;stroke:#3D342F;stroke-width:2;stroke-linecap:round;stroke-miterlimit:10;" d="M116.072,119.869
				c0,0,10.058-3.418,33.22,0.956"/>
			<path style="fill:none;stroke:#3D342F;stroke-width:2;stroke-linecap:round;stroke-miterlimit:10;" d="M116.165,122.868
				c0,0,10.855-1.474,32.444,6.94"/>
		</g>
	</g>
</g>
</svg>
