<?xml version="1.0" encoding="iso-8859-1"?>
<!-- Generator: Adobe Illustrator 25.0.1, SVG Export Plug-In . SVG Version: 6.00 Build 0)  -->
<svg version="1.1" id="&#x56FE;&#x5C42;_1" xmlns="http://www.w3.org/2000/svg" xmlns:xlink="http://www.w3.org/1999/xlink" x="0px"
	 y="0px" viewBox="0 0 200 200" style="enable-background:new 0 0 200 200;" xml:space="preserve">
<g>
	<rect y="0" style="fill:#62A5A2;" width="200" height="200"/>
	<g>
		<g>
			<g>
				<g>
					<path style="fill:#D45F26;" d="M113.899,88.12c7.164-29.051,30.789-39.22,30.789-39.22s16.889,44.088-15.394,54.602
						L113.899,88.12z"/>
				</g>
			</g>
			<g>
				<g>
					<g>
						<path style="fill:#F3DBBD;" d="M117.347,90.793c9.227-27.595,24.007-32.407,24.007-32.407s12.772,26.35-15.287,42.423
							L117.347,90.793z"/>
					</g>
				</g>
			</g>
			<g>
				<g>
					<path style="fill:#D45F26;" d="M86.102,88.12C78.937,59.069,55.311,48.9,55.311,48.9s-16.887,44.088,15.395,54.602
						L86.102,88.12z"/>
				</g>
			</g>
			<g>
				<g>
					<g>
						<path style="fill:#F3DBBD;" d="M82.656,90.793c-9.23-27.595-24.009-32.407-24.009-32.407s-12.771,26.35,15.288,42.423
							L82.656,90.793z"/>
					</g>
				</g>
			</g>
		</g>
		<g>
			<g>
				<path style="fill:#E96332;" d="M99.983,80.602L99.983,80.602c0.012,0.001,0.024,0,0.035,0
					C100.007,80.602,99.995,80.602,99.983,80.602z"/>
			</g>
		</g>
		<g>
			<g>
				<path style="fill:#A84720;" d="M100.054,80.602c-0.013,0-0.025,0-0.035,0C100.029,80.602,100.04,80.603,100.054,80.602
					L100.054,80.602z"/>
			</g>
		</g>
		<path style="fill:#EA692B;" d="M135.677,116.144c0-19.606-15.876-35.504-35.476-35.539v-0.003c-0.012,0-0.022,0.001-0.034,0.001
			c-0.012,0-0.022-0.001-0.034-0.001v0.003c-0.016,0-0.033,0-0.049,0c-0.016,0-0.034,0-0.05,0v-0.003
			c-0.013,0-0.024,0.001-0.034,0.001c-0.012,0-0.024-0.001-0.035-0.001v0.003C80.367,80.64,64.49,96.537,64.49,116.144
			c0,0.464-8.54,10.097-2.705,21.604c3.227,6.362,21.03,13.161,37.994,13.348c17.985,0.198,35.182-6.602,38.604-13.348
			C144.217,126.24,135.677,116.607,135.677,116.144z"/>
		<g>
			<g>
				<path style="fill:#3B3E43;" d="M108.974,110.504c0,3.009,2.442,5.449,5.452,5.449c3.007,0,5.45-2.44,5.45-5.449
					c0-3.01-2.442-5.451-5.45-5.451C111.416,105.053,108.974,107.494,108.974,110.504z"/>
			</g>
			<path style="fill:#FFFFFF;" d="M113.197,106.223c0,1.581,1.284,2.86,2.864,2.86c1.58,0,2.861-1.279,2.861-2.86
				c0-1.582-1.281-2.861-2.861-2.861C114.48,103.361,113.197,104.641,113.197,106.223z"/>
		</g>
		<g>
			<g>
				<path style="fill:#3B3E43;" d="M92.857,110.504c0,3.009-2.438,5.449-5.448,5.449c-3.009,0-5.45-2.44-5.45-5.449
					c0-3.01,2.44-5.451,5.45-5.451C90.419,105.053,92.857,107.494,92.857,110.504z"/>
			</g>
			<path style="fill:#FFFFFF;" d="M88.637,106.223c0,1.581-1.282,2.86-2.862,2.86c-1.581,0-2.861-1.279-2.861-2.86
				c0-1.582,1.279-2.861,2.861-2.861C87.354,103.361,88.637,104.641,88.637,106.223z"/>
		</g>
		<path style="fill:none;" d="M135.677,116.144c0-19.606-15.876-35.504-35.476-35.539v-0.003c-0.012,0-0.022,0.001-0.034,0.001
			c-0.012,0-0.022-0.001-0.034-0.001v0.003c-0.016,0-0.033,0-0.049,0c-0.016,0-0.034,0-0.05,0v-0.003
			c-0.013,0-0.024,0.001-0.034,0.001c-0.012,0-0.024-0.001-0.035-0.001v0.003C80.367,80.64,64.49,96.537,64.49,116.144
			c0,0.464-8.54,10.097-2.705,21.604c3.227,6.362,21.03,13.161,37.994,13.348c17.985,0.198,35.182-6.602,38.604-13.348
			C144.217,126.24,135.677,116.607,135.677,116.144z"/>
		<g>
			<path style="fill:#3B3E43;" d="M109.303,134.504c0,3.353-3.913,7.526-8.738,7.526c-4.828,0-8.738-4.174-8.738-7.526
				c0-3.351,3.91-6.068,8.738-6.068C105.39,128.436,109.303,131.153,109.303,134.504z"/>
			<path style="fill:#FFFFFF;" d="M106.256,132.689c-0.203,0.805-1.396,1.193-2.663,0.872c-1.266-0.321-2.128-1.234-1.926-2.04
				c0.205-0.805,1.399-1.193,2.666-0.872C105.6,130.973,106.461,131.884,106.256,132.689z"/>
		</g>
		<g>
			<defs>
				<path id="SVGID_3_" d="M135.677,116.144c0-19.606-15.876-35.504-35.476-35.539v-0.003c-0.012,0-0.022,0.001-0.034,0.001
					c-0.012,0-0.022-0.001-0.034-0.001v0.003c-0.016,0-0.033,0-0.049,0c-0.016,0-0.034,0-0.05,0v-0.003
					c-0.013,0-0.024,0.001-0.034,0.001c-0.012,0-0.024-0.001-0.035-0.001v0.003C80.367,80.64,64.49,96.537,64.49,116.144
					c0,0.464-8.54,10.097-2.705,21.604c3.227,6.362,21.03,13.161,37.994,13.348c17.985,0.198,35.182-6.602,38.604-13.348
					C144.217,126.24,135.677,116.607,135.677,116.144z"/>
			</defs>
			<clipPath id="SVGID_2_">
				<use xlink:href="#SVGID_3_"  style="overflow:visible;"/>
			</clipPath>
			<path style="clip-path:url(#SVGID_2_);fill:#F3DBBD;" d="M93.071,154.416c-2.851,3.657-13.92-0.194-24.726-8.609
				c-10.806-8.413-17.257-18.202-14.407-21.862c2.849-3.659,13.922,0.196,24.725,8.608C89.471,140.968,95.92,150.754,93.071,154.416
				z"/>
			<path style="clip-path:url(#SVGID_2_);fill:#F3DBBD;" d="M107.279,152.947c2.835,3.458,14.146-0.363,25.263-8.536
				c11.117-8.17,17.831-17.598,14.997-21.058c-2.835-3.457-14.148,0.365-25.265,8.535
				C111.159,140.062,104.444,149.487,107.279,152.947z"/>
		</g>
	</g>
</g>
</svg>
