<?xml version="1.0" encoding="iso-8859-1"?>
<!-- Generator: Adobe Illustrator 25.0.1, SVG Export Plug-In . SVG Version: 6.00 Build 0)  -->
<svg version="1.1" id="&#x56FE;&#x5C42;_1" xmlns="http://www.w3.org/2000/svg" xmlns:xlink="http://www.w3.org/1999/xlink" x="0px"
	 y="0px" viewBox="0 0 200 200" style="enable-background:new 0 0 200 200;" xml:space="preserve">
<g>
	<rect y="0" style="fill:#D8D423;" width="200" height="200"/>
	<g>
		<g>
			<g>
				<g>
					<path style="fill:#7B5735;" d="M75.397,76.4c-1.331-1.405-3.105-2.992-4.618-3.855l-0.499-0.278
						c-0.085,0.349-0.288,1.041-0.44,1.851c-0.266,1.685-0.238,3.419-0.196,5.789c0.048,2.344,0.08,5.2-0.146,8.127
						c-0.217,2.935-0.665,5.919-1.284,8.798c-1.245,5.776-3.099,11.172-5.163,16.321l-0.122,0.306
						c-2.611,6.504-9.998,9.661-16.5,7.054c-6.503-2.607-9.661-9.995-7.053-16.501c0.443-1.105,1.065-2.161,1.758-3.062
						c2.777-3.573,5.284-7.198,7.27-10.873c0.995-1.844,1.85-3.689,2.585-5.652c0.747-1.972,1.339-4.079,2.017-6.685
						c0.673-2.572,1.557-5.794,3.067-8.785c0.735-1.519,1.595-3.108,2.965-4.791c0.689-0.836,1.525-1.7,2.606-2.504
						c1.073-0.795,2.41-1.526,3.916-1.923c1.495-0.414,3.067-0.467,4.417-0.264c1.364,0.2,2.511,0.617,3.495,1.084
						c1.95,0.955,3.307,2.099,4.485,3.229c1.164,1.141,2.126,2.303,2.997,3.483c0.885,1.212,1.606,2.317,2.413,3.721
						c1.327,2.309,0.532,5.254-1.775,6.582c-1.97,1.132-4.408,0.72-5.903-0.863L75.397,76.4z"/>
				</g>
			</g>
			<g>
				<g>
					<path style="fill:#7B5735;" d="M124.603,76.4c1.331-1.405,3.106-2.992,4.617-3.855l0.499-0.278
						c0.085,0.349,0.287,1.041,0.439,1.851c0.268,1.685,0.24,3.419,0.196,5.789c-0.05,2.344-0.08,5.2,0.146,8.127
						c0.217,2.935,0.665,5.919,1.284,8.798c1.244,5.776,3.099,11.172,5.164,16.321l0.124,0.306
						c2.609,6.504,9.997,9.661,16.498,7.054c6.505-2.607,9.662-9.995,7.054-16.501c-0.444-1.105-1.065-2.161-1.758-3.062
						c-2.777-3.573-5.282-7.198-7.27-10.873c-0.993-1.844-1.85-3.689-2.587-5.652c-0.743-1.972-1.337-4.079-2.016-6.685
						c-0.671-2.572-1.555-5.794-3.066-8.785c-0.735-1.519-1.592-3.108-2.965-4.791c-0.689-0.836-1.524-1.7-2.604-2.504
						c-1.075-0.795-2.412-1.526-3.917-1.923c-1.495-0.414-3.067-0.467-4.417-0.264c-1.364,0.2-2.51,0.617-3.494,1.084
						c-1.95,0.955-3.308,2.099-4.484,3.229c-1.164,1.141-2.128,2.303-2.999,3.483c-0.887,1.212-1.607,2.317-2.414,3.721
						c-1.327,2.309-0.533,5.254,1.775,6.582c1.969,1.132,4.408,0.72,5.902-0.863L124.603,76.4z"/>
				</g>
			</g>
		</g>
		<g>
			<g>
				<path style="fill:none;" d="M75.661,114.303c3.348,1.116,6.195,2.446,8.617,3.848c0.007-0.044,0.015-0.088,0.021-0.129
					C81.651,116.439,78.713,115.096,75.661,114.303z"/>
			</g>
		</g>
		<g>
			<g>
				<path style="fill:#E96332;" d="M100.576,66.769L100.576,66.769c0.012,0.001,0.024,0,0.034,0
					C100.6,66.769,100.588,66.769,100.576,66.769z"/>
			</g>
		</g>
		<g>
			<g>
				<path style="fill:#A84720;" d="M100.646,66.769c-0.013,0-0.024,0-0.036,0C100.622,66.769,100.633,66.77,100.646,66.769
					L100.646,66.769z"/>
			</g>
		</g>
		<path style="fill:#8A603C;" d="M135.536,101.582c0-19.204-15.551-34.775-34.746-34.811v-0.002c-0.012,0-0.023,0.001-0.035,0.001
			c-0.011,0-0.021-0.001-0.032-0.001v0.002c-0.015,0-0.034,0-0.049,0c-0.016,0-0.032,0-0.048,0v-0.002
			c-0.011,0-0.022,0.001-0.034,0.001c-0.011,0-0.021-0.001-0.033-0.001v0.002c-19.195,0.035-34.746,15.606-34.746,34.811
			c0,0.452-8.365,9.888-2.649,21.157c3.159,6.232,20.597,17.72,37.212,17.902c17.616,0.193,34.46-11.293,37.811-17.902
			C143.901,111.469,135.536,102.034,135.536,101.582z"/>
		<g>
			<g>
				<path style="fill:#3B3E43;" d="M109.383,96.057c0,2.946,2.392,5.337,5.338,5.337c2.948,0,5.339-2.391,5.339-5.337
					c0-2.949-2.391-5.34-5.339-5.34C111.775,90.717,109.383,93.108,109.383,96.057z"/>
			</g>
			<path style="fill:#FFFFFF;" d="M113.519,91.864c0,1.549,1.256,2.802,2.804,2.802c1.546,0,2.803-1.253,2.803-2.802
				s-1.256-2.804-2.803-2.804C114.775,89.06,113.519,90.315,113.519,91.864z"/>
		</g>
		<g>
			<g>
				<path style="fill:#3B3E43;" d="M93.596,96.057c0,2.946-2.387,5.337-5.335,5.337c-2.947,0-5.338-2.391-5.338-5.337
					c0-2.949,2.391-5.34,5.338-5.34C91.209,90.717,93.596,93.108,93.596,96.057z"/>
			</g>
			<path style="fill:#FFFFFF;" d="M89.462,91.864c0,1.549-1.254,2.802-2.802,2.802c-1.55,0-2.802-1.253-2.802-2.802
				s1.252-2.804,2.802-2.804C88.208,89.06,89.462,90.315,89.462,91.864z"/>
		</g>
		<g>
			<defs>
				<path id="SVGID_5_" d="M135.536,101.582c0-19.204-15.551-34.775-34.746-34.811v-0.002c-0.012,0-0.023,0.001-0.035,0.001
					c-0.011,0-0.021-0.001-0.032-0.001v0.002c-0.015,0-0.034,0-0.049,0c-0.016,0-0.032,0-0.048,0v-0.002
					c-0.011,0-0.022,0.001-0.034,0.001c-0.011,0-0.021-0.001-0.033-0.001v0.002c-19.195,0.035-34.746,15.606-34.746,34.811
					c0,0.452-8.365,9.888-2.649,21.157c3.159,6.232,20.597,17.72,37.212,17.902c17.616,0.193,34.46-11.293,37.811-17.902
					C143.901,111.469,135.536,102.034,135.536,101.582z"/>
			</defs>
			<clipPath id="SVGID_2_">
				<use xlink:href="#SVGID_5_"  style="overflow:visible;"/>
			</clipPath>
			<path style="clip-path:url(#SVGID_2_);fill:#F3DBBD;" d="M126.323,125.604c0,8.109-11.617,19.51-25.948,19.51
				c-14.33,0-25.948-11.4-25.948-19.51c0-8.108,11.618-14.683,25.948-14.683C114.706,110.921,126.323,117.496,126.323,125.604z"/>
		</g>
		<g>
			<path style="fill:#3B3E43;" d="M107.919,110.976c0,2.705-3.156,6.071-7.05,6.071c-3.896,0-7.052-3.366-7.052-6.071
				c0-2.704,3.156-4.896,7.052-4.896C104.762,106.08,107.919,108.272,107.919,110.976z"/>
			<g>
				<path style="fill:#3B3E43;" d="M93.518,125.322c-1.935,0-4.076-0.954-6.396-2.852c-0.31-0.252-0.355-0.708-0.1-1.018
					c0.252-0.309,0.709-0.354,1.016-0.101c2.713,2.218,5.048,2.979,6.942,2.259c3.774-1.437,4.893-8.192,4.904-8.259
					c0.061-0.396,0.432-0.663,0.828-0.601c0.394,0.063,0.663,0.435,0.6,0.828c-0.05,0.312-1.27,7.651-5.817,9.382
					C94.861,125.202,94.203,125.322,93.518,125.322z"/>
				<path style="fill:#3B3E43;" d="M106.943,125.956c-0.596,0-1.17-0.108-1.717-0.327c-4.325-1.731-5.135-9.753-5.168-10.094
					c-0.039-0.398,0.254-0.751,0.651-0.789c0.397-0.039,0.751,0.254,0.79,0.652c0.2,2.076,1.355,7.723,4.267,8.887
					c1.597,0.64,3.631-0.101,6.05-2.197c0.301-0.262,0.758-0.229,1.021,0.073c0.26,0.302,0.229,0.759-0.073,1.021
					C110.632,125.027,108.682,125.956,106.943,125.956z"/>
			</g>
			<path style="fill:#FFFFFF;" d="M105.46,109.511c-0.163,0.649-1.127,0.962-2.149,0.703c-1.022-0.26-1.717-0.996-1.553-1.646
				c0.166-0.648,1.128-0.963,2.151-0.703C104.931,108.127,105.626,108.861,105.46,109.511z"/>
		</g>
		<g>
			<path style="fill:#3D342F;" d="M82.983,116.501c-0.152,0-0.305-0.057-0.423-0.171c-0.082-0.08-8.507-8.053-32.383-11.7
				c-0.33-0.051-0.556-0.358-0.505-0.688c0.05-0.329,0.365-0.551,0.688-0.505c24.321,3.716,32.702,11.692,33.045,12.029
				c0.237,0.234,0.242,0.615,0.009,0.854C83.296,116.439,83.14,116.501,82.983,116.501z"/>
			<path style="fill:#3D342F;" d="M81.577,119.634c-0.102,0-0.204-0.025-0.299-0.079c-0.099-0.056-10.272-5.643-34.289-3.14
				c-0.322,0.031-0.628-0.205-0.662-0.538c-0.035-0.331,0.206-0.629,0.537-0.663c24.476-2.551,34.594,3.054,35.013,3.293
				c0.288,0.166,0.389,0.534,0.224,0.822C81.99,119.525,81.785,119.634,81.577,119.634z"/>
			<path style="fill:#3D342F;" d="M46.669,128.143c-0.252,0-0.486-0.157-0.571-0.408c-0.108-0.314,0.06-0.658,0.374-0.766
				c23.275-7.973,34.396-4.786,34.859-4.645c0.318,0.096,0.499,0.432,0.403,0.751c-0.097,0.318-0.427,0.5-0.752,0.404
				c-0.109-0.033-11.271-3.194-34.119,4.631C46.8,128.132,46.733,128.143,46.669,128.143z"/>
		</g>
		<g>
			<path style="fill:#3D342F;" d="M117.574,117.707c-0.157,0-0.313-0.06-0.432-0.182c-0.231-0.238-0.229-0.619,0.009-0.853
				c0.345-0.338,8.724-8.314,33.046-12.03c0.33-0.048,0.636,0.176,0.688,0.505c0.05,0.33-0.176,0.638-0.505,0.688
				c-23.876,3.648-32.301,11.621-32.383,11.7C117.878,117.65,117.726,117.707,117.574,117.707z"/>
			<path style="fill:#3D342F;" d="M118.979,120.841c-0.208,0-0.413-0.108-0.523-0.304c-0.167-0.288-0.065-0.657,0.224-0.823
				c0.419-0.238,10.543-5.844,35.011-3.292c0.333,0.034,0.574,0.331,0.539,0.662c-0.035,0.332-0.333,0.57-0.663,0.537
				c-24.088-2.506-34.189,3.084-34.288,3.14C119.185,120.816,119.081,120.841,118.979,120.841z"/>
			<path style="fill:#3D342F;" d="M153.889,129.35c-0.066,0-0.131-0.011-0.198-0.032c-22.843-7.825-34.007-4.664-34.118-4.631
				c-0.323,0.097-0.656-0.087-0.751-0.405c-0.096-0.318,0.084-0.654,0.403-0.751c0.463-0.14,11.581-3.327,34.858,4.646
				c0.315,0.106,0.484,0.45,0.375,0.766C154.373,129.193,154.138,129.35,153.889,129.35z"/>
		</g>
	</g>
</g>
</svg>
