<?xml version="1.0" encoding="iso-8859-1"?>
<!-- Generator: Adobe Illustrator 25.0.1, SVG Export Plug-In . SVG Version: 6.00 Build 0)  -->
<svg version="1.1" id="&#x56FE;&#x5C42;_1" xmlns="http://www.w3.org/2000/svg" xmlns:xlink="http://www.w3.org/1999/xlink" x="0px"
	 y="0px" viewBox="0 0 200 200" style="enable-background:new 0 0 200 200;" xml:space="preserve">
<g>
	<rect y="0" style="fill:#F0592B;" width="200" height="200"/>
	<g>
		<path style="fill:#825D42;" d="M85.94,72.702c0.663,8.296-25.365,37.262-25.365,37.262s0.388-0.615,0.388-34.676
			C61.395,61.377,72.466,46.615,73.9,46.206C75.337,45.796,85.277,64.403,85.94,72.702z"/>
		<path style="fill:#825D42;" d="M114.505,71.677c-0.663,8.296,25.364,37.262,25.364,37.262s-0.387-0.615-0.387-34.675
			c-0.433-13.912-11.504-28.673-12.939-29.083C125.109,44.771,115.168,63.379,114.505,71.677z"/>
		<path style="fill:#966A4D;" d="M140.11,114.798c1.854,26.942-16.187,40.027-41.301,40.027c-25.114,0-43.257-14.93-38.328-48.893
			c3.497-24.099,14.423-39.567,41.42-39.567C135.199,66.365,138.54,91.977,140.11,114.798z"/>
		<g>
			<defs>
				<path id="SVGID_7_" d="M140.11,114.798c2.469,26.02-16.187,40.027-41.301,40.027c-25.114,0-42.641-14.93-38.328-48.893
					C63.548,81.776,75.52,68.21,102.517,68.21C135.813,68.21,137.949,92.025,140.11,114.798z"/>
			</defs>
			<clipPath id="SVGID_2_">
				<use xlink:href="#SVGID_7_"  style="overflow:visible;"/>
			</clipPath>
			<path style="clip-path:url(#SVGID_2_);fill:#F3DBBD;" d="M100.911,115.448c-9.994,0-27.011,15.325-30.7,41.258
				c-3.37,23.692,62.003,20.325,59.247-2.664C127.297,136.003,110.905,115.448,100.911,115.448z"/>
		</g>
		<g>
			<path style="fill:#F3DBBD;" d="M112.407,101.172c0,5.817,4.716,10.533,10.534,10.533c5.817,0,10.532-4.715,10.532-10.533
				c0-5.817-4.715-10.532-10.532-10.532C117.123,90.64,112.407,95.355,112.407,101.172z"/>
			<g>
				<path style="fill:#3D342F;" d="M116.249,101.258c0,3.461,2.806,6.265,6.267,6.265c3.459,0,6.266-2.804,6.266-6.265
					c0-3.461-2.807-6.266-6.266-6.266C119.055,94.992,116.249,97.797,116.249,101.258z"/>
				<path style="fill:#FFFFFF;" d="M121.619,96.086c0,1.648,1.336,2.984,2.982,2.984c1.65,0,2.986-1.336,2.986-2.984
					c0-1.648-1.336-2.984-2.986-2.984C122.955,93.102,121.619,94.438,121.619,96.086z"/>
			</g>
		</g>
		<g>
			<path style="fill:#F3DBBD;" d="M89.256,102.094c0,5.818-4.714,10.533-10.531,10.533s-10.533-4.715-10.533-10.533
				c0-5.817,4.716-10.532,10.533-10.532S89.256,96.277,89.256,102.094z"/>
			<g>
				<path style="fill:#3D342F;" d="M83.879,102.795c0,3.46-2.805,6.265-6.266,6.265c-3.462,0-6.268-2.805-6.268-6.265
					c0-3.461,2.806-6.266,6.268-6.266C81.074,96.53,83.879,99.335,83.879,102.795z"/>
				<path style="fill:#FFFFFF;" d="M78.509,97.624c0,1.647-1.337,2.984-2.985,2.984c-1.648,0-2.982-1.336-2.982-2.984
					c0-1.648,1.335-2.984,2.982-2.984C77.172,94.64,78.509,95.976,78.509,97.624z"/>
			</g>
		</g>
		<g>
			<path style="fill:#3D342F;" d="M112.545,125.545c0,2.371-9.144,6.177-12.325,6.177c-3.182,0-12.722-3.689-12.722-6.061
				c0-2.37,5.34-4.292,11.927-4.292C106.01,121.368,112.545,123.173,112.545,125.545z"/>
			<path style="fill:#3D342F;" d="M100.403,148.83c-6.91,0-11.988-4.23-12.063-4.295c-0.388-0.33-0.434-0.913-0.104-1.3
				c0.331-0.388,0.912-0.434,1.299-0.104l0,0c0.411,0.348,10.166,8.421,20.77,0.26c0.403-0.31,0.984-0.235,1.294,0.168
				c0.312,0.404,0.234,0.983-0.169,1.295C107.564,147.827,103.766,148.83,100.403,148.83z"/>
			<rect x="99.135" y="129.235" style="fill:#3D342F;" width="2.31" height="19.372"/>
		</g>
	</g>
</g>
</svg>
