<?xml version="1.0" encoding="iso-8859-1"?>
<!-- Generator: Adobe Illustrator 25.0.1, SVG Export Plug-In . SVG Version: 6.00 Build 0)  -->
<svg version="1.1" id="&#x56FE;&#x5C42;_1" xmlns="http://www.w3.org/2000/svg" xmlns:xlink="http://www.w3.org/1999/xlink" x="0px"
	 y="0px" viewBox="0 0 200 200" style="enable-background:new 0 0 200 200;" xml:space="preserve">
<g>
	<rect y="0" style="fill:#185787;" width="200" height="200"/>
	<g>
		<path style="fill:#F7A99B;" d="M146.072,104.212c0,22.71-20.576,41.12-45.958,41.12s-45.96-18.41-45.96-41.12
			c0-22.71,20.578-41.12,45.96-41.12S146.072,81.502,146.072,104.212z"/>
		<path style="fill:#D69488;" d="M124.302,121.789c0,8.549-10.612,15.481-23.704,15.481c-13.093,0-23.704-6.932-23.704-15.481
			c0-8.549,10.611-15.48,23.704-15.48C113.689,106.309,124.302,113.239,124.302,121.789z"/>
		<g>
			<path style="fill:#D69488;" d="M108.371,94.861c0,4.698,3.808,8.507,8.506,8.507c4.699,0,8.507-3.809,8.507-8.507
				c0-4.698-3.808-8.507-8.507-8.507C112.179,86.354,108.371,90.163,108.371,94.861z"/>
			<g>
				<path style="fill:#3D342F;" d="M111.472,94.931c0,2.794,2.266,5.06,5.061,5.06c2.795,0,5.061-2.266,5.061-5.06
					c0-2.795-2.266-5.062-5.061-5.062C113.737,89.869,111.472,92.135,111.472,94.931z"/>
				<path style="fill:#FFFFFF;" d="M115.81,90.753c0,1.332,1.079,2.41,2.409,2.41c1.332,0,2.411-1.079,2.411-2.41
					c0-1.332-1.079-2.41-2.411-2.41C116.889,88.343,115.81,89.421,115.81,90.753z"/>
			</g>
		</g>
		<g>
			<path style="fill:#D69488;" d="M94.887,94.861c0,4.698-3.809,8.507-8.509,8.507c-4.697,0-8.505-3.809-8.505-8.507
				c0-4.698,3.808-8.507,8.505-8.507C91.078,86.354,94.887,90.163,94.887,94.861z"/>
			<g>
				<path style="fill:#3D342F;" d="M91.784,94.931c0,2.794-2.266,5.06-5.06,5.06c-2.796,0-5.062-2.266-5.062-5.06
					c0-2.795,2.266-5.062,5.062-5.062C89.519,89.869,91.784,92.135,91.784,94.931z"/>
				<path style="fill:#FFFFFF;" d="M87.445,90.753c0,1.332-1.078,2.41-2.408,2.41c-1.332,0-2.41-1.079-2.41-2.41
					c0-1.332,1.078-2.41,2.41-2.41C86.367,88.343,87.445,89.421,87.445,90.753z"/>
			</g>
		</g>
		<path style="fill:#3D342F;" d="M96.481,122.11c0,2.36-1.913,4.274-4.273,4.274c-2.359,0-4.273-1.914-4.273-4.274
			c0-2.36,1.914-4.273,4.273-4.273C94.568,117.837,96.481,119.751,96.481,122.11z"/>
		<path style="fill:#3D342F;" d="M114.114,122.325c0,2.36-1.914,4.274-4.273,4.274c-2.361,0-4.275-1.914-4.275-4.274
			c0-2.359,1.913-4.273,4.275-4.273C112.2,118.052,114.114,119.966,114.114,122.325z"/>
		<g>
			<path style="fill:#F7A99B;" d="M145.68,82.197c-6.061,5.443-15.225,5.123-20.467-0.715c-5.242-5.838-4.579-14.983,1.48-20.426
				c6.063-5.442,27.746-7.161,28.716-6.083C156.377,56.051,151.741,76.754,145.68,82.197z"/>
			<path style="fill:#D69488;" d="M143.585,78.229c-4.204,3.776-10.56,3.554-14.198-0.496c-3.638-4.049-3.178-10.394,1.029-14.169
				c4.204-3.775,19.246-4.968,19.918-4.219C151.006,60.092,147.789,74.454,143.585,78.229z"/>
		</g>
		<g>
			<path style="fill:#F7A99B;" d="M54.319,82.197c6.061,5.443,15.225,5.123,20.467-0.715c5.243-5.838,4.578-14.983-1.483-20.426
				c-6.06-5.442-27.745-7.161-28.713-6.083C43.622,56.051,48.258,76.754,54.319,82.197z"/>
			<path style="fill:#D69488;" d="M56.414,78.229c4.204,3.776,10.561,3.554,14.196-0.496c3.638-4.049,3.178-10.394-1.025-14.169
				c-4.206-3.775-19.25-4.968-19.92-4.219C48.992,60.092,52.209,74.454,56.414,78.229z"/>
		</g>
	</g>
</g>
</svg>
