<?xml version="1.0" encoding="iso-8859-1"?>
<!-- Generator: Adobe Illustrator 25.0.1, SVG Export Plug-In . SVG Version: 6.00 Build 0)  -->
<svg version="1.1" id="&#x56FE;&#x5C42;_1" xmlns="http://www.w3.org/2000/svg" xmlns:xlink="http://www.w3.org/1999/xlink" x="0px"
	 y="0px" viewBox="0 0 200 200" style="enable-background:new 0 0 200 200;" xml:space="preserve">
<g>
	<rect y="0" style="fill:#F0592B;" width="200" height="200"/>
	<g>
		<g>
			<path style="fill:#8A603C;" d="M86.239,72.316c4.195,4.489,3.678,11.792-1.158,16.311c-4.833,4.519-12.157,4.542-16.354,0.053
				c-4.194-4.49-4.92-21.563-4.92-21.563S82.045,67.827,86.239,72.316z"/>
			<path style="fill:#C2986B;" d="M83.045,75.271c2.654,2.839,2.325,7.458-0.732,10.316c-3.059,2.856-7.688,2.873-10.341,0.034
				c-2.654-2.84-3.113-13.638-3.113-13.638S80.392,72.432,83.045,75.271z"/>
		</g>
		<g>
			<path style="fill:#8A603C;" d="M112.63,72.675c-4.196,4.49-3.677,11.793,1.159,16.311c4.835,4.52,12.155,4.543,16.352,0.051
				c4.196-4.487,4.923-21.563,4.923-21.563S116.826,68.184,112.63,72.675z"/>
			<path style="fill:#C2986B;" d="M115.825,75.63c-2.654,2.839-2.327,7.458,0.732,10.315c3.058,2.857,7.687,2.872,10.34,0.032
				c2.654-2.839,3.114-13.637,3.114-13.637S118.479,72.79,115.825,75.63z"/>
		</g>
		<g>
			<path style="fill:#E0DCD3;" d="M95.58,81.898c-0.08,0-0.16-0.005-0.241-0.014c-1.177-0.131-2.027-1.191-1.896-2.37
				c0.003-0.033,0.356-3.259,0.323-6.713c-0.051-5.342-0.946-6.739-1.174-7.008c-2.74-0.004-10.659-0.113-17.659-0.211
				c-5.399-0.076-10.5-0.148-11.745-0.148c-0.886,0-1.728-0.375-2.371-1.059c-2.295-2.441-2.107-9.924-1.919-13.027
				c0.071-1.185,1.093-2.087,2.273-2.014c1.184,0.07,2.085,1.09,2.014,2.272c-0.239,3.982,0.043,8.168,0.61,9.535
				c1.845,0.014,6.222,0.076,11.199,0.145c7.091,0.1,15.127,0.211,17.719,0.211c1.178,0,2.237,0.489,3.064,1.412
				c3.162,3.533,2.279,13.966,1.933,17.076C97.59,81.086,96.658,81.898,95.58,81.898z"/>
			<path style="fill:#E0DCD3;" d="M72.492,65.615c-1.166,0-2.122-0.934-2.146-2.104l-0.18-8.947
				c-0.023-1.186,0.92-2.166,2.104-2.189c0.015,0,0.029,0,0.045,0c1.165,0,2.121,0.933,2.145,2.104l0.179,8.947
				c0.025,1.186-0.918,2.166-2.104,2.189C72.522,65.615,72.507,65.615,72.492,65.615z"/>
			<path style="fill:#E0DCD3;" d="M83.05,65.436c-1.157,0-2.111-0.919-2.145-2.084l-0.179-6.083
				c-0.035-1.186,0.897-2.175,2.083-2.21c1.197-0.035,2.175,0.897,2.21,2.082l0.178,6.085c0.035,1.187-0.898,2.176-2.082,2.21
				C83.093,65.436,83.07,65.436,83.05,65.436z"/>
		</g>
		<g>
			<path style="fill:#E0DCD3;" d="M104.421,82.078c-1.08,0-2.01-0.812-2.131-1.911c-0.347-3.113-1.229-13.544,1.933-17.076
				c0.827-0.923,1.888-1.413,3.065-1.413c2.592,0,10.628-0.112,17.72-0.21c4.974-0.07,9.352-0.131,11.196-0.146
				c0.561-1.371,0.849-5.625,0.61-9.534c-0.071-1.185,0.831-2.202,2.015-2.273c1.186-0.065,2.201,0.829,2.273,2.013
				c0.188,3.105,0.377,10.588-1.919,13.028c-0.643,0.684-1.485,1.06-2.372,1.06c-1.243,0-6.346,0.071-11.745,0.146
				c-6.998,0.098-14.916,0.208-17.657,0.212c-0.229,0.27-1.127,1.672-1.174,7.044c-0.029,3.451,0.319,6.643,0.323,6.676
				c0.131,1.178-0.718,2.239-1.898,2.37C104.581,82.073,104.501,82.078,104.421,82.078z"/>
			<path style="fill:#E0DCD3;" d="M127.508,65.794c-0.014,0-0.028,0-0.043-0.001c-1.186-0.023-2.13-1.003-2.104-2.189l0.18-8.948
				c0.023-1.185,0.999-2.136,2.189-2.104c1.185,0.023,2.128,1.004,2.103,2.189l-0.179,8.947
				C129.63,64.86,128.675,65.794,127.508,65.794z"/>
			<path style="fill:#E0DCD3;" d="M116.951,65.615c-0.021,0-0.043-0.001-0.065-0.001c-1.185-0.035-2.118-1.024-2.083-2.211
				l0.179-6.083c0.035-1.186,1.009-2.122,2.209-2.083c1.186,0.035,2.119,1.024,2.084,2.21l-0.18,6.084
				C119.062,64.695,118.108,65.615,116.951,65.615z"/>
		</g>
		<path style="fill:#8A603C;" d="M126.111,113.573c1.278-21.698-10.448-38.115-27.226-38.405v-0.001
			c-0.007,0-0.012,0.001-0.017,0.001c-0.006,0-0.012-0.001-0.018-0.001v0.001c-16.776,0.29-28.502,16.707-27.226,38.405
			c0.516,8.729-14.966,37.097,26.804,37.097c0.146,0,0.292-0.002,0.439-0.002c0.146,0,0.292,0.002,0.438,0.002
			C141.077,150.67,125.597,122.302,126.111,113.573z"/>
		<path style="fill:#3B3E43;" d="M122.954,133.914c0,7.246-10.657,13.119-23.804,13.119c-13.145,0-23.802-5.873-23.802-13.119
			c0-7.247,10.657-13.12,23.802-13.12C112.297,120.794,122.954,126.667,122.954,133.914z"/>
		<g>
			<path style="fill:#3B3E43;" d="M91.657,105.88c0,2.37-1.923,4.294-4.295,4.294c-2.371,0-4.294-1.924-4.294-4.294
				c0-2.373,1.923-4.296,4.294-4.296C89.734,101.584,91.657,103.507,91.657,105.88z"/>
			<path style="fill:#FFFFFF;" d="M87.661,102.419c0,1.515-1.229,2.743-2.744,2.743c-1.516,0-2.744-1.229-2.744-2.743
				c0-1.516,1.229-2.744,2.744-2.744C86.432,99.675,87.661,100.903,87.661,102.419z"/>
		</g>
		<g>
			<path style="fill:#3B3E43;" d="M105.853,105.878c0,2.372,1.923,4.296,4.295,4.296c2.371,0,4.294-1.924,4.294-4.296
				c0-2.371-1.923-4.294-4.294-4.294C107.775,101.584,105.853,103.507,105.853,105.878z"/>
			<path style="fill:#FFFFFF;" d="M109.851,102.419c0,1.515,1.227,2.743,2.741,2.743c1.517,0,2.745-1.229,2.745-2.743
				c0-1.516-1.229-2.744-2.745-2.744C111.077,99.675,109.851,100.903,109.851,102.419z"/>
		</g>
	</g>
</g>
</svg>
