<?xml version="1.0" encoding="iso-8859-1"?>
<!-- Generator: Adobe Illustrator 25.0.1, SVG Export Plug-In . SVG Version: 6.00 Build 0)  -->
<svg version="1.1" id="&#x56FE;&#x5C42;_1" xmlns="http://www.w3.org/2000/svg" xmlns:xlink="http://www.w3.org/1999/xlink" x="0px"
	 y="0px" viewBox="0 0 200 200" style="enable-background:new 0 0 200 200;" xml:space="preserve">
<g>
	<rect y="0" style="fill:#185787;" width="200" height="200"/>
	<g>
		<path style="fill:#8A603C;" d="M149.393,117.495c0,13.996-11.344,25.341-25.342,25.341c-13.996,0-25.341-11.345-25.341-25.341
			c0-13.995,11.345-25.342,25.341-25.342C138.049,92.153,149.393,103.5,149.393,117.495z"/>
		<path style="fill:#8A603C;" d="M101.292,117.592c0,13.996-11.345,25.341-25.343,25.341c-13.995,0-25.341-11.345-25.341-25.341
			c0-13.996,11.347-25.343,25.341-25.343C89.947,92.249,101.292,103.596,101.292,117.592z"/>
		<g>
			<g>
				<path style="fill:#07171B;" d="M94.732,138.242c-0.006,0.008-0.014,0.021-0.019,0.027c0.005-0.008,0.013-0.02,0.015-0.03
					C94.728,138.239,94.732,138.239,94.732,138.242z"/>
			</g>
			<g>
				<path style="fill:#07171B;" d="M94.697,138.242c0.005,0.008,0.013,0.021,0.017,0.027c-0.004-0.008-0.012-0.02-0.015-0.03
					C94.698,138.239,94.697,138.239,94.697,138.242z"/>
			</g>
		</g>
		<g>
			<g>
				<path style="fill:#A84720;" d="M100.431,136.747c-0.014,0-0.027-0.003-0.038-0.003c0.011,0,0.024-0.003,0.038-0.003V136.747z"/>
			</g>
			<g>
				<path style="fill:#A84720;" d="M100.354,136.747c0.014,0,0.029-0.003,0.039-0.003c-0.011,0-0.025-0.003-0.039-0.003V136.747z"/>
			</g>
		</g>
		<g>
			<g>
				<g>
					<g>
						<g>
							<circle style="fill:#AF5B2B;" cx="129.237" cy="70.055" r="16.717"/>
						</g>
						<g>
							<path style="fill:#4B190D;" d="M119.601,70.055c0,5.322,4.313,9.638,9.636,9.638c5.322,0,9.637-4.315,9.637-9.638
								c0-5.322-4.315-9.637-9.637-9.637C123.913,60.418,119.601,64.732,119.601,70.055z"/>
						</g>
					</g>
					<g>
						<g>
							<circle style="fill:#8A603C;" cx="129.237" cy="70.055" r="16.717"/>
						</g>
						<g>
							<path style="fill:#C2986B;" d="M119.601,70.055c0,5.322,4.313,9.638,9.636,9.638c5.322,0,9.637-4.315,9.637-9.638
								c0-5.322-4.315-9.637-9.637-9.637C123.913,60.418,119.601,64.732,119.601,70.055z"/>
						</g>
					</g>
					<g>
						<path style="fill:#F39E2B;" d="M100.509,60.847v48.301v10.933c0.007,0.005,0.015,0.006,0.021,0.012l-0.021,8.453v2.018h-0.003
							l-0.036,13.688"/>
					</g>
					<g>
						<line style="fill:#F6F3CF;" x1="100.502" y1="145.795" x2="100.561" y2="120.092"/>
					</g>
				</g>
			</g>
			<g>
				<g>
					<g>
						<g>
							<path style="fill:#AF5B2B;" d="M88.346,70.055c0,9.231-7.483,16.717-16.717,16.717c-9.231,0-16.716-7.485-16.716-16.717
								c0-9.232,7.485-16.717,16.716-16.717C80.864,53.338,88.346,60.822,88.346,70.055z"/>
						</g>
						<g>
							<path style="fill:#4B190D;" d="M81.266,70.055c0,5.322-4.313,9.638-9.637,9.638c-5.322,0-9.637-4.315-9.637-9.638
								c0-5.322,4.315-9.637,9.637-9.637C76.953,60.418,81.266,64.732,81.266,70.055z"/>
						</g>
					</g>
					<g>
						<g>
							<path style="fill:#8A603C;" d="M88.346,70.055c0,9.231-7.483,16.717-16.717,16.717c-9.231,0-16.716-7.485-16.716-16.717
								c0-9.232,7.485-16.717,16.716-16.717C80.864,53.338,88.346,60.822,88.346,70.055z"/>
						</g>
						<g>
							<path style="fill:#C2986B;" d="M81.266,70.055c0,5.322-4.313,9.638-9.637,9.638c-5.322,0-9.637-4.315-9.637-9.638
								c0-5.322,4.315-9.637,9.637-9.637C76.953,60.418,81.266,64.732,81.266,70.055z"/>
						</g>
					</g>
					<g>
						<path style="fill:#F39E2B;" d="M100.358,60.847v48.301v10.933c-0.007,0.005-0.015,0.006-0.021,0.012l0.021,8.453v2.018h0.004
							l0.035,13.688"/>
					</g>
					<path style="fill:#8A603C;" d="M141.746,103.382c0-22.165-9.953-42.535-41.289-42.535l-0.045,0.472v-0.472
						c-31.337,0-41.29,20.37-41.29,42.535c-2.333,9.506-6.411,9.237-4.116,21.382c2.294,12.145,15.301,16.639,24.791,16.897
						c0-0.71,0-2.748,0-8.049c0-6.02,9.742-1.856,10.401-3.301c6.885,2.723,3.133-1.096,4.499,1.78
						c1.702-0.946,3.635-1.528,5.715-1.528v-0.21l0.045,0.21c2.079,0,4.012,0.582,5.714,1.528c1.366-2.876-5.646,3.62,1.24,0.897
						c0.659,1.445,13.66-5.396,13.66,0.623c0,5.301,0,7.339,0,8.049c8.143,0,23.062,0.125,23.826-15.367
						C145.562,112.824,144.079,112.888,141.746,103.382z"/>
					<g>
						<line style="fill:#F6F3CF;" x1="100.364" y1="145.795" x2="100.306" y2="120.092"/>
					</g>
				</g>
			</g>
		</g>
		<g>
			<g>
				<path style="fill:#3B3E43;" d="M110.204,96.545c0,3.215,2.606,5.818,5.82,5.818c3.214,0,5.82-2.604,5.82-5.818
					c0-3.215-2.606-5.82-5.82-5.82C112.81,90.725,110.204,93.33,110.204,96.545z"/>
			</g>
			<path style="fill:#FFFFFF;" d="M114.712,91.973c0,1.688,1.37,3.055,3.058,3.055c1.688,0,3.056-1.367,3.056-3.055
				c0-1.689-1.368-3.057-3.056-3.057C116.082,88.916,114.712,90.283,114.712,91.973z"/>
		</g>
		<g>
			<g>
				<path style="fill:#3B3E43;" d="M92.989,96.545c0,3.215-2.604,5.818-5.818,5.818c-3.214,0-5.82-2.604-5.82-5.818
					c0-3.215,2.606-5.82,5.82-5.82C90.385,90.725,92.989,93.33,92.989,96.545z"/>
			</g>
			<path style="fill:#FFFFFF;" d="M88.481,91.973c0,1.688-1.368,3.055-3.056,3.055c-1.688,0-3.056-1.367-3.056-3.055
				c0-1.689,1.368-3.057,3.056-3.057C87.113,88.916,88.481,90.283,88.481,91.973z"/>
		</g>
		<path style="fill:#F3DBBD;" d="M113.988,119.17c-3.612-1.141-6.448-2.576-13.555,0.922c-7.108-3.498-9.942-2.062-13.554-0.922
			c-1.689,0.695-7.083,3.528-7.083,14.441c0,5.301-0.12,8.517-0.12,9.227c6.375,2.276,8.704,3.824,21.326,3.824
			c12.624,0,13.313-1.645,19.688-3.92c0-0.709,0.38-3.83,0.38-9.131C121.071,122.698,115.677,119.865,113.988,119.17z"/>
		<path style="fill:#3B3E43;" d="M109.924,118.215c0,3.441-3.98,7.728-8.891,7.728c-4.911,0-8.892-4.286-8.892-7.728
			s3.981-6.232,8.892-6.232C105.943,111.982,109.924,114.773,109.924,118.215z"/>
		<g>
			<path style="fill:#3B3E43;" d="M92.663,135.427c-2.183,0-4.602-1.075-7.22-3.219c-0.347-0.286-0.399-0.8-0.114-1.15
				c0.286-0.35,0.801-0.399,1.149-0.114c3.06,2.505,5.698,3.361,7.836,2.55c4.261-1.621,5.522-9.246,5.533-9.324
				c0.073-0.442,0.489-0.748,0.935-0.676c0.446,0.072,0.75,0.488,0.678,0.936c-0.055,0.35-1.432,8.637-6.566,10.589
				C94.18,135.291,93.436,135.427,92.663,135.427z"/>
			<path style="fill:#3B3E43;" d="M107.818,136.142c-0.674,0-1.32-0.123-1.938-0.371c-4.882-1.953-5.796-11.008-5.834-11.394
				c-0.043-0.449,0.286-0.848,0.733-0.89c0.449-0.045,0.85,0.286,0.89,0.735c0.227,2.346,1.531,8.719,4.819,10.033
				c1.802,0.722,4.101-0.113,6.829-2.48c0.341-0.296,0.856-0.259,1.151,0.08c0.295,0.341,0.26,0.858-0.081,1.152
				C111.983,135.094,109.782,136.142,107.818,136.142z"/>
		</g>
		<path style="fill:#FFFFFF;" d="M106.825,116.35c-0.207,0.825-1.423,1.225-2.712,0.896c-1.289-0.331-2.164-1.27-1.957-2.096
			c0.209-0.824,1.422-1.225,2.71-0.896C106.156,114.587,107.032,115.523,106.825,116.35z"/>
	</g>
</g>
</svg>
