<?xml version="1.0" encoding="iso-8859-1"?>
<!-- Generator: Adobe Illustrator 25.0.1, SVG Export Plug-In . SVG Version: 6.00 Build 0)  -->
<svg version="1.1" id="&#x56FE;&#x5C42;_1" xmlns="http://www.w3.org/2000/svg" xmlns:xlink="http://www.w3.org/1999/xlink" x="0px"
	 y="0px" viewBox="0 0 200 200" style="enable-background:new 0 0 200 200;" xml:space="preserve">
<g>
	<rect y="0" style="fill:#62A5A2;" width="200" height="200"/>
	<g>
		<g>
			<path style="fill:#EA692B;" d="M114.341,65.396c-4.324,6.092-2.511,14.807,4.048,19.465c6.562,4.656,15.386,3.493,19.71-2.598
				c4.323-6.09,5.13-24.123,2.421-26.779C137.813,52.829,118.668,59.307,114.341,65.396z"/>
			<path style="fill:#F3DBBD;" d="M117.603,69.717c-2.421,4.058-0.842,9.459,3.528,12.062c4.369,2.607,9.874,1.434,12.298-2.624
				c2.417-4.058,5.715-17.918,2.606-19.495C132.925,58.085,120.023,65.656,117.603,69.717z"/>
		</g>
		<g>
			<path style="fill:#EA692B;" d="M87.838,65.396c4.323,6.092,2.51,14.807-4.049,19.465c-6.561,4.656-15.384,3.493-19.709-2.598
				c-4.325-6.09-5.131-24.123-2.423-26.779C64.364,52.829,83.511,59.307,87.838,65.396z"/>
			<path style="fill:#F3DBBD;" d="M84.574,69.717c2.421,4.058,0.843,9.459-3.528,12.062c-4.369,2.607-9.873,1.434-12.296-2.624
				c-2.418-4.058-5.718-17.918-2.607-19.495C69.253,58.085,82.155,65.656,84.574,69.717z"/>
		</g>
		<g>
			<g>
				<path style="fill:#F6F3CF;" d="M149.647,122.974c-0.6-0.436-1.379-0.856-2.3-1.241c0.247,0.151,0.472,0.286,0.687,0.408
					C148.626,122.401,149.167,122.68,149.647,122.974z"/>
			</g>
		</g>
		<g>
			<g>
				<path style="fill:#F6F3CF;" d="M149.647,122.974c-0.48-0.294-1.022-0.572-1.613-0.833
					C149.011,122.702,149.647,122.974,149.647,122.974z"/>
			</g>
		</g>
		<g>
			<g>
				<path style="fill:#F6F3CF;" d="M53.371,121.732c-0.921,0.385-1.699,0.806-2.302,1.241c0.482-0.294,1.021-0.572,1.614-0.833
					C52.902,122.019,53.128,121.884,53.371,121.732z"/>
			</g>
		</g>
		<g>
			<g>
				<path style="fill:#F6F3CF;" d="M51.069,122.974c0,0,0.641-0.271,1.614-0.833C52.091,122.401,51.552,122.68,51.069,122.974z"/>
			</g>
		</g>
		<g>
			<g>
				<path style="fill:none;" d="M73.312,121.803c3.63,1.212,6.717,2.654,9.344,4.173c0.005-0.046,0.015-0.095,0.021-0.14
					C79.805,124.121,76.621,122.663,73.312,121.803z"/>
			</g>
		</g>
		<g>
			<g>
				<path style="fill:#E96332;" d="M100.324,70.272v0.002c0.012,0,0.023-0.002,0.036-0.002
					C100.348,70.272,100.336,70.272,100.324,70.272z"/>
			</g>
		</g>
		<g>
			<g>
				<path style="fill:#A84720;" d="M100.397,70.272c-0.013,0-0.026,0-0.037,0c0.011,0,0.024,0.002,0.037,0.002V70.272z"/>
			</g>
		</g>
		<path style="fill:#EA692B;" d="M138.223,108.013c0-20.82-16.857-37.698-37.668-37.738v-0.002c-0.013,0-0.025,0.002-0.039,0.002
			c-0.01,0-0.021-0.002-0.035-0.002v0.002c-0.016,0-0.034,0-0.052,0c-0.017,0-0.035,0-0.052,0v-0.002
			c-0.013,0-0.023,0.002-0.037,0.002c-0.013,0-0.023-0.002-0.036-0.002v0.002c-20.811,0.04-37.669,16.918-37.669,37.738
			c0,0.49-9.066,10.72-2.872,22.938c3.426,6.756,22.33,13.976,40.341,14.174c19.1,0.21,37.359-7.011,40.992-14.174
			C147.29,118.732,138.223,108.503,138.223,108.013z"/>
		<g>
			<g>
				<path style="fill:#3B3E43;" d="M109.869,102.023c0,3.194,2.594,5.786,5.788,5.786c3.195,0,5.788-2.592,5.788-5.786
					c0-3.196-2.593-5.789-5.788-5.789C112.463,96.234,109.869,98.827,109.869,102.023z"/>
			</g>
			<path style="fill:#FFFFFF;" d="M114.354,97.479c0,1.678,1.361,3.037,3.038,3.037c1.678,0,3.04-1.359,3.04-3.037
				c0-1.68-1.362-3.039-3.04-3.039C115.716,94.439,114.354,95.799,114.354,97.479z"/>
		</g>
		<g>
			<g>
				<path style="fill:#3B3E43;" d="M92.757,102.023c0,3.194-2.591,5.786-5.785,5.786c-3.196,0-5.786-2.592-5.786-5.786
					c0-3.196,2.59-5.789,5.786-5.789C90.166,96.234,92.757,98.827,92.757,102.023z"/>
			</g>
			<path style="fill:#FFFFFF;" d="M88.274,97.479c0,1.678-1.36,3.037-3.038,3.037c-1.679,0-3.039-1.359-3.039-3.037
				c0-1.68,1.36-3.039,3.039-3.039C86.914,94.439,88.274,95.799,88.274,97.479z"/>
		</g>
		<g>
			<defs>
				<path id="SVGID_9_" d="M138.223,108.013c0-20.82-16.857-37.698-37.668-37.738v-0.002c-0.013,0-0.025,0.002-0.039,0.002
					c-0.01,0-0.021-0.002-0.035-0.002v0.002c-0.016,0-0.034,0-0.052,0c-0.017,0-0.035,0-0.052,0v-0.002
					c-0.013,0-0.023,0.002-0.037,0.002c-0.013,0-0.023-0.002-0.036-0.002v0.002c-20.811,0.04-37.669,16.918-37.669,37.738
					c0,0.49-9.066,10.72-2.872,22.938c3.426,6.756,22.33,13.976,40.341,14.174c19.1,0.21,37.359-7.011,40.992-14.174
					C147.29,118.732,138.223,108.503,138.223,108.013z"/>
			</defs>
			<clipPath id="SVGID_2_">
				<use xlink:href="#SVGID_9_"  style="overflow:visible;"/>
			</clipPath>
			<path style="clip-path:url(#SVGID_2_);fill:#F3DBBD;" d="M128.234,134.056c0,8.791-12.595,15.917-28.131,15.917
				c-15.534,0-28.13-7.126-28.13-15.917c0-8.79,12.596-15.918,28.13-15.918C115.64,118.138,128.234,125.266,128.234,134.056z"/>
		</g>
		<g>
			<path style="fill:#3B3E43;" d="M108.283,118.197c0,2.932-3.424,6.583-7.646,6.583c-4.221,0-7.644-3.651-7.644-6.583
				c0-2.932,3.423-5.307,7.644-5.307C104.859,112.891,108.283,115.266,108.283,118.197z"/>
			<g>
				<path style="fill:#3B3E43;" d="M92.67,133.75c-2.096,0-4.418-1.035-6.932-3.091c-0.337-0.274-0.387-0.768-0.111-1.102
					s0.77-0.385,1.104-0.11c2.939,2.405,5.473,3.229,7.525,2.447c4.091-1.556,5.304-8.879,5.315-8.951
					c0.067-0.43,0.469-0.721,0.897-0.652c0.427,0.07,0.719,0.472,0.651,0.898c-0.052,0.34-1.376,8.295-6.308,10.171
					C94.127,133.62,93.413,133.75,92.67,133.75z"/>
				<path style="fill:#3B3E43;" d="M107.224,134.437c-0.646,0-1.268-0.117-1.86-0.355c-4.688-1.877-5.566-10.574-5.603-10.942
					c-0.041-0.432,0.274-0.813,0.705-0.854c0.43-0.043,0.814,0.274,0.856,0.706c0.216,2.251,1.468,8.374,4.625,9.634
					c1.73,0.693,3.937-0.107,6.559-2.38c0.329-0.284,0.821-0.249,1.106,0.078c0.282,0.327,0.247,0.821-0.078,1.107
					C111.225,133.43,109.111,134.437,107.224,134.437z"/>
			</g>
			<path style="fill:#FFFFFF;" d="M105.618,116.609c-0.179,0.704-1.222,1.044-2.33,0.762c-1.108-0.279-1.86-1.079-1.684-1.783
				c0.178-0.703,1.222-1.044,2.332-0.763C105.043,115.107,105.798,115.905,105.618,116.609z"/>
		</g>
		<g>
			<path style="fill:#3D342F;" d="M81.249,124.38c-0.213,0-0.427-0.081-0.591-0.241c-0.112-0.108-9.232-8.695-35.003-12.634
				c-0.462-0.069-0.778-0.502-0.708-0.963c0.07-0.461,0.493-0.781,0.964-0.707c26.427,4.036,35.555,12.727,35.93,13.095
				c0.334,0.326,0.338,0.862,0.012,1.195C81.688,124.294,81.468,124.38,81.249,124.38z"/>
			<path style="fill:#3D342F;" d="M79.726,127.776c-0.143,0-0.286-0.035-0.417-0.11c-0.134-0.074-11.129-6.077-37.061-3.382
				c-0.47,0.049-0.88-0.288-0.928-0.754c-0.049-0.463,0.287-0.879,0.753-0.927c26.588-2.77,37.617,3.332,38.073,3.594
				c0.404,0.231,0.546,0.749,0.314,1.155C80.305,127.624,80.019,127.776,79.726,127.776z"/>
			<path style="fill:#3D342F;" d="M41.882,137c-0.352,0-0.681-0.221-0.8-0.571c-0.152-0.442,0.083-0.924,0.525-1.074
				c25.288-8.661,37.405-5.188,37.907-5.037c0.447,0.135,0.7,0.607,0.564,1.054c-0.133,0.447-0.604,0.697-1.052,0.566l0,0
				c-0.12-0.034-12.179-3.441-36.872,5.018C42.065,136.984,41.972,137,41.882,137z"/>
		</g>
		<g>
			<path style="fill:#3D342F;" d="M118.751,125.688c-0.219,0-0.439-0.085-0.603-0.254c-0.328-0.333-0.323-0.869,0.011-1.195
				c0.376-0.367,9.502-9.059,35.929-13.095c0.47-0.072,0.894,0.246,0.964,0.707c0.071,0.461-0.246,0.894-0.707,0.964
				c-25.894,3.954-34.914,12.545-35.002,12.631C119.178,125.607,118.964,125.688,118.751,125.688z"/>
			<path style="fill:#3D342F;" d="M120.275,129.084c-0.295,0-0.58-0.154-0.736-0.427c-0.23-0.406-0.09-0.921,0.314-1.152
				c0.456-0.261,11.482-6.361,38.072-3.593c0.464,0.048,0.802,0.464,0.753,0.928c-0.048,0.463-0.459,0.803-0.929,0.753
				c-25.963-2.7-36.95,3.32-37.057,3.381C120.561,129.049,120.417,129.084,120.275,129.084z"/>
			<path style="fill:#3D342F;" d="M158.118,138.309c-0.09,0-0.183-0.015-0.273-0.045c-24.691-8.457-36.752-5.053-36.872-5.018
				c-0.445,0.131-0.919-0.121-1.052-0.567c-0.134-0.447,0.117-0.918,0.564-1.052c0.503-0.152,12.619-3.624,37.908,5.036
				c0.441,0.151,0.677,0.632,0.524,1.073C158.798,138.088,158.471,138.309,158.118,138.309z"/>
		</g>
	</g>
</g>
</svg>
