<?xml version="1.0" encoding="iso-8859-1"?>
<!-- Generator: Adobe Illustrator 25.0.1, SVG Export Plug-In . SVG Version: 6.00 Build 0)  -->
<svg version="1.1" id="&#x56FE;&#x5C42;_1" xmlns="http://www.w3.org/2000/svg" xmlns:xlink="http://www.w3.org/1999/xlink" x="0px"
	 y="0px" viewBox="0 0 200 200" style="enable-background:new 0 0 200 200;" xml:space="preserve">
<g>
	<rect y="0" style="fill:#D8D423;" width="200" height="200"/>
	<g>
		
			<ellipse transform="matrix(0.7071 -0.7071 0.7071 0.7071 -30.8165 67.1941)" style="fill:#313439;" cx="65.702" cy="70.796" rx="20.007" ry="20.007"/>
		<path style="fill:#313439;" d="M154.304,70.796c0,11.049-8.959,20.007-20.008,20.007c-11.049,0-20.006-8.958-20.006-20.007
			c0-11.048,8.957-20.007,20.006-20.007C145.345,50.789,154.304,59.748,154.304,70.796z"/>
		<path style="fill:#F7F1E6;" d="M148.543,104.184c5.46,23.914,0,45.027-48.313,45.027s-50.318-18.732-45.41-45.027
			c4.689-25.128,18.727-44.233,45.41-44.233S142.849,79.246,148.543,104.184z"/>
		<path style="fill:#3B3E43;" d="M112.355,109.927c2.571,8.633,13.167,10.05,19.136,6.263c5.968-3.788,7.076-12.734,2.477-19.981
			c-4.598-7.247-13.164-10.052-19.133-6.264C108.867,93.733,109.907,101.699,112.355,109.927z"/>
		<path style="fill:#3B3E43;" d="M110.368,122.333c0,3.289-3.838,7.384-8.574,7.384s-8.574-4.095-8.574-7.384
			c0-3.287,3.838-5.955,8.574-5.955S110.368,119.046,110.368,122.333z"/>
		<g>
			<path style="fill:#3B3E43;" d="M92.854,139.778c-2.353,0-4.955-1.159-7.776-3.468c-0.376-0.307-0.432-0.86-0.124-1.236
				c0.309-0.377,0.861-0.432,1.237-0.124c3.298,2.698,6.14,3.622,8.442,2.746c4.59-1.746,5.949-9.96,5.961-10.042
				c0.078-0.479,0.526-0.809,1.008-0.73c0.48,0.077,0.807,0.527,0.73,1.006c-0.061,0.38-1.543,9.307-7.074,11.41
				C94.49,139.633,93.688,139.778,92.854,139.778z"/>
			<path style="fill:#3B3E43;" d="M109.181,140.55c-0.726,0-1.423-0.134-2.088-0.4c-5.26-2.104-6.244-11.858-6.284-12.273
				c-0.046-0.483,0.309-0.913,0.792-0.958c0.482-0.05,0.914,0.309,0.958,0.791c0.243,2.526,1.648,9.393,5.189,10.809
				c1.942,0.776,4.418-0.122,7.358-2.673c0.367-0.317,0.922-0.277,1.238,0.089c0.319,0.366,0.279,0.922-0.086,1.241
				C113.668,139.42,111.297,140.55,109.181,140.55z"/>
		</g>
		<g>
			<path style="fill:#FFFFFF;" d="M116.53,104.094c0,3.923,3.178,7.101,7.1,7.101c3.922,0,7.102-3.178,7.102-7.101
				c0-3.921-3.18-7.101-7.102-7.101C119.708,96.993,116.53,100.173,116.53,104.094z"/>
			<g>
				<path style="fill:#3B3E43;" d="M120.036,104.154c0,1.984,1.609,3.594,3.594,3.594c1.984,0,3.594-1.609,3.594-3.594
					c0-1.985-1.609-3.594-3.594-3.594C121.645,100.561,120.036,102.169,120.036,104.154z"/>
				<path style="fill:#FFFFFF;" d="M122.821,101.33c0,1.043,0.844,1.888,1.887,1.888c1.042,0,1.887-0.845,1.887-1.888
					c0-1.042-0.845-1.887-1.887-1.887C123.665,99.443,122.821,100.288,122.821,101.33z"/>
			</g>
		</g>
		<path style="fill:#3B3E43;" d="M92.946,108.314c-2.572,8.634-13.166,10.05-19.134,6.262c-5.968-3.787-7.078-12.732-2.479-19.979
			c4.601-7.248,13.168-10.051,19.135-6.264C96.436,92.123,95.395,100.088,92.946,108.314z"/>
		<g>
			<path style="fill:#FFFFFF;" d="M89.091,102.297c0,3.922-3.179,7.101-7.1,7.101c-3.921,0-7.101-3.179-7.101-7.101
				c0-3.921,3.181-7.102,7.101-7.102C85.912,95.195,89.091,98.376,89.091,102.297z"/>
			<g>
				<path style="fill:#3B3E43;" d="M85.585,102.357c0,1.985-1.609,3.594-3.594,3.594c-1.984,0-3.594-1.608-3.594-3.594
					c0-1.985,1.609-3.596,3.594-3.596C83.976,98.762,85.585,100.372,85.585,102.357z"/>
				<path style="fill:#FFFFFF;" d="M82.8,99.533c0,1.043-0.844,1.888-1.887,1.888c-1.042,0-1.887-0.845-1.887-1.888
					c0-1.043,0.845-1.888,1.887-1.888C81.956,97.646,82.8,98.49,82.8,99.533z"/>
			</g>
		</g>
		<path style="fill:#FFFFFF;" d="M107.38,120.55c-0.202,0.79-1.372,1.172-2.614,0.856c-1.243-0.316-2.089-1.211-1.888-2
			c0.201-0.79,1.37-1.173,2.614-0.856C106.733,118.866,107.579,119.761,107.38,120.55z"/>
	</g>
</g>
</svg>
