<?xml version="1.0" encoding="iso-8859-1"?>
<!-- Generator: Adobe Illustrator 25.0.1, SVG Export Plug-In . SVG Version: 6.00 Build 0)  -->
<svg version="1.1" id="&#x56FE;&#x5C42;_1" xmlns="http://www.w3.org/2000/svg" xmlns:xlink="http://www.w3.org/1999/xlink" x="0px"
	 y="0px" viewBox="0 0 200 200" style="enable-background:new 0 0 200 200;" xml:space="preserve">
<g>
	<rect y="0" style="fill:#D8D423;" width="200" height="200"/>
	<g>
		<g>
			<path style="fill:#E0DCD3;" d="M88.388,64.422c3.055,13.784,1.837,25.779-2.721,26.789c-4.559,1.01-10.729-9.347-13.785-23.133
				c-3.055-13.786-1.837-25.779,2.722-26.79C79.163,40.279,85.334,50.635,88.388,64.422z"/>
			<path style="fill:#313439;" d="M86.658,64.804c2.414,10.896,1.451,20.374-2.152,21.174c-3.602,0.798-8.481-7.388-10.895-18.282
				C71.197,56.8,72.161,47.32,75.763,46.523C79.366,45.725,84.243,53.908,86.658,64.804z"/>
		</g>
		<g>
			<path style="fill:#E0DCD3;" d="M110.498,64.422c-3.053,13.784-1.835,25.779,2.724,26.789c4.558,1.01,10.729-9.347,13.784-23.133
				c3.055-13.786,1.837-25.779-2.722-26.79C119.725,40.279,113.554,50.635,110.498,64.422z"/>
			<path style="fill:#313439;" d="M112.231,64.804c-2.414,10.896-1.452,20.374,2.15,21.174c3.603,0.798,8.481-7.388,10.894-18.282
				c2.414-10.895,1.451-20.375-2.151-21.172C119.522,45.725,114.644,53.908,112.231,64.804z"/>
		</g>
		<path style="fill:#F7F1E6;" d="M134.326,113.436c0,27.271,9.499,42.419-34.325,42.419c-43.823,0-34.326-17.781-34.326-42.419
			c0-23.428,14.938-42.42,34.326-42.42C119.389,71.016,134.326,90.008,134.326,113.436z"/>
		<ellipse style="fill:#313439;" cx="100.293" cy="140.35" rx="34.812" ry="18.431"/>
		<g>
			<path style="fill:#313439;" d="M92.227,105.111c0,2.585-2.095,4.682-4.681,4.682c-2.585,0-4.68-2.097-4.68-4.682
				c0-2.586,2.095-4.681,4.68-4.681C90.132,100.431,92.227,102.525,92.227,105.111z"/>
			<path style="fill:#FFFFFF;" d="M87.871,101.341c0,1.65-1.337,2.989-2.991,2.989c-1.651,0-2.989-1.339-2.989-2.989
				c0-1.652,1.338-2.99,2.989-2.99C86.534,98.351,87.871,99.688,87.871,101.341z"/>
		</g>
		<g>
			<path style="fill:#313439;" d="M107.702,105.111c0,2.585,2.094,4.682,4.681,4.682c2.584,0,4.68-2.097,4.68-4.682
				c0-2.586-2.096-4.681-4.68-4.681C109.796,100.431,107.702,102.525,107.702,105.111z"/>
			<path style="fill:#FFFFFF;" d="M112.058,101.34c0,1.651,1.338,2.99,2.988,2.99c1.652,0,2.992-1.339,2.992-2.99
				c0-1.651-1.34-2.989-2.992-2.989C113.396,98.351,112.058,99.688,112.058,101.34z"/>
		</g>
		<g>
			<defs>
				<path id="SVGID_11_" d="M134.326,113.436c0,23.428,6.046,42.419-34.325,42.419c-40.371,0-34.326-18.991-34.326-42.419
					c0-23.428,14.938-42.42,34.326-42.42C119.389,71.016,134.326,90.008,134.326,113.436z"/>
			</defs>
			<clipPath id="SVGID_2_">
				<use xlink:href="#SVGID_11_"  style="overflow:visible;"/>
			</clipPath>
			<g style="clip-path:url(#SVGID_2_);">
				<path style="fill:#313439;" d="M144.629,109.402c0,0-0.092,0.092-0.258,0.23c-0.165,0.128-0.413,0.355-0.717,0.567
					c-0.612,0.445-1.473,0.977-2.478,1.416c-1.006,0.441-2.158,0.8-3.364,0.976c-0.302,0.046-0.606,0.076-0.914,0.104
					c-0.301,0.024-0.579,0.062-0.869,0.074c-0.576,0.031-1.152,0.021-1.725-0.033c-0.572-0.059-1.141-0.16-1.7-0.298
					c-0.544-0.086-1.081-0.227-1.606-0.403c-0.526-0.176-1.041-0.394-1.539-0.644c-0.525-0.222-1.042-0.483-1.513-0.743
					c-0.945-0.536-1.746-1.15-2.313-1.653c-0.283-0.242-0.509-0.492-0.662-0.637c-0.154-0.155-0.237-0.256-0.237-0.256
					s0.073-0.108,0.212-0.275c0.139-0.157,0.342-0.427,0.605-0.692c0.525-0.552,1.285-1.234,2.212-1.851
					c0.466-0.297,0.963-0.616,1.511-0.867c0.575-0.237,1.192-0.442,1.838-0.605c0.646-0.162,1.32-0.29,2.005-0.361
					c0.666-0.024,1.339,0.003,2.011,0.065c0.671,0.069,1.337,0.182,1.986,0.334c0.32,0.077,0.651,0.164,0.949,0.264
					c0.289,0.11,0.574,0.224,0.853,0.351c1.114,0.499,2.127,1.159,2.978,1.86c0.851,0.698,1.537,1.446,2.008,2.042
					c0.236,0.288,0.414,0.574,0.539,0.742C144.565,109.289,144.629,109.402,144.629,109.402z"/>
				<path style="fill:#313439;" d="M135.679,79.743c0,0-0.045,0.126-0.142,0.331c-0.1,0.193-0.234,0.515-0.43,0.85
					c-0.385,0.692-0.971,1.581-1.739,2.459c-0.392,0.43-0.816,0.885-1.229,1.319c-0.425,0.433-0.881,0.846-1.366,1.228
					c-0.487,0.392-0.99,0.709-1.54,1.063c-0.546,0.34-1.116,0.646-1.704,0.914c-1.188,0.507-2.4,0.962-3.656,1.177
					c-0.626,0.112-1.235,0.214-1.847,0.257c-0.604,0.056-1.221,0.038-1.781,0.04c-1.137-0.025-2.183-0.183-2.951-0.334
					c-0.381-0.069-0.714-0.176-0.926-0.221c-0.219-0.056-0.347-0.099-0.347-0.099s0.016-0.132,0.067-0.354
					c0.057-0.214,0.125-0.555,0.254-0.926c0.123-0.379,0.291-0.824,0.508-1.29c0.218-0.467,0.487-0.963,0.802-1.476
					c0.32-0.506,0.688-1.014,1.109-1.508c0.422-0.49,0.883-0.99,1.399-1.43c0.516-0.442,1.07-0.867,1.659-1.247
					c0.583-0.39,1.211-0.721,1.857-1.009c0.647-0.287,1.312-0.535,1.981-0.741c0.655-0.215,1.39-0.338,2.073-0.436
					c0.693-0.093,1.374-0.139,2.028-0.14c0.66-0.019,1.272,0.07,1.841,0.171c1.148,0.206,2.16,0.535,2.892,0.835
					c0.362,0.14,0.667,0.308,0.867,0.397C135.565,79.674,135.679,79.743,135.679,79.743z"/>
				<path style="fill:#313439;" d="M145.798,131.245c0,0-0.147,0.021-0.403,0.034c-0.249,0.001-0.641,0.045-1.085,0.047
					c-0.455,0.013-0.966-0.001-1.552-0.021c-0.59-0.021-1.229-0.073-1.9-0.156c-0.658-0.102-1.386-0.181-2.107-0.328
					c-0.727-0.139-1.456-0.337-2.2-0.548c-0.753-0.197-1.504-0.439-2.241-0.729c-0.368-0.145-0.737-0.295-1.098-0.464
					c-0.369-0.151-0.737-0.304-1.101-0.466c-0.725-0.331-1.432-0.698-2.114-1.103c-0.675-0.424-1.35-0.798-1.987-1.224
					c-0.637-0.423-1.242-0.878-1.808-1.352c-0.283-0.237-0.558-0.477-0.819-0.725c-0.266-0.231-0.53-0.437-0.777-0.663
					c-0.992-0.889-1.806-1.803-2.372-2.517c-0.286-0.348-0.5-0.682-0.653-0.883c-0.15-0.213-0.228-0.344-0.228-0.344
					s0.126-0.071,0.357-0.173c0.229-0.091,0.574-0.26,1.001-0.399c0.858-0.3,2.08-0.62,3.53-0.795
					c0.364-0.047,0.736-0.07,1.128-0.104c0.379-0.006,0.769,0.006,1.167,0.026c0.797,0.043,1.629,0.133,2.479,0.272
					c0.848,0.144,1.727,0.307,2.555,0.617c0.838,0.287,1.675,0.623,2.494,0.994c0.405,0.195,0.817,0.378,1.207,0.598
					c0.388,0.223,0.765,0.463,1.137,0.704c0.742,0.484,1.447,1.005,2.104,1.544c0.65,0.552,1.234,1.156,1.77,1.744
					c0.535,0.59,1.009,1.187,1.412,1.789c0.402,0.602,0.746,1.178,1.027,1.712c0.282,0.541,0.501,1.056,0.661,1.482
					c0.169,0.421,0.256,0.796,0.326,1.035C145.773,131.1,145.798,131.245,145.798,131.245z"/>
				<path style="fill:#313439;" d="M56.254,110.051c0,0,0.065-0.113,0.191-0.294c0.128-0.17,0.31-0.457,0.552-0.745
					c0.483-0.6,1.186-1.352,2.057-2.055c0.871-0.705,1.909-1.371,3.05-1.877c0.563-0.257,1.164-0.475,1.826-0.63
					c0.649-0.161,1.315-0.282,1.987-0.361c0.673-0.07,1.345-0.114,2.018-0.09c0.681,0.046,1.354,0.147,2.001,0.285
					c0.647,0.138,1.274,0.316,1.855,0.532c0.559,0.229,1.089,0.51,1.577,0.781c0.977,0.562,1.791,1.197,2.36,1.717
					c0.285,0.25,0.509,0.506,0.661,0.654c0.153,0.16,0.234,0.263,0.234,0.263s-0.079,0.106-0.226,0.271
					c-0.147,0.152-0.363,0.416-0.639,0.674c-0.55,0.537-1.336,1.197-2.278,1.787c-0.472,0.287-0.982,0.584-1.522,0.829
					c-0.517,0.267-1.048,0.507-1.6,0.706c-0.55,0.197-1.116,0.362-1.693,0.473c-0.581,0.138-1.18,0.258-1.779,0.324
					c-0.601,0.065-1.206,0.087-1.809,0.067c-0.591-0.025-1.22-0.075-1.843-0.158c-1.235-0.168-2.415-0.521-3.444-0.957
					c-1.03-0.435-1.911-0.961-2.538-1.403c-0.312-0.21-0.565-0.436-0.734-0.562C56.348,110.143,56.254,110.051,56.254,110.051z"/>
				<path style="fill:#313439;" d="M61.257,81.592c0,0,0.123-0.067,0.342-0.162c0.215-0.085,0.544-0.246,0.937-0.379
					c0.794-0.283,1.894-0.59,3.149-0.769c1.256-0.181,2.67-0.24,4.117-0.106c0.722,0.058,1.461,0.178,2.202,0.367
					c0.739,0.181,1.478,0.404,2.201,0.669c1.444,0.536,2.834,1.227,4.06,2.053c0.604,0.419,1.172,0.866,1.694,1.329
					c0.524,0.457,0.994,0.952,1.422,1.418c0.424,0.478,0.798,0.947,1.118,1.395c0.319,0.451,0.585,0.873,0.792,1.242
					c0.212,0.358,0.356,0.696,0.462,0.902c0.103,0.216,0.151,0.348,0.151,0.348s-0.127,0.061-0.352,0.145
					c-0.221,0.074-0.559,0.219-0.958,0.331c-0.805,0.242-1.915,0.501-3.175,0.632c-0.626,0.057-1.297,0.105-1.981,0.094
					c-0.686-0.007-1.392-0.056-2.104-0.149c-1.425-0.157-2.864-0.512-4.248-1.023c-1.393-0.512-2.678-1.21-3.924-1.986
					c-1.229-0.779-2.312-1.692-3.196-2.604c-0.886-0.909-1.57-1.825-2.025-2.535c-0.231-0.345-0.393-0.674-0.512-0.873
					C61.314,81.721,61.257,81.592,61.257,81.592z"/>
				<path style="fill:#313439;" d="M89.242,60.812c0,0,0.135,0.036,0.358,0.118c0.213,0.088,0.561,0.199,0.935,0.376
					c0.767,0.343,1.769,0.88,2.793,1.616c0.506,0.368,1.039,0.772,1.536,1.301c0.503,0.511,0.998,1.076,1.469,1.687
					c0.237,0.305,0.464,0.623,0.688,0.948c0.202,0.338,0.403,0.683,0.59,1.037c0.372,0.712,0.729,1.439,1.011,2.212
					c0.259,0.789,0.479,1.593,0.65,2.393c0.156,0.803,0.208,1.614,0.243,2.396c0.033,0.785-0.052,1.508-0.136,2.219
					c-0.083,0.717-0.254,1.349-0.413,1.955c-0.173,0.604-0.371,1.176-0.562,1.668c-0.197,0.5-0.394,0.945-0.582,1.32
					c-0.176,0.373-0.372,0.683-0.48,0.889c-0.119,0.208-0.2,0.324-0.2,0.324s-0.122-0.066-0.318-0.201
					c-0.186-0.136-0.495-0.328-0.815-0.594c-0.333-0.263-0.705-0.593-1.102-0.982c-0.401-0.395-0.791-0.833-1.194-1.328
					c-0.387-0.491-0.794-1.052-1.157-1.591c-0.373-0.541-0.697-1.155-1.03-1.724c-0.333-0.572-0.611-1.173-0.88-1.779
					c-0.288-0.599-0.534-1.217-0.741-1.849c-0.227-0.636-0.456-1.285-0.619-1.945c-0.085-0.329-0.155-0.662-0.22-0.995
					c-0.075-0.332-0.15-0.66-0.206-0.992c-0.117-0.663-0.19-1.328-0.226-1.984c-0.024-0.647-0.05-1.324-0.061-1.951
					c-0.001-1.26,0.146-2.386,0.315-3.207c0.075-0.405,0.188-0.753,0.241-0.976C89.192,60.942,89.242,60.812,89.242,60.812z"/>
				<path style="fill:#313439;" d="M111.054,63.283c0,0,0.055,0.122,0.127,0.336c0.062,0.209,0.189,0.533,0.281,0.911
					c0.203,0.766,0.4,1.812,0.457,2.977c0.017,0.581,0.027,1.203,0.033,1.802c-0.005,0.607-0.046,1.221-0.13,1.832
					c-0.078,0.619-0.22,1.196-0.369,1.834c-0.157,0.624-0.354,1.24-0.59,1.842c-0.502,1.189-1.058,2.359-1.812,3.386
					c-0.373,0.516-0.74,1.012-1.15,1.468c-0.396,0.46-0.852,0.876-1.253,1.266c-0.835,0.771-1.697,1.386-2.355,1.81
					c-0.322,0.215-0.635,0.371-0.818,0.485c-0.196,0.112-0.319,0.17-0.319,0.17s-0.08-0.105-0.197-0.301
					c-0.108-0.193-0.296-0.486-0.461-0.843c-0.175-0.358-0.363-0.795-0.531-1.282c-0.167-0.486-0.319-1.029-0.448-1.617
					c-0.122-0.587-0.209-1.208-0.25-1.855c-0.037-0.646-0.053-1.326,0.013-2.001c0.064-0.677,0.168-1.366,0.327-2.05
					c0.149-0.687,0.371-1.359,0.636-2.016c0.266-0.657,0.572-1.297,0.911-1.909c0.322-0.61,0.765-1.209,1.188-1.755
					c0.434-0.548,0.893-1.054,1.362-1.51c0.462-0.472,0.964-0.833,1.444-1.156c0.969-0.648,1.925-1.114,2.661-1.406
					c0.358-0.152,0.694-0.244,0.899-0.318C110.923,63.312,111.054,63.283,111.054,63.283z"/>
				<path style="fill:#313439;" d="M54.39,131.637c0,0,0.028-0.147,0.1-0.398c0.076-0.242,0.171-0.624,0.351-1.052
					c0.17-0.434,0.401-0.953,0.696-1.508c0.295-0.544,0.653-1.13,1.071-1.743c0.833-1.23,1.966-2.446,3.283-3.623
					c0.677-0.553,1.403-1.09,2.167-1.59c0.763-0.5,1.554-0.985,2.405-1.361c0.844-0.387,1.704-0.739,2.567-1.044
					c0.435-0.146,0.859-0.3,1.3-0.406c0.446-0.101,0.887-0.193,1.326-0.269c0.877-0.154,1.735-0.258,2.557-0.313
					c0.411-0.028,0.812-0.046,1.203-0.047c0.395,0.009,0.787,0.042,1.16,0.08c1.498,0.157,2.758,0.463,3.642,0.754
					c0.439,0.135,0.795,0.301,1.03,0.389c0.237,0.099,0.367,0.169,0.367,0.169s-0.08,0.132-0.237,0.348
					c-0.16,0.204-0.383,0.541-0.68,0.892c-0.589,0.725-1.433,1.65-2.459,2.552c-0.511,0.44-1.063,0.919-1.648,1.424
					c-0.586,0.485-1.211,0.952-1.871,1.387c-0.329,0.221-0.668,0.426-1.013,0.631c-0.342,0.213-0.689,0.429-1.039,0.646
					c-0.705,0.419-1.438,0.802-2.187,1.149c-0.759,0.324-1.508,0.684-2.271,0.99c-0.763,0.307-1.539,0.564-2.316,0.779
					c-0.762,0.242-1.521,0.447-2.269,0.605c-0.748,0.159-1.491,0.262-2.169,0.376c-0.691,0.097-1.348,0.161-1.954,0.192
					c-0.598,0.034-1.127,0.056-1.593,0.051c-0.455,0.005-0.855-0.033-1.109-0.03C54.54,131.656,54.39,131.637,54.39,131.637z"/>
			</g>
		</g>
		<path style="fill:#F7F1E6;" d="M92.812,136.092c0,2.584-2.094,4.681-4.68,4.681c-2.585,0-4.681-2.097-4.681-4.681
			c0-2.585,2.095-4.683,4.681-4.683C90.718,131.409,92.812,133.507,92.812,136.092z"/>
		<path style="fill:#F7F1E6;" d="M119.209,136.092c0,2.584-2.097,4.681-4.682,4.681c-2.585,0-4.68-2.097-4.68-4.681
			c0-2.585,2.095-4.683,4.68-4.683C117.112,131.409,119.209,133.507,119.209,136.092z"/>
	</g>
</g>
</svg>
