<?xml version="1.0" encoding="iso-8859-1"?>
<!-- Generator: Adobe Illustrator 25.0.1, SVG Export Plug-In . SVG Version: 6.00 Build 0)  -->
<svg version="1.1" id="&#x56FE;&#x5C42;_1" xmlns="http://www.w3.org/2000/svg" xmlns:xlink="http://www.w3.org/1999/xlink" x="0px"
	 y="0px" viewBox="0 0 200 200" style="enable-background:new 0 0 200 200;" xml:space="preserve">
<g>
	<rect y="0" style="fill:#62A5A2;" width="200" height="200"/>
	<g>
		<g>
			<g>
				<g>
					<path style="fill:#8A603C;" d="M110.204,69.065c-3.528,15.917-2.12,29.766,3.142,30.931
						c5.263,1.166,12.388-10.792,15.915-26.707c3.527-15.917-3.143-30.932-3.143-30.932S113.73,53.148,110.204,69.065z"/>
				</g>
				<g>
					<path style="fill:#F3DBBD;" d="M113.84,69.649c-2.551,11.513-2.533,21.528,1.272,22.373c3.808,0.843,7.961-7.807,10.512-19.318
						c2.551-11.512-1.273-22.371-1.273-22.371S116.391,58.137,113.84,69.649z"/>
				</g>
			</g>
			<g>
				<g>
					<path style="fill:#8A603C;" d="M89.797,69.065c3.527,15.917,2.121,29.766-3.142,30.931
						c-5.262,1.166-12.388-10.792-15.916-26.707c-3.526-15.917,3.143-30.932,3.143-30.932S86.271,53.148,89.797,69.065z"/>
				</g>
				<g>
					<path style="fill:#F3DBBD;" d="M86.16,69.649c2.551,11.513,2.533,21.528-1.273,22.373c-3.807,0.843-7.96-7.807-10.511-19.318
						c-2.55-11.512,1.272-22.371,1.272-22.371S83.609,58.137,86.16,69.649z"/>
				</g>
			</g>
		</g>
		<path style="fill:#966A4D;" d="M130.893,115.271C132.255,93.122,117.938,76.367,100,76.1
			c-17.937,0.268-32.255,17.022-30.892,39.171c0.547,8.901-2.157,17.794-2.157,25.049c0,7.255,7.161,14.586,32.303,14.586
			c0.252,0,0.498-0.003,0.745-0.005c0.248,0.002,0.494,0.005,0.746,0.005c25.143,0,32.304-7.331,32.304-14.586
			C133.049,133.064,130.344,124.172,130.893,115.271z"/>
		<path style="fill:#313439;" d="M100.47,123.15c-0.156,0-0.313,0.002-0.471,0.003c-0.157-0.001-0.313-0.003-0.471-0.003
			c-17.992,0-32.576,7.722-32.576,17.246c0,9.525,14.585,17.246,32.576,17.246c0.157,0,0.314-0.002,0.471-0.003
			c0.157,0.001,0.314,0.003,0.471,0.003c17.991,0,32.577-7.721,32.577-17.246C133.047,130.872,118.462,123.15,100.47,123.15z"/>
		<g>
			<g>
				<path style="fill:#3B3E43;" d="M108.018,107.423c0,2.42,1.961,4.381,4.38,4.381c2.418,0,4.379-1.961,4.379-4.381
					c0-2.419-1.961-4.381-4.379-4.381C109.979,103.042,108.018,105.004,108.018,107.423z"/>
			</g>
			<g>
				<path style="fill:#FFFFFF;" d="M112.095,103.895c0,1.545,1.252,2.799,2.797,2.799c1.546,0,2.798-1.254,2.798-2.799
					c0-1.546-1.252-2.799-2.798-2.799C113.347,101.096,112.095,102.349,112.095,103.895z"/>
			</g>
		</g>
		<g>
			<path style="fill:#F3DBBD;" d="M107.47,136.411c0,2.42,1.961,4.38,4.38,4.38c2.418,0,4.381-1.96,4.381-4.38
				c0-2.419-1.963-4.381-4.381-4.381C109.431,132.03,107.47,133.992,107.47,136.411z"/>
		</g>
		<g>
			<g>
				<path style="fill:#3B3E43;" d="M91.982,107.423c0,2.42-1.96,4.381-4.38,4.381c-2.42,0-4.381-1.961-4.381-4.381
					c0-2.419,1.961-4.381,4.381-4.381C90.022,103.042,91.982,105.004,91.982,107.423z"/>
			</g>
			<g>
				<path style="fill:#FFFFFF;" d="M87.907,103.895c0,1.545-1.254,2.799-2.799,2.799c-1.546,0-2.8-1.254-2.8-2.799
					c0-1.546,1.254-2.799,2.8-2.799C86.653,101.096,87.907,102.349,87.907,103.895z"/>
			</g>
		</g>
		<g>
			<path style="fill:#F3DBBD;" d="M92.529,136.411c0,2.42-1.961,4.38-4.379,4.38c-2.419,0-4.381-1.96-4.381-4.38
				c0-2.419,1.962-4.381,4.381-4.381C90.568,132.03,92.529,133.992,92.529,136.411z"/>
		</g>
	</g>
</g>
</svg>
