<?xml version="1.0" encoding="iso-8859-1"?>
<!-- Generator: Adobe Illustrator 25.0.1, SVG Export Plug-In . SVG Version: 6.00 Build 0)  -->
<svg version="1.1" id="&#x56FE;&#x5C42;_1" xmlns="http://www.w3.org/2000/svg" xmlns:xlink="http://www.w3.org/1999/xlink" x="0px"
	 y="0px" viewBox="0 0 200 200" style="enable-background:new 0 0 200 200;" xml:space="preserve">
<g>
	<rect y="0" style="fill:#185787;" width="200" height="200"/>
	<g>
		<path style="fill:#CCC8C0;" d="M80.415,59.904c0-0.056-0.738-1.051-1.813-2.058c-2.188-2.047-6.33-5.073-12.316-5.961
			c-9.286-1.394-24.491,7.213-26.561,35.094c-2.062,27.878,9.188,30.629,17.964,30.629c7.277,0,15.679-5.139,22.081-12.439
			C83.873,89.892,80.415,59.921,80.415,59.904z"/>
		<path style="fill:#CCC8C0;" d="M120.207,60.234c0-0.056,0.736-1.05,1.812-2.058c2.186-2.047,6.33-5.073,12.314-5.962
			c9.288-1.394,23.86,6.581,25.93,34.462c2.062,27.877-8.554,31.263-17.33,31.263c-7.276,0-15.678-5.14-22.082-12.44
			C116.747,90.221,120.205,60.25,120.207,60.234z"/>
		<path style="fill:#E0DCD3;" d="M136.02,141.576c-0.456-1.836,3.219-2.184,3.96-8.029c0.746-5.857-3.957-0.229-3.957-0.229
			s-3.442,3.96-17.207,3.094c-12.681-0.791-9.164-15.959-9.118-21.136c0.014-1.48,0.504-2.804,0.954-2.985
			c0.451-0.178,1.698,0.489,2.471,1.745c1.916,3.094,3.62,8.121,4.553,11.167c0.436,1.406,1.489,1.604,2.007,0.22
			c1.69-4.6,0.453-10.888-0.735-14.993c-0.403-1.417,0.496-2.879,0.979-4.086c12.529-31.356,0.353-46.287,0.353-46.172
			c-0.004,0.107-0.856-0.646-2-1.58c-5.005-4.096-11.3-6.534-18.13-6.534c-6.746,0-12.956,2.374-17.935,6.365
			c-0.855,0.685-1.544,1.294-1.844,1.54c-12.914,23.559-1.215,45.172-0.792,45.585c0.432,0.416,0.754,0.735,0.715,0.708
			c-0.033-0.028-0.508,1.062-0.967,2.466c-1.259,3.876-3.192,11.409-1.254,16.694c0.512,1.385,1.573,1.196,2.003-0.213
			c1.033-3.364,3.016-9.163,5.167-12.076c0.873-1.189,1.901-0.516,1.854,0.959c-0.275,8.971-1.437,17.19,11.884,27.78
			c11.51,9.15,20.992,5.99,31.862,5.318c1.476-0.091,3.483-0.537,4.939-0.275c0.893,0.159,2.034,0.255,3.452,0.179
			C143.361,146.852,136.481,143.411,136.02,141.576z"/>
		<path style="fill:#F7F1E6;" d="M83.313,103.235l-3.734,2.462c-2.637,9.455-2.312,16.247-2.312,16.247
			c2.657,12.046,3.487,2.388,4.773-1.396c1.282-3.785,4.781-7.016,4.781-7.016L83.313,103.235z"/>
		<path style="fill:#F7F1E6;" d="M118.497,105.697l-4.378-2.462l-4.111,10.297c0,0,4.099,3.23,5.606,7.016
			c1.506,3.784,2.477,13.442,5.591,1.396C121.205,121.944,121.59,115.152,118.497,105.697z"/>
		<g>
			<path style="fill:#313439;" d="M93.696,81.576c0,2.279-1.847,4.128-4.128,4.128c-2.278,0-4.126-1.849-4.126-4.128
				c0-2.279,1.848-4.126,4.126-4.126C91.85,77.45,93.696,79.297,93.696,81.576z"/>
			<path style="fill:#FFFFFF;" d="M89.856,78.251c0,1.457-1.18,2.638-2.637,2.638c-1.456,0-2.636-1.181-2.636-2.638
				c0-1.455,1.18-2.636,2.636-2.636C88.677,75.615,89.856,76.796,89.856,78.251z"/>
		</g>
		<g>
			<path style="fill:#313439;" d="M107.336,81.576c0,2.279,1.848,4.128,4.126,4.128c2.28,0,4.128-1.849,4.128-4.128
				c0-2.279-1.848-4.126-4.128-4.126C109.184,77.45,107.336,79.297,107.336,81.576z"/>
			<path style="fill:#FFFFFF;" d="M111.177,78.251c0,1.457,1.179,2.638,2.637,2.638c1.455,0,2.635-1.181,2.635-2.638
				c0-1.455-1.18-2.637-2.635-2.637C112.355,75.614,111.177,76.796,111.177,78.251z"/>
		</g>
	</g>
</g>
</svg>
