<?xml version="1.0" encoding="iso-8859-1"?>
<!-- Generator: Adobe Illustrator 25.0.1, SVG Export Plug-In . SVG Version: 6.00 Build 0)  -->
<svg version="1.1" id="&#x56FE;&#x5C42;_1" xmlns="http://www.w3.org/2000/svg" xmlns:xlink="http://www.w3.org/1999/xlink" x="0px"
	 y="0px" viewBox="0 0 200 200" style="enable-background:new 0 0 200 200;" xml:space="preserve">
<g>
	<rect y="0" style="fill:#F0592B;" width="200" height="200"/>
	<g>
		<g>
			<path style="fill:#8A603C;" d="M98.39,81.035c0,0-0.957,30.057-6.354,30.681c-5.396,0.623-13.188-28.422-13.188-28.422
				s-10.419-39.021,6.446-40.193C102.159,41.93,98.39,81.035,98.39,81.035z"/>
			<path style="fill:#F3DBBD;" d="M95.687,81.346c0,0-0.693,21.742-4.597,22.192c-3.903,0.451-9.538-20.558-9.538-20.558
				s-7.323-33.37,4.673-34.202C98.221,47.944,95.687,81.346,95.687,81.346z"/>
		</g>
		<g>
			<path style="fill:#8A603C;" d="M105.331,81.035c0,0,0.957,30.057,6.353,30.681c5.396,0.623,13.188-28.422,13.188-28.422
				s10.421-39.021-6.445-40.193C101.562,41.93,105.331,81.035,105.331,81.035z"/>
			<path style="fill:#F3DBBD;" d="M108.033,81.346c0,0,0.692,21.742,4.596,22.192c3.904,0.451,9.539-20.558,9.539-20.558
				s7.323-33.37-4.672-34.202C105.5,47.944,108.033,81.346,108.033,81.346z"/>
		</g>
		<path style="fill:#966A4D;" d="M131.069,129.304c4.966,7.727,8.407,27.621-30.374,27.621c-38.783,0-32.161-20.815-28.849-27.804
			c-1.387-22.503,11.756-39.852,30.039-39.852C120.17,89.269,131.807,106.155,131.069,129.304z"/>
		<g>
			<defs>
				<path id="SVGID_13_" d="M131.1,128.019c-0.551,11.679,7.359,26.699-30.404,26.699c-42.791,0-29.71-15.03-30.383-25.966
					c-1.386-22.501,13.29-39.483,31.573-39.483C120.17,89.269,132.193,104.882,131.1,128.019z"/>
			</defs>
			<clipPath id="SVGID_2_">
				<use xlink:href="#SVGID_13_"  style="overflow:visible;"/>
			</clipPath>
		</g>
		<g>
			<path style="fill:#F3DBBD;" d="M106.802,115.821c0,3.479,2.821,6.301,6.301,6.301c3.479,0,6.3-2.821,6.3-6.301
				s-2.821-6.3-6.3-6.3C109.623,109.521,106.802,112.342,106.802,115.821z"/>
			<g>
				<path style="fill:#3D342F;" d="M109.099,115.872c0,2.07,1.679,3.748,3.749,3.748c2.068,0,3.746-1.678,3.746-3.748
					s-1.678-3.747-3.746-3.747C110.777,112.125,109.099,113.802,109.099,115.872z"/>
				<path style="fill:#FFFFFF;" d="M112.311,112.779c0,0.985,0.801,1.784,1.785,1.784c0.986,0,1.785-0.799,1.785-1.784
					c0-0.986-0.799-1.785-1.785-1.785C113.111,110.994,112.311,111.793,112.311,112.779z"/>
			</g>
		</g>
		<g>
			<path style="fill:#F3DBBD;" d="M97.736,115.453c0,3.479-2.819,6.3-6.3,6.3c-3.479,0-6.299-2.82-6.299-6.3
				c0-3.479,2.82-6.299,6.299-6.299C94.917,109.154,97.736,111.975,97.736,115.453z"/>
			<g>
				<path style="fill:#3D342F;" d="M94.52,115.872c0,2.07-1.678,3.748-3.748,3.748c-2.069,0-3.746-1.678-3.746-3.748
					s1.677-3.747,3.746-3.747C92.843,112.125,94.52,113.802,94.52,115.872z"/>
				<path style="fill:#FFFFFF;" d="M91.309,112.779c0,0.985-0.8,1.784-1.785,1.784c-0.986,0-1.785-0.799-1.785-1.784
					c0-0.986,0.799-1.785,1.785-1.785C90.509,110.994,91.309,111.793,91.309,112.779z"/>
			</g>
		</g>
		<g>
			<defs>
				<path id="SVGID_15_" d="M131.069,129.304c4.966,7.727,8.407,27.621-30.374,27.621c-38.783,0-32.161-20.815-28.849-27.804
					c-1.387-22.503,11.756-39.852,30.039-39.852C120.17,89.269,131.807,106.155,131.069,129.304z"/>
			</defs>
			<clipPath id="SVGID_4_">
				<use xlink:href="#SVGID_15_"  style="overflow:visible;"/>
			</clipPath>
			<path style="clip-path:url(#SVGID_4_);fill:#F3DBBD;" d="M119.543,127.467c-6.54,0-12.686,1.691-18.024,4.659
				c-5.339-2.968-11.483-4.659-18.024-4.659c-20.521,0-37.153,14.057-37.153,34.577c0,20.52,16.633,37.154,37.153,37.154
				c6.541,0,12.685-1.693,18.024-4.66c5.339,2.967,11.484,4.66,18.024,4.66c20.519,0,37.153-16.635,37.153-37.154
				C156.696,141.523,140.062,127.467,119.543,127.467z"/>
		</g>
		<path style="fill:#3D342F;" d="M109.121,132.068c0,2.377-5.068,6.081-7.096,6.081c-2.027,0-8.109-3.704-8.109-6.081
			c0-2.38,3.404-4.31,7.603-4.31C105.717,127.759,109.121,129.689,109.121,132.068z"/>
		<g>
			<g>
				<path style="fill:#3D342F;" d="M94.179,146.793c-1.966,0-4.147-0.972-6.505-2.9c-0.315-0.259-0.36-0.722-0.105-1.037
					c0.257-0.313,0.721-0.359,1.036-0.103c2.758,2.258,5.136,3.03,7.062,2.298c3.84-1.46,4.978-8.332,4.987-8.401
					c0.064-0.401,0.439-0.677,0.843-0.611c0.401,0.063,0.675,0.44,0.611,0.842c-0.051,0.318-1.291,7.785-5.919,9.546
					C95.548,146.672,94.878,146.793,94.179,146.793z"/>
				<path style="fill:#3D342F;" d="M107.838,147.436c-0.607,0-1.19-0.11-1.747-0.334c-4.4-1.761-5.224-9.921-5.257-10.267
					c-0.039-0.405,0.257-0.763,0.661-0.802c0.404-0.042,0.765,0.257,0.804,0.661c0.202,2.114,1.378,7.857,4.34,9.043
					c1.625,0.651,3.696-0.103,6.155-2.235c0.308-0.265,0.771-0.233,1.037,0.073c0.267,0.307,0.235,0.773-0.073,1.039
					C111.593,146.493,109.608,147.436,107.838,147.436z"/>
			</g>
		</g>
		<g>
			<path style="fill:none;stroke:#3D342F;stroke-width:2;stroke-linecap:round;stroke-miterlimit:10;" d="M118.257,136.846
				c0,0,6.008-5.885,23.663-8.584"/>
			<path style="fill:none;stroke:#3D342F;stroke-width:2;stroke-linecap:round;stroke-miterlimit:10;" d="M119.272,139.113
				c0,0,7.3-4.178,25.066-2.326"/>
			<path style="fill:none;stroke:#3D342F;stroke-width:2;stroke-linecap:round;stroke-miterlimit:10;" d="M119.576,141.913
				c0,0,8.051-2.433,24.948,3.354"/>
		</g>
		<g>
			<path style="fill:none;stroke:#3D342F;stroke-width:2;stroke-linecap:round;stroke-miterlimit:10;" d="M81.744,136.109
				c0,0-6.008-5.886-23.664-8.581"/>
			<path style="fill:none;stroke:#3D342F;stroke-width:2;stroke-linecap:round;stroke-miterlimit:10;" d="M80.728,138.376
				c0,0-7.3-4.177-25.066-2.325"/>
			<path style="fill:none;stroke:#3D342F;stroke-width:2;stroke-linecap:round;stroke-miterlimit:10;" d="M80.424,141.176
				c0,0-8.051-2.431-24.949,3.356"/>
		</g>
	</g>
</g>
</svg>
