<?xml version="1.0" ?><!-- Uploaded to: SVG Repo, www.svgrepo.com, Generator: SVG Repo Mixer Tools -->
<svg width="800px" height="800px" viewBox="0 0 150 150" id="ART" xmlns="http://www.w3.org/2000/svg"><defs><style>.cls-1{fill:#c69200;stroke-width:4px;}.cls-1,.cls-3{stroke:#000000;stroke-miterlimit:10;}.cls-2{fill:#ffeb99;}.cls-3{fill:#eace59;stroke-width:2px;}.cls-4{fill:#eda526;}.cls-5{fill:#493824;}</style></defs><title/><circle class="cls-1" cx="75" cy="75" r="70"/><circle class="cls-2" cx="75" cy="75" r="60.62"/><circle class="cls-3" cx="75" cy="75" r="45.5"/><path class="cls-4" d="M35.51,66.54c.78,8.73,3.84,14.14,8.3,14.46,4,.3,6.86-2.87,7.29-7.1.2-2-.82-16.65-4.86-19.47C40.64,50.53,34.65,56.93,35.51,66.54Z"/><ellipse class="cls-5" cx="43.46" cy="67.16" rx="4.98" ry="7.61"/><path class="cls-4" d="M101.07,74c-6.58,5.79-9.13,11.46-6.75,15.25,2.15,3.43,6.37,3.83,10,1.67,1.69-1,12.93-10.51,12.82-15.44C117,68.69,108.31,67.64,101.07,74Z"/><ellipse class="cls-5" cx="105.28" cy="80.81" rx="7.61" ry="4.98" transform="translate(-27.41 77.96) rotate(-36.28)"/><path class="cls-4" d="M101.21,58.46c-.78,8.73-3.84,14.14-8.3,14.46-4,.3-6.86-2.87-7.29-7.1-.2-2,.82-16.65,4.86-19.47C96.07,42.45,102.06,48.85,101.21,58.46Z"/><ellipse class="cls-5" cx="93.25" cy="59.08" rx="4.98" ry="7.61"/><path class="cls-4" d="M52.69,87.14c6.58,5.79,9.13,11.46,6.75,15.25-2.15,3.43-6.37,3.83-10,1.67-1.69-1-12.93-10.51-12.82-15.44C36.75,81.81,45.44,80.76,52.69,87.14Z"/><ellipse class="cls-5" cx="48.47" cy="93.92" rx="4.98" ry="7.61" transform="translate(-55.93 77.42) rotate(-53.72)"/><path class="cls-4" d="M89.43,111.55c-7.76,4.06-14,4.41-16.65.84-2.43-3.24-1.29-7.32,2-10,1.54-1.22,14.45-8.31,19-6.43C100.12,98.58,98,107.07,89.43,111.55Z"/><ellipse class="cls-5" cx="84.6" cy="105.18" rx="7.61" ry="4.98" transform="translate(-43.43 62.42) rotate(-32.72)"/><path class="cls-4" d="M70.3,74.25c-8.75.44-14.53-1.84-15.47-6.21-.85-4,1.89-7.19,6-8.2,1.91-.46,16.6-1.49,20,2.12C85.44,67,79.94,73.77,70.3,74.25Z"/><ellipse class="cls-5" cx="68.59" cy="66.46" rx="7.61" ry="4.98" transform="translate(-8.54 10.13) rotate(-7.95)"/><path class="cls-4" d="M73.32,52.38c-7.76,4.06-14,4.41-16.65.84-2.43-3.24-1.29-7.32,2-10,1.54-1.22,14.45-8.31,19-6.43C84,39.41,81.87,47.9,73.32,52.38Z"/><ellipse class="cls-5" cx="68.5" cy="46.02" rx="7.61" ry="4.98" transform="translate(-14 44.33) rotate(-32.72)"/><path class="cls-4" d="M71.25,80.89c-6.58,5.79-9.13,11.46-6.75,15.25,2.15,3.43,6.37,3.83,10,1.67,1.69-1,12.93-10.51,12.82-15.44C87.19,75.56,78.5,74.51,71.25,80.89Z"/><ellipse class="cls-5" cx="75.47" cy="87.67" rx="7.61" ry="4.98" transform="translate(-37.25 61.65) rotate(-36.28)"/></svg>