<?xml version="1.0" ?><!-- Uploaded to: SVG Repo, www.svgrepo.com, Generator: SVG Repo Mixer Tools -->
<svg width="800px" height="800px" viewBox="0 0 150 150" id="ART" xmlns="http://www.w3.org/2000/svg"><defs><style>.cls-1{fill:#65af1e;stroke:#000000;stroke-miterlimit:10;stroke-width:4px;}.cls-2{fill:#8cc148;}.cls-3{fill:#ff395a;}</style></defs><title/><path class="cls-1" d="M145.13,39.93a70.13,70.13,0,1,1-140.26,0Z" data-name="&lt;Path&gt;" id="_Path_"/><path class="cls-2" d="M137.12,41.93a61.8,61.8,0,0,1-123.54,0Z"/><path class="cls-3" d="M75,93.23a53.36,53.36,0,0,1-53.29-52.3H128.28A53.35,53.35,0,0,1,75,93.23Z"/><path d="M127.26,41.93a52.29,52.29,0,0,1-104.51,0H127.26m2-2H20.71a54.29,54.29,0,1,0,108.59,0Z"/><path class="cls-3" d="M75,80.75c-.33,0-.92-.76-.92-2s.6-2,.92-2,.92.76.92,2S75.33,80.75,75,80.75Z"/><path d="M75,75.74c-1.06,0-1.92,1.34-1.92,3s.86,3,1.92,3,1.92-1.34,1.92-3-.86-3-1.92-3Z"/><path class="cls-3" d="M90.44,78c-.35,0-1.06-.5-1.46-1.58s-.13-2.09.18-2.2h0c.45,0,1.15.5,1.54,1.56a3,3,0,0,1,.17,1.63.78.78,0,0,1-.34.57Z"/><path d="M89.26,73.21a1.28,1.28,0,0,0-.44.08c-1,.37-1.34,1.92-.77,3.48A3,3,0,0,0,90.44,79a1.28,1.28,0,0,0,.44-.08c1-.37,1.34-1.92.77-3.48a3,3,0,0,0-2.4-2.23Z"/><path class="cls-3" d="M103.79,70.2a2.56,2.56,0,0,1-1.71-1c-.8-1-.83-1.92-.58-2.13a.44.44,0,0,1,.28-.08,2.56,2.56,0,0,1,1.71,1,3,3,0,0,1,.71,1.47.77.77,0,0,1-.13.65A.44.44,0,0,1,103.79,70.2Z"/><path d="M101.78,66a1.41,1.41,0,0,0-.93.31c-.81.69-.6,2.27.47,3.54a3.5,3.5,0,0,0,2.48,1.37,1.41,1.41,0,0,0,.93-.31c.81-.69.6-2.27-.47-3.54A3.5,3.5,0,0,0,101.78,66Z"/><path class="cls-3" d="M113.46,58.23A3.08,3.08,0,0,1,112,57.8c-1.08-.62-1.44-1.51-1.28-1.79a.86.86,0,0,1,.72-.25,3.09,3.09,0,0,1,1.48.44c1.08.62,1.44,1.51,1.28,1.79A.86.86,0,0,1,113.46,58.23Z"/><path d="M111.41,54.76a1.74,1.74,0,0,0-1.59.75c-.53.92.22,2.34,1.66,3.16a4.07,4.07,0,0,0,2,.57,1.74,1.74,0,0,0,1.59-.75c.53-.92-.22-2.34-1.66-3.16a4.07,4.07,0,0,0-2-.57Z"/><path class="cls-3" d="M36.6,58.34a.85.85,0,0,1-.71-.24c-.16-.28.2-1.18,1.28-1.8a3.08,3.08,0,0,1,1.48-.44.85.85,0,0,1,.71.24c.16.28-.2,1.18-1.28,1.8A3.08,3.08,0,0,1,36.6,58.34Z"/><path d="M38.65,54.86a4.07,4.07,0,0,0-2,.57c-1.44.83-2.18,2.24-1.65,3.16a1.73,1.73,0,0,0,1.58.75,4.07,4.07,0,0,0,2-.57c1.44-.83,2.18-2.24,1.65-3.16a1.73,1.73,0,0,0-1.58-.75Z"/><path class="cls-3" d="M46.21,70.2a.44.44,0,0,1-.29-.08.77.77,0,0,1-.13-.65A3,3,0,0,1,46.51,68a2.56,2.56,0,0,1,1.71-1,.43.43,0,0,1,.29.08c.25.21.22,1.18-.58,2.13A2.56,2.56,0,0,1,46.21,70.2Z"/><path d="M48.22,66a3.5,3.5,0,0,0-2.48,1.37c-1.07,1.27-1.28,2.85-.47,3.54a1.41,1.41,0,0,0,.93.31,3.5,3.5,0,0,0,2.48-1.37c1.07-1.27,1.28-2.85.47-3.54a1.41,1.41,0,0,0-.93-.31Z"/><path class="cls-3" d="M59.68,78l-.1,0c-.31-.11-.61-1-.18-2.2s1.1-1.58,1.46-1.58.71,1,.28,2.21S60,78,59.68,78Z"/><path d="M60.85,73.25a3,3,0,0,0-2.4,2.24c-.57,1.56-.22,3.12.78,3.48a1.28,1.28,0,0,0,.44.08,3,3,0,0,0,2.4-2.24c.57-1.56.22-3.12-.78-3.48a1.28,1.28,0,0,0-.44-.08Z"/><path class="cls-3" d="M75,65.59c-.33,0-.92-.76-.92-2s.6-2,.92-2,.92.76.92,2S75.33,65.59,75,65.59Z"/><path d="M75,60.58c-1.06,0-1.92,1.34-1.92,3s.86,3,1.92,3,1.92-1.34,1.92-3-.86-3-1.92-3Z"/><path class="cls-3" d="M90.75,61.26A2.39,2.39,0,0,1,89.09,60c-.66-1.05-.56-2-.28-2.19a.33.33,0,0,1,.19,0A2.39,2.39,0,0,1,90.66,59c.66,1.05.56,2,.28,2.19A.33.33,0,0,1,90.75,61.26Z"/><path d="M89,56.77a1.34,1.34,0,0,0-.72.2c-.9.56-.92,2.16,0,3.57a3.3,3.3,0,0,0,2.5,1.72,1.34,1.34,0,0,0,.72-.2c.9-.56.92-2.16,0-3.57A3.3,3.3,0,0,0,89,56.77Z"/><path class="cls-3" d="M59.15,61.19a.34.34,0,0,1-.19,0c-.28-.17-.38-1.13.28-2.19a2.39,2.39,0,0,1,1.66-1.25.33.33,0,0,1,.19,0c.28.17.38,1.13-.28,2.19A2.4,2.4,0,0,1,59.15,61.19Z"/><path d="M60.9,56.71a3.3,3.3,0,0,0-2.5,1.72c-.88,1.41-.86,3,0,3.57a1.34,1.34,0,0,0,.72.2,3.3,3.3,0,0,0,2.5-1.72c.88-1.41.86-3,0-3.57a1.34,1.34,0,0,0-.72-.2Z"/></svg>