<?xml version="1.0" ?><!-- Uploaded to: SVG Repo, www.svgrepo.com, Generator: SVG Repo Mixer Tools -->
<svg width="800px" height="800px" viewBox="0 0 150 150" id="ART" xmlns="http://www.w3.org/2000/svg"><defs><style>.cls-1{fill:#877d06;stroke-width:4px;}.cls-1,.cls-3{stroke:#000000;stroke-miterlimit:10;}.cls-2{fill:#efa02e;}.cls-3{fill:#f5a987;stroke-width:2px;}.cls-4{fill:#c7620f;}.cls-5{fill:#ffd9c0;}</style></defs><title/><path class="cls-1" d="M144.92,75c0,.6,0,1.2,0,1.8-.77,37.12-25.54,62.41-68.1,63.1l-1.8,0-1.8,0c-42.56-.69-67.33-26-68.1-63.1,0-.6,0-1.2,0-1.8s0-1.2,0-1.8c.77-37.11,25.54-62.41,68.1-63.1.6,0,1.2,0,1.8,0s1.2,0,1.8,0c42.56.69,67.33,26,68.1,63.1C144.91,73.8,144.92,74.4,144.92,75Z"/><path class="cls-2" d="M75,131.92l-1.66,0c-18.55-.3-33.88-5.73-44.34-15.69C18.93,106.64,13.44,93,13.1,76.63c0-.53,0-1.08,0-1.63s0-1.11,0-1.66c.34-16.29,5.83-30,15.9-39.55,10.47-10,25.8-15.39,44.33-15.69.59,0,1.06,0,1.53,0h.29c.46,0,.92,0,1.38,0,18.65.3,34,5.73,44.47,15.69,10.06,9.58,15.56,23.26,15.9,39.58,0,.58,0,1.1,0,1.63s0,1.06,0,1.58c-.34,16.35-5.84,30.06-15.9,39.63-10.47,10-25.8,15.38-44.34,15.69Z"/><ellipse class="cls-3" cx="75" cy="75" rx="26.15" ry="40.09"/><path class="cls-4" d="M87.29,40.9a6.11,6.11,0,0,1-4,1.18c-2.47,0-4.48-1-4.48-2.21s1.59-2,3.69-2.17A22,22,0,0,1,87.29,40.9Z"/><ellipse class="cls-4" cx="83.32" cy="46.26" rx="4.48" ry="2.21"/><ellipse class="cls-4" cx="83.32" cy="52.64" rx="4.48" ry="2.21"/><ellipse class="cls-4" cx="83.32" cy="59.03" rx="4.48" ry="2.21"/><ellipse class="cls-4" cx="83.32" cy="65.42" rx="4.48" ry="2.21"/><ellipse class="cls-4" cx="83.32" cy="71.81" rx="4.48" ry="2.21"/><ellipse class="cls-4" cx="83.32" cy="78.19" rx="4.48" ry="2.21"/><ellipse class="cls-4" cx="83.32" cy="84.58" rx="4.48" ry="2.21"/><ellipse class="cls-4" cx="83.32" cy="90.97" rx="4.48" ry="2.21"/><ellipse class="cls-4" cx="83.32" cy="97.36" rx="4.48" ry="2.21"/><ellipse class="cls-4" cx="83.32" cy="103.74" rx="4.48" ry="2.21"/><path class="cls-4" d="M82.53,112.3c-2.1-.18-3.69-1.08-3.69-2.17s2-2.21,4.48-2.21a6.11,6.11,0,0,1,4,1.18Z"/><path class="cls-4" d="M95.27,51.9H94.8c-2.47,0-4.48-1-4.48-2.2,0-.9,1.1-1.68,2.66-2A37.37,37.37,0,0,1,95.27,51.9Z"/><path class="cls-4" d="M97.59,57.81a7.52,7.52,0,0,1-2.79.49c-2.47,0-4.48-1-4.48-2.21s2-2.21,4.48-2.21a8.93,8.93,0,0,1,1.4.11C96.71,55.22,97.17,56.49,97.59,57.81Z"/><path class="cls-4" d="M99,63.26c-.63.84-2.27,1.43-4.19,1.43-2.47,0-4.48-1-4.48-2.21s2-2.21,4.48-2.21a6.43,6.43,0,0,1,3.74,1C98.71,61.92,98.86,62.59,99,63.26Z"/><ellipse class="cls-4" cx="94.8" cy="68.87" rx="4.48" ry="2.21"/><ellipse class="cls-4" cx="94.8" cy="75.25" rx="4.48" ry="2.21"/><ellipse class="cls-4" cx="94.8" cy="81.64" rx="4.48" ry="2.21"/><path class="cls-4" d="M98.9,87.14c-.15.75-.32,1.47-.51,2.2h0a6.74,6.74,0,0,1-3.59.89c-2.47,0-4.48-1-4.48-2.21s2-2.21,4.48-2.21A5.74,5.74,0,0,1,98.9,87.14Z"/><path class="cls-4" d="M97.44,92.64C97,94,96.51,95.3,96,96.55a8.72,8.72,0,0,1-1.17.08c-2.47,0-4.48-1-4.48-2.21s2-2.21,4.48-2.21A7.81,7.81,0,0,1,97.44,92.64Z"/><path class="cls-4" d="M95,98.6a41.34,41.34,0,0,1-2.34,4.15c-1.41-.37-2.38-1.1-2.38-2,0-1.22,2-2.21,4.48-2.21Z"/><path class="cls-4" d="M67.47,37.7c2.1.18,3.69,1.08,3.69,2.17s-2,2.21-4.48,2.21a6.11,6.11,0,0,1-4-1.18Z"/><ellipse class="cls-4" cx="66.68" cy="46.26" rx="4.48" ry="2.21"/><ellipse class="cls-4" cx="66.68" cy="52.64" rx="4.48" ry="2.21"/><ellipse class="cls-4" cx="66.68" cy="59.03" rx="4.48" ry="2.21"/><ellipse class="cls-4" cx="66.68" cy="65.42" rx="4.48" ry="2.21"/><ellipse class="cls-4" cx="66.68" cy="71.81" rx="4.48" ry="2.21"/><ellipse class="cls-4" cx="66.68" cy="78.19" rx="4.48" ry="2.21"/><ellipse class="cls-4" cx="66.68" cy="84.58" rx="4.48" ry="2.21"/><ellipse class="cls-4" cx="66.68" cy="90.97" rx="4.48" ry="2.21"/><ellipse class="cls-4" cx="66.68" cy="97.36" rx="4.48" ry="2.21"/><ellipse class="cls-4" cx="66.68" cy="103.74" rx="4.48" ry="2.21"/><path class="cls-4" d="M71.16,110.13c0,1.09-1.59,2-3.69,2.17a22,22,0,0,1-4.76-3.2,6.11,6.11,0,0,1,4-1.18C69.15,107.92,71.16,108.91,71.16,110.13Z"/><path class="cls-4" d="M59.68,49.71c0,1.22-2,2.2-4.48,2.2h-.47A37.37,37.37,0,0,1,57,47.7C58.58,48,59.68,48.81,59.68,49.71Z"/><path class="cls-4" d="M59.68,56.09c0,1.22-2,2.21-4.48,2.21a7.52,7.52,0,0,1-2.79-.49c.42-1.32.88-2.59,1.39-3.82a8.93,8.93,0,0,1,1.4-.11C57.67,53.88,59.68,54.87,59.68,56.09Z"/><path class="cls-4" d="M59.68,62.48c0,1.22-2,2.21-4.48,2.21-1.92,0-3.56-.59-4.19-1.43.13-.67.28-1.34.45-2a6.43,6.43,0,0,1,3.74-1C57.67,60.27,59.68,61.26,59.68,62.48Z"/><ellipse class="cls-4" cx="55.2" cy="68.87" rx="4.48" ry="2.21"/><ellipse class="cls-4" cx="55.2" cy="75.25" rx="4.48" ry="2.21"/><ellipse class="cls-4" cx="55.2" cy="81.64" rx="4.48" ry="2.21"/><path class="cls-4" d="M51.1,87.14a5.74,5.74,0,0,1,4.1-1.32c2.47,0,4.48,1,4.48,2.21s-2,2.21-4.48,2.21a6.74,6.74,0,0,1-3.59-.89h0Z"/><path class="cls-4" d="M59.68,94.42c0,1.22-2,2.21-4.48,2.21A8.72,8.72,0,0,1,54,96.55c-.54-1.25-1-2.56-1.47-3.91a7.81,7.81,0,0,1,2.64-.43C57.67,92.21,59.68,93.2,59.68,94.42Z"/><path class="cls-4" d="M59.68,100.8c0,.85-1,1.58-2.38,2A41.34,41.34,0,0,1,55,98.6h.24C57.67,98.59,59.68,99.58,59.68,100.8Z"/><path class="cls-5" d="M77.28,75c0,17.9-.62,33.17-1.49,39.07l-.79,0-.79,0c-.87-5.9-1.49-21.17-1.49-39.07s.62-33.17,1.49-39.07l.79,0,.79,0C76.66,41.83,77.28,57.1,77.28,75Z"/></svg>