<?xml version="1.0" ?><!-- Uploaded to: SVG Repo, www.svgrepo.com, Generator: SVG Repo Mixer Tools -->
<svg width="800px" height="800px" viewBox="0 0 150 150" id="ART" xmlns="http://www.w3.org/2000/svg"><defs><style>.cls-1{fill:#fff800;}.cls-1,.cls-2,.cls-3,.cls-4,.cls-5{stroke:#000000;}.cls-1,.cls-2,.cls-3,.cls-4{stroke-miterlimit:10;}.cls-1,.cls-4{stroke-width:4px;}.cls-2{fill:none;stroke-width:2px;}.cls-3,.cls-4,.cls-5{fill:#057a3a;}.cls-3,.cls-5{stroke-width:3px;}.cls-5{stroke-linecap:square;}</style></defs><title/><path class="cls-1" d="M115.4,98.76c0,33.38-21.88,46.43-39.54,46.43H74.15c-17.66,0-39.54-13.06-39.54-46.43,0-21.46,11.25-46.43,39.54-46.43h1.71C104.14,52.33,115.4,77.3,115.4,98.76Z" data-name="&lt;Path&gt;" id="_Path_"/><polyline class="cls-2" points="83.27 144.45 75 136.18 61.86 123.04 48.72 109.9 35.59 96.77 34.67 95.85"/><polyline class="cls-2" points="111.63 120.26 101.28 109.9 88.14 96.76 75 83.63 61.86 70.49 51.13 59.75"/><polyline class="cls-2" points="115.33 95.85 114.42 96.77 101.28 109.9 88.14 123.04 75 136.18 66.73 144.45"/><polyline class="cls-2" points="98.87 59.75 88.14 70.49 75 83.63 61.86 96.76 48.72 109.9 38.37 120.26"/><polyline class="cls-2" points="70.15 52.5 75 57.35 88.14 70.49 101.28 83.63 114.42 96.77 115.39 97.74 115.39 97.75"/><polyline class="cls-2" points="100.87 135.77 88.14 123.04 75 109.9 61.86 96.76 48.73 83.63 39.69 74.59"/><polyline class="cls-2" points="34.61 97.75 34.61 97.74 35.59 96.77 48.73 83.63 61.86 70.49 75 57.35 79.85 52.5"/><polyline class="cls-2" points="110.32 74.58 101.28 83.63 88.14 96.76 75 109.9 61.86 123.04 49.13 135.77"/><path class="cls-3" d="M82.93,54.24c0-7,2.5-36.66,9.95-49-12.72,3.32-29,24.11-29,49C63.86,57.61,82.93,58,82.93,54.24Z"/><path class="cls-3" d="M66.79,54.24c0-7-2.43-36.66-9.67-49,12.36,3.32,28.51,24.11,28.51,49C85.63,57.61,66.79,58,66.79,54.24Z"/><path class="cls-3" d="M86.34,55c0-5,3.57-26,14.23-34.77C82.38,22.6,63.69,37.35,63.69,55,63.69,57.41,86.34,57.7,86.34,55Z"/><path class="cls-3" d="M63.26,55c0-5-3.47-26-13.83-34.77C67.11,22.6,85.58,37.35,85.58,55,85.58,57.41,63.26,57.7,63.26,55Z"/><path class="cls-4" d="M74.95,55a.66.66,0,0,1,0,.25.51.51,0,0,1-.05-.25c0-.46,0-.91.05-1.35C74.94,54.12,74.95,54.57,74.95,55Z"/><path class="cls-5" d="M75.32,40c10.48-6.5,25.44-8.41,34.16-5-15.5,2.33-22.74,15-22.74,20,0,2.58-5.87,4.86-11.83,4.86S63.13,57.6,63.13,55c0-5-7.21-17.64-22.61-20C53.69,29.83,80,38.91,83.89,55.64"/></svg>