<?xml version="1.0" ?><!-- Uploaded to: SVG Repo, www.svgrepo.com, Generator: SVG Repo Mixer Tools -->
<svg width="800px" height="800px" viewBox="0 0 150 150" id="ART" xmlns="http://www.w3.org/2000/svg"><defs><style>.cls-1{fill:#d8442b;}.cls-1,.cls-2,.cls-3{stroke:#000000;stroke-width:4px;}.cls-1,.cls-3{stroke-miterlimit:10;}.cls-2{fill:none;stroke-linecap:round;stroke-linejoin:round;}.cls-3{fill:#49af20;}</style></defs><title/><path class="cls-1" d="M131.61,69.3C131.61,101.39,92.4,145,75,145S18.39,101.39,18.39,69.3,43.74,30.55,75,30.55,131.61,37.22,131.61,69.3Z"/><circle cx="33.65" cy="74.27" r="3.04"/><circle cx="59.94" cy="94.35" r="3.04"/><circle cx="115.98" cy="84.02" r="3.04"/><circle cx="88.84" cy="89.69" r="3.04"/><circle cx="74.96" cy="127.27" r="3.04"/><circle cx="77.5" cy="105.27" r="3.04"/><circle cx="105.98" cy="100.44" r="3.04"/><circle cx="59.94" cy="116.86" r="3.04"/><circle cx="74.46" cy="82.14" r="3.04"/><circle cx="42.73" cy="97.4" r="3.04"/><circle cx="96.86" cy="116.86" r="3.04"/><circle cx="96.86" cy="74.27" r="3.04"/><circle cx="72.88" cy="64.44" r="3.04"/><circle cx="52.29" cy="75.64" r="3.04"/><circle cx="117.23" cy="61.4" r="3.04"/><circle cx="33.65" cy="55.32" r="3.04"/><path class="cls-2" d="M77,41.66s-5.6-26.48,5.38-36.85"/><path class="cls-3" d="M94.64,37.5c7.09,8.19,7.48,18.78,8,22.7C91.3,57,75.34,46.41,75,45.36,74.66,46.41,58.69,57,47.34,60.21c.53-3.93.92-14.51,8-22.7a70.59,70.59,0,0,0-27,3.3c2.59-4.32,23.32-21.45,46.65-10,23.42-11.42,44.06,5.71,46.65,10A70.65,70.65,0,0,0,94.64,37.5Z"/></svg>