<?xml version="1.0" ?><!-- Uploaded to: SVG Repo, www.svgrepo.com, Generator: SVG Repo Mixer Tools -->
<svg width="800px" height="800px" viewBox="0 0 150 150" id="ART" xmlns="http://www.w3.org/2000/svg"><defs><style>.cls-1,.cls-5{fill:none;}.cls-1,.cls-2,.cls-5,.cls-6{stroke:#000000;}.cls-1{stroke-linecap:round;stroke-linejoin:round;}.cls-1,.cls-2,.cls-6{stroke-width:4px;}.cls-2{fill:#ffad17;}.cls-2,.cls-5,.cls-6{stroke-miterlimit:10;}.cls-3{fill:#d86212;}.cls-4{fill:#87270e;}.cls-5{stroke-width:2px;}.cls-6{fill:#006d31;}</style></defs><title/><path class="cls-1" d="M75.41,43.92s-6-28.52,5.79-39.69"/><path class="cls-2" d="M131.43,77.6c0,28.32-20.7,55.89-45.07,59.72-6.69,1-10.34,8.44-11.36,8.44s-4.67-7.39-11.35-8.44c-24.38-3.83-45.08-31.4-45.08-59.72,0-18.67,12.87-46.84,37.7-46.84C64.85,30.76,68.27,41,75,41S85.15,30.76,93.73,30.76C118.56,30.76,131.43,58.93,131.43,77.6Z" data-name="&lt;Path&gt;" id="_Path_"/><path class="cls-3" d="M66.15,135.92c4.25,1.49,7.13,5,8.79,7L75,143l.06-.07c1.66-2,4.54-5.52,8.8-7Z"/><path class="cls-4" d="M92.47,83.5c0,1-2.05,1.83-2.16,2.76s1.69,2.26,1.47,3.18-2.41,1.31-2.73,2.2,1.15,2.57.74,3.42-2.64.78-3.13,1.58.61,2.75.05,3.5-2.75.28-3.37,1,.1,2.83-.56,3.46-2.79-.17-3.48.39-.49,2.86-1.19,3.3c-1.23.77-2.7-.68-3.13-.68s-1.9,1.45-3.13.68c-.7-.44-.34-2.63-1.19-3.3s-2.74.32-3.48-.39.1-2.71-.56-3.46-2.78-.19-3.36-1,.56-2.67.05-3.5-2.71-.7-3.13-1.58,1.07-2.51.74-3.43-2.5-1.25-2.73-2.2,1.59-2.21,1.47-3.18-2.16-1.78-2.16-2.76,2.06-2.13,2.18-3.24S58,77.72,58.27,76.63s2.44-1.69,2.76-2.76-1.21-2.78-.81-3.82,2.69-1.31,3.15-2.31-.79-2.94-.27-3.9,2.85-1,3.43-1.88-.38-3,.25-3.9,3-.58,3.66-1.35c.84-.94.25-3.17,1-3.79,1.19-1,2.85.21,3.55.21s2.37-1.21,3.56-.2c.74.62.15,2.85,1,3.79.69.78,2.95.39,3.66,1.35s-.37,2.92.25,3.9,2.88.86,3.43,1.87-.75,2.87-.27,3.9S89.37,69,89.77,70s-1.13,2.75-.81,3.82,2.54,1.67,2.76,2.77-1.56,2.52-1.44,3.63S92.47,82.38,92.47,83.5Z"/><path class="cls-5" d="M92.47,83.5c0,1-2.05,1.83-2.16,2.76s1.69,2.26,1.47,3.18-2.41,1.31-2.73,2.2,1.15,2.57.74,3.42-2.64.78-3.13,1.58.61,2.75.05,3.5-2.75.28-3.37,1,.1,2.83-.56,3.46-2.79-.17-3.48.39-.49,2.86-1.19,3.3c-1.23.77-2.7-.68-3.13-.68s-1.9,1.45-3.13.68c-.7-.44-.34-2.63-1.19-3.3s-2.74.32-3.48-.39.1-2.71-.56-3.46-2.78-.19-3.36-1,.56-2.67.05-3.5-2.71-.7-3.13-1.58,1.07-2.51.74-3.43-2.5-1.25-2.73-2.2,1.59-2.21,1.47-3.18-2.16-1.78-2.16-2.76,2.06-2.13,2.18-3.24S58,77.72,58.27,76.63s2.44-1.69,2.76-2.76-1.21-2.78-.81-3.82,2.69-1.31,3.15-2.31-.79-2.94-.27-3.9,2.85-1,3.43-1.88-.38-3,.25-3.9,3-.58,3.66-1.35c.84-.94.25-3.17,1-3.79,1.19-1,2.85.21,3.55.21s2.37-1.21,3.56-.2c.74.62.15,2.85,1,3.79.69.78,2.95.39,3.66,1.35s-.37,2.92.25,3.9,2.88.86,3.43,1.87-.75,2.87-.27,3.9S89.37,69,89.77,70s-1.13,2.75-.81,3.82,2.54,1.67,2.76,2.77-1.56,2.52-1.44,3.63S92.47,82.38,92.47,83.5Z"/><path class="cls-6" d="M75,26.71c8.44-25,30.34-18.36,48-5.12C106.27,35.32,97.35,17.63,75,26.71Z" data-name="&lt;Path&gt;" id="_Path_2"/></svg>