<?xml version="1.0" ?><!-- Uploaded to: SVG Repo, www.svgrepo.com, Generator: SVG Repo Mixer Tools -->
<svg width="800px" height="800px" viewBox="0 0 150 150" id="ART" xmlns="http://www.w3.org/2000/svg"><defs><style>.cls-1{fill:none;}.cls-1,.cls-2{stroke:#000000;stroke-linecap:round;stroke-linejoin:round;stroke-width:4px;}.cls-2{fill:#544a18;}.cls-3{fill:red;opacity:0.42;}.cls-4{fill:#9b852a;}</style></defs><title/><path class="cls-1" d="M115.48,58.92s22.56-33,13.4-53.37"/><path class="cls-2" d="M134.15,67.84a22.93,22.93,0,0,1-17,3.2l.19.47A23,23,0,0,1,87.9,101.35a23,23,0,0,1-37,21.35,23,23,0,0,1-45.66,3C2.84,113.15,37,99.29,42.05,103.24,42.63,92.91,69.21,81.52,73,82.91c-1.44-10.4,23.24-26.62,27.35-25.78C96.22,47.05,124.19,11.56,141.1,36,148.34,46.45,144.87,60.95,134.15,67.84Z" data-name="&lt;Path&gt;" id="_Path_"/><path class="cls-3" d="M126.15,48.68c-5.3,5.29-14,8.49-20.17,13.75-4.47,3.84-5.29,11-10.12,14.85-5.75,4.55-12.32,6.38-18.54,10.82-4.89,3.48-9.35,9.62-14.51,13-5.52,3.6-11.88,4.53-17.69,7.93-6.54,3.83-12.58,10.1-19.46,13.6a37.53,37.53,0,0,1-18.14,4.23c-.14-.51-.26-1-.36-1.55-.35-1.86.44-4,2.35-6.28,6.5-7.84,22.83-14.46,29.64-14.46a3.29,3.29,0,0,1,1.67.26A2,2,0,0,0,44,103.35c.44-7.94,22.47-18.56,28.1-18.56a.68.68,0,0,1,.21,0,2,2,0,0,0,.67.12A2,2,0,0,0,75,82.64c-.32-2.29,1.23-5.53,4.35-9.11,7-8,18.39-14.43,20.67-14.43a1.81,1.81,0,0,0,.4,0,2,2,0,0,0,1.52-.73,2,2,0,0,0,.28-2c-.78-1.92.17-6.67,4.13-12.57,4.41-6.57,12.52-14.24,20.85-14.24a12.28,12.28,0,0,1,5.57,1.33C133.47,36.89,131.79,43,126.15,48.68Z"/><path class="cls-4" d="M126.15,48.68c-5.3,5.29-14,8.49-20.17,13.75-4.47,3.84-5.29,11-10.12,14.85-5.75,4.55-12.32,6.38-18.54,10.82-4.89,3.48-9.35,9.62-14.51,13-5.52,3.6-11.88,4.53-17.69,7.93-6.54,3.83-12.58,10.1-19.46,13.6a37.53,37.53,0,0,1-18.14,4.23c-.14-.51-.26-1-.36-1.55-.35-1.86.44-4,2.35-6.28,6.5-7.84,22.83-14.46,29.64-14.46a3.29,3.29,0,0,1,1.67.26A2,2,0,0,0,44,103.35c.44-7.94,22.47-18.56,28.1-18.56a.68.68,0,0,1,.21,0,2,2,0,0,0,.67.12A2,2,0,0,0,75,82.64c-.32-2.29,1.23-5.53,4.35-9.11,7-8,18.39-14.43,20.67-14.43a1.81,1.81,0,0,0,.4,0,2,2,0,0,0,1.52-.73,2,2,0,0,0,.28-2c-.78-1.92.17-6.67,4.13-12.57,4.41-6.57,12.52-14.24,20.85-14.24a12.28,12.28,0,0,1,5.57,1.33C133.47,36.89,131.79,43,126.15,48.68Z"/></svg>