<?xml version="1.0" ?><!-- Uploaded to: SVG Repo, www.svgrepo.com, Generator: SVG Repo Mixer Tools -->
<svg width="800px" height="800px" viewBox="0 0 150 150" id="ART" xmlns="http://www.w3.org/2000/svg"><defs><style>.cls-1{fill:#0e7a39;}.cls-1,.cls-2,.cls-3{stroke:#000000;stroke-width:4px;}.cls-1,.cls-2{stroke-miterlimit:10;}.cls-2{fill:#49af20;}.cls-3{fill:#381066;stroke-linecap:round;stroke-linejoin:round;}.cls-4{fill:#ffffff;}</style></defs><title/><path class="cls-1" d="M71.53,38.53C59.76,46.83,39.4,35.1,39.61,20.1,52.49,12.42,72.83,24.2,71.53,38.53Z"/><path class="cls-1" d="M77.17,38.75c-1.3-14.34,19-26.11,31.92-18.43C109.3,35.32,88.93,47,77.17,38.75Z"/><path class="cls-2" d="M74.35,42.25c-13.07-6-13.1-29.54,0-36.86C87.44,12.71,87.41,36.21,74.35,42.25Z"/><circle class="cls-3" cx="96.35" cy="48.71" r="10.76"/><circle class="cls-4" cx="94.55" cy="46.06" r="3.91"/><circle class="cls-3" cx="74.84" cy="48.71" r="10.76"/><circle class="cls-4" cx="73.04" cy="46.06" r="3.91"/><circle class="cls-3" cx="53.33" cy="48.71" r="10.76"/><circle class="cls-4" cx="51.53" cy="46.06" r="3.91"/><circle class="cls-4" cx="41.04" cy="63.1" r="3.91"/><circle class="cls-4" cx="105.35" cy="63.1" r="3.91"/><circle class="cls-4" cx="62.44" cy="63.1" r="3.91"/><circle class="cls-4" cx="83.95" cy="63.1" r="3.91"/><circle class="cls-3" cx="85.75" cy="65.8" r="10.76"/><circle class="cls-4" cx="83.95" cy="63.14" r="3.91"/><circle class="cls-3" cx="107.27" cy="65.8" r="10.76"/><circle class="cls-4" cx="105.46" cy="63.14" r="3.91"/><circle class="cls-3" cx="64.24" cy="65.8" r="10.76"/><circle class="cls-4" cx="62.44" cy="63.14" r="3.91"/><circle class="cls-3" cx="42.73" cy="65.8" r="10.76"/><circle class="cls-4" cx="40.93" cy="63.14" r="3.91"/><circle class="cls-4" cx="41.04" cy="96.38" r="3.91"/><circle class="cls-4" cx="105.35" cy="96.38" r="3.91"/><circle class="cls-4" cx="62.44" cy="96.38" r="3.91"/><circle class="cls-4" cx="83.95" cy="96.38" r="3.91"/><circle class="cls-3" cx="85.76" cy="134.15" r="10.76"/><circle class="cls-4" cx="83.95" cy="131.5" r="3.91"/><circle class="cls-3" cx="64.24" cy="134.15" r="10.76"/><circle class="cls-4" cx="62.44" cy="131.5" r="3.91"/><circle class="cls-3" cx="75" cy="117.06" r="10.76"/><circle class="cls-4" cx="73.19" cy="114.41" r="3.91"/><circle class="cls-3" cx="96.51" cy="117.06" r="10.76"/><circle class="cls-4" cx="94.71" cy="114.41" r="3.91"/><circle class="cls-3" cx="53.49" cy="117.06" r="10.76"/><circle class="cls-4" cx="51.68" cy="114.41" r="3.91"/><circle class="cls-3" cx="85.75" cy="99.97" r="10.76"/><circle class="cls-4" cx="83.95" cy="97.32" r="3.91"/><circle class="cls-3" cx="107.27" cy="99.97" r="10.76"/><circle class="cls-4" cx="105.46" cy="97.32" r="3.91"/><circle class="cls-3" cx="64.24" cy="99.97" r="10.76"/><circle class="cls-4" cx="62.44" cy="97.32" r="3.91"/><circle class="cls-3" cx="42.73" cy="99.97" r="10.76"/><circle class="cls-4" cx="40.93" cy="97.32" r="3.91"/><circle class="cls-3" cx="96.35" cy="82.89" r="10.76"/><circle class="cls-4" cx="94.55" cy="80.23" r="3.91"/><circle class="cls-3" cx="74.84" cy="82.89" r="10.76"/><circle class="cls-4" cx="73.04" cy="80.23" r="3.91"/><circle class="cls-3" cx="53.33" cy="82.89" r="10.76"/><circle class="cls-4" cx="51.53" cy="80.23" r="3.91"/></svg>