<?xml version="1.0" ?><!-- Uploaded to: SVG Repo, www.svgrepo.com, Generator: SVG Repo Mixer Tools -->
<svg width="800px" height="800px" viewBox="0 0 150 150" id="ART" xmlns="http://www.w3.org/2000/svg"><defs><style>.cls-1{fill:#e8b207;stroke-width:4px;}.cls-1,.cls-3,.cls-4{stroke:#000000;stroke-miterlimit:10;}.cls-2{fill:#84910c;}.cls-3{fill:none;}.cls-3,.cls-4{stroke-width:2px;}.cls-4{fill:#f1f206;}</style></defs><title/><path class="cls-1" d="M23.86,22.77C-1.41,43.27.53,91.37,18.94,115.59c21.9,28.81,80.15,48.65,124.37,0,4.08-4.49,0-9.31-4.2-7.5C82,132.69,30.84,62.59,36.52,27.94,38.63,15.11,44,5.77,33,5.77S23.86,22.77,23.86,22.77Z" data-name="&lt;Path&gt;" id="_Path_"/><path class="cls-2" d="M31.38,22.69a11.85,11.85,0,0,1-5.62-1.23c-.13-2.51,0-8.57,2.49-11.53a5.71,5.71,0,0,1,4.27-2.19c2,0,3.79.2,4.59,1.19,1.2,1.47.13,6.22-.95,10.84-.18.76-.35,1.66-.53,2.45A15.27,15.27,0,0,1,31.38,22.69Z"/><path class="cls-3" d="M24.31,21.66c2.31,2.28,11,1.91,12.84,1.25"/><path class="cls-4" d="M36.67,23.92C18.59,20,16.67,72.13,34.5,95.17c24.71,31.92,69.5,40.83,109,14.1-1.17-1.34-2-3.06-4.24-2.24-13.63,5-46.42,14.64-79.4-21.55C34.29,57.43,36.67,32.83,36.67,23.92Z"/></svg>