<?xml version="1.0" ?><!-- Uploaded to: SVG Repo, www.svgrepo.com, Generator: SVG Repo Mixer Tools -->
<svg width="800px" height="800px" viewBox="0 0 150 150" id="ART" xmlns="http://www.w3.org/2000/svg"><defs><style>.cls-1{fill:#f7a537;}.cls-1,.cls-3,.cls-5{stroke:#000000;}.cls-1,.cls-3{stroke-miterlimit:10;stroke-width:4px;}.cls-2{fill:#d37d2f;}.cls-3{fill:#964538;}.cls-4{fill:#a86d4c;}.cls-5{fill:#e2c4b3;stroke-linecap:round;stroke-linejoin:round;stroke-width:1.89px;}</style></defs><title/><path class="cls-1" d="M146,75c0,7.55-3.15,14.51-5.36,21.33-2.29,7.06-3.92,14.53-8.2,20.41s-10.95,9.77-16.89,14.09S104,140.25,96.95,142.54C90.13,144.76,82.55,144,75,144s-15.13.76-21.95-1.46c-7.06-2.29-12.73-7.44-18.61-11.72s-12.57-8.16-16.89-14.09-5.9-13.34-8.2-20.41C7.15,89.51,4,82.55,4,75S7.15,60.49,9.36,53.67c2.29-7.06,3.92-14.53,8.2-20.41S28.5,23.49,34.44,19.17,46,9.75,53.05,7.46C59.87,5.24,67.45,6,75,6s15.13-.76,21.95,1.46c7.06,2.29,12.73,7.44,18.61,11.72s12.57,8.16,16.89,14.09,5.9,13.34,8.2,20.41C142.85,60.49,146,67.45,146,75Z"/><path class="cls-2" d="M131.67,75c0,6-2.9,11.48-4.66,16.9-1.82,5.62-2.76,11.74-6.16,16.41s-9,7.48-13.71,10.92-9,7.85-14.62,9.68c-5.42,1.76-11.51.76-17.52.76s-12.1,1-17.52-.76c-5.62-1.82-9.94-6.28-14.62-9.68S32.59,113,29.15,108.31,24.82,97.51,23,91.9C21.24,86.48,18.33,81,18.33,75S21.24,63.52,23,58.1c1.82-5.62,2.76-11.74,6.16-16.41s9-7.48,13.71-10.92,9-7.85,14.62-9.68C62.9,19.33,69,20.33,75,20.33s12.1-1,17.52.76c5.62,1.82,9.94,6.28,14.62,9.68s10.28,6.2,13.71,10.92,4.33,10.8,6.16,16.41C128.76,63.52,131.67,69,131.67,75Z"/><path class="cls-3" d="M119.94,75c0,8-4,15-7.75,21.47-3.86,6.67-8.05,13.6-14.72,17.45-6.46,3.74-14.47,4-22.47,4s-16-.27-22.47-4c-6.67-3.86-10.86-10.78-14.72-17.45C34.07,90,30.06,83,30.06,75s4-15,7.75-21.47c3.86-6.67,8.05-13.6,14.72-17.45,6.46-3.74,14.47-4,22.47-4s16,.27,22.47,4c6.67,3.86,10.86,10.78,14.72,17.45C115.93,60,119.94,67,119.94,75Z"/><circle class="cls-4" cx="75" cy="75" r="6"/><path class="cls-5" d="M93.22,104c0,7-7.28,13.72-18.22,13.72S56.78,111,56.78,104c0-4.7,10.71-20.9,18.22-20.9S93.22,99.32,93.22,104Z"/><path class="cls-5" d="M93.22,104c0,7-7.28,13.72-18.22,13.72S56.78,111,56.78,104c0-4.7,10.71-20.9,18.22-20.9S93.22,99.32,93.22,104Z"/><path class="cls-5" d="M43.75,62.25c-4.17-5.65-2.28-15.36,6.52-21.86s18.64-5.43,22.81.22c2.79,3.78,3.78,23.18-2.26,27.64S46.54,66,43.75,62.25Z"/><path class="cls-5" d="M77.52,40.17c4.12-5.68,14-6.82,22.81-.39S111.13,55.91,107,61.59c-2.76,3.8-21,10.62-27,6.2S74.75,44,77.52,40.17Z"/><path class="cls-5" d="M53,101.29c-6.68,2.17-15.3-2.69-18.67-13.1s.75-19.4,7.42-21.57C46.24,65.17,65,70.36,67.28,77.51S57.49,99.84,53,101.29Z"/><path class="cls-5" d="M108.2,66.52c6.68,2.15,10.83,11.13,7.49,21.55s-11.95,15.3-18.63,13.16c-4.48-1.44-16.63-16.59-14.33-23.74S103.73,65.08,108.2,66.52Z"/></svg>