<?xml version="1.0" ?><!-- Uploaded to: SVG Repo, www.svgrepo.com, Generator: SVG Repo Mixer Tools -->
<svg width="800px" height="800px" viewBox="0 0 150 150" id="ART" xmlns="http://www.w3.org/2000/svg"><defs><style>.cls-1{fill:#8ba831;stroke:#000000;stroke-miterlimit:10;stroke-width:4px;}.cls-2{fill:#f9d68f;}.cls-3{fill:#ffffff;}</style></defs><title/><path class="cls-1" d="M143,68.34c0,17.16-2.43,32.93-9.75,45.24-9.46,16-27.11,26.14-58.22,26.14s-48.77-10.18-58.22-26.14C9.46,101.26,7,85.5,7,68.34a72.82,72.82,0,0,1,21.62-52.2A180,180,0,0,1,75,10.29a180,180,0,0,1,46.35,5.85A72.82,72.82,0,0,1,143,68.34Z"/><path class="cls-1" d="M103.33,15.07C97.23,22.15,86.82,26.81,75,26.81S52.77,22.15,46.67,15.07l.79-.26a190.65,190.65,0,0,1,55.07,0Z"/><path class="cls-2" d="M134.15,38.66s-10.74,12.7-23.76,19-56.83,5.39-67.55,0-26.1-20.88-26.1-20.88A68.63,68.63,0,0,1,29.84,18.41,177.07,177.07,0,0,1,75,12.8a177.08,177.08,0,0,1,45.16,5.61A68.68,68.68,0,0,1,134.15,38.66Z"/><path class="cls-3" d="M103.33,15.07C97.23,22.15,86.82,26.81,75,26.81S52.77,22.15,46.67,15.07l.79-.26a190.65,190.65,0,0,1,55.07,0Z"/></svg>