<?xml version="1.0" ?><!-- Uploaded to: SVG Repo, www.svgrepo.com, Generator: SVG Repo Mixer Tools -->
<svg width="800px" height="800px" viewBox="0 0 150 150" id="ART" xmlns="http://www.w3.org/2000/svg"><defs><style>.cls-1{fill:#ffffff;}.cls-2{fill:#fcd700;stroke:#000000;stroke-miterlimit:10;stroke-width:4px;}</style></defs><title/><path class="cls-1" d="M38.43,36.74c10.1-10.28,24.86-15,27-9.54s-6.51,7.86-19,22.36S34.48,72.9,29.33,72.24,26.39,49,38.43,36.74Z"/><path class="cls-1" d="M38.43,36.74c10.1-10.28,24.86-15,27-9.54s-6.51,7.86-19,22.36S34.48,72.9,29.33,72.24,26.39,49,38.43,36.74Z"/><path class="cls-2" d="M131.7,75.61c0,31.18-18.48,56.93-46.3,60.84-2.4.34-7.72,8.9-10.35,8.9s-8-8.57-10.37-8.9C36.81,132.54,18.3,106.79,18.3,75.61,18.3,46.43,32.15,24,57.42,17.78c4.06-1,3.8-13.13,17.64-13.13S88.62,16.78,92.67,17.78C117.89,24,131.7,46.43,131.7,75.61Z"/><path class="cls-1" d="M38.43,36.74c10.1-10.28,24.86-15,27-9.54s-6.51,7.86-19,22.36S34.48,72.9,29.33,72.24,26.39,49,38.43,36.74Z"/><path class="cls-1" d="M38.43,36.74c10.1-10.28,24.86-15,27-9.54s-6.51,7.86-19,22.36S34.48,72.9,29.33,72.24,26.39,49,38.43,36.74Z"/></svg>