<?xml version="1.0" ?><!-- Uploaded to: SVG Repo, www.svgrepo.com, Generator: SVG Repo Mixer Tools -->
<svg width="800px" height="800px" viewBox="0 0 150 150" id="ART" xmlns="http://www.w3.org/2000/svg"><defs><style>.cls-1{fill:none;stroke-linecap:round;stroke-linejoin:round;}.cls-1,.cls-2,.cls-4{stroke:#000000;stroke-width:4px;}.cls-2{fill:#d3c300;}.cls-2,.cls-4{stroke-miterlimit:10;}.cls-3{fill:#ffffff;}.cls-4{fill:#13a856;}</style></defs><title/><path class="cls-1" d="M74.91,47.61S81.39,17,68.69,5"/><path class="cls-2" d="M74,25.27c-43.24,0-66.92,63.63-16.47,114.07C69.93,151.7,94.23,141,94.23,134s21.41-45.71,21.41-72.48S95.46,25.27,74,25.27Z"/><path class="cls-3" d="M48.79,43.9c8.65-9.13,19.4-10.69,21.76-6.23S64.34,50.95,59.75,55.28,50,71.39,45.24,71.08,38.47,54.78,48.79,43.9Z"/><path class="cls-3" d="M48.79,43.9c8.65-9.13,19.4-10.69,21.76-6.23S64.34,50.95,59.75,55.28,50,71.39,45.24,71.08,38.47,54.78,48.79,43.9Z"/><path class="cls-4" d="M75.88,24.81c24.7,11.53,17.48,46.64,44.89,52.13C124.17,55.08,113.92,12.54,75.88,24.81Z"/></svg>