<svg id="背景" xmlns="http://www.w3.org/2000/svg" viewBox="0 0 377.1 97"><defs><style>.cls-1,.cls-2{fill:#4e85f9;}.cls-1{fill-rule:evenodd;}.cls-3{fill:#fff;}</style></defs><path class="cls-1" d="M707,335.5H493v97H677s12.58-1.63,20.09-10.13,10-26.87,10-26.87Z" transform="translate(-493 -335.5)"/><circle class="cls-2" cx="279" cy="21" r="8"/><path class="cls-3" d="M523.6,359.14H504.36V348.8h51v10.34H535.92V416.2H523.6Z" transform="translate(-493 -335.5)"/><path class="cls-3" d="M619.78,388.7c-.4-8.7-.85-19.17-.8-28.35h-.28c-2.22,8.26-5,17.35-8,25.89l-9.9,29.16h-9.47l-8.93-28.77c-2.64-8.65-5.05-17.8-6.82-26.28h-.22c-.29,8.82-.7,19.59-1.21,28.76l-1.5,27.09H561.22l4.49-67.4h16.18l8.78,27.07c2.42,8,4.58,16,6.19,23.47h.3c1.81-7.36,4.13-15.6,6.74-23.53l9.35-27h16l3.87,67.4h-12Z" transform="translate(-493 -335.5)"/><path class="cls-3" d="M645.56,349.66a111.23,111.23,0,0,1,18.85-1.39c9,0,15.55,1.89,19.85,5.52a19,19,0,0,1,6.59,14.92c0,6.38-2,11.65-5.74,15.27-5,4.91-12.57,7.25-21.31,7.25a29.64,29.64,0,0,1-6-.47V416.2H645.56Zm12.22,31.42a24.43,24.43,0,0,0,6,.56c9.2,0,14.82-4.58,14.82-12.48,0-7.43-5.2-11.42-13.73-11.42a35.52,35.52,0,0,0-7.12.58Z" transform="translate(-493 -335.5)"/><path class="cls-3" d="M719.61,350.29H732.3v58.78h28.54v10.64H719.61Z" transform="translate(-493 -335.5)"/><path class="cls-3" d="M776.68,372.53v47.18h-8.62V372.53Z" transform="translate(-493 -335.5)"/><path class="cls-3" d="M786.54,419.71V372.53h9.85l12.19,20.25a134.55,134.55,0,0,1,8,15.81l.17,0c-.61-6.27-.77-12.35-.77-19.56V372.53h8v47.18H815L802.73,399a161.36,161.36,0,0,1-8.46-16.27l-.22,0c.35,6.13.46,12.36.46,20.11v16.88Z" transform="translate(-493 -335.5)"/><path class="cls-3" d="M833.86,372.53h8.55v21.7h.2c1.12-1.8,2.33-3.48,3.46-5.08l12.36-16.62H869L852.77,392.6l17.33,27.11H860l-13.37-21.6-4.24,5v16.56h-8.55Z" transform="translate(-493 -335.5)"/></svg>