<svg id="背景" xmlns="http://www.w3.org/2000/svg" viewBox="0 0 261.13 262.17"><defs><style>.cls-1{fill:#185cad;}.cls-2,.cls-3{fill:none;stroke:#feffff;stroke-linecap:round;stroke-linejoin:round;stroke-width:24px;}.cls-2{fill-rule:evenodd;}</style></defs><rect class="cls-1" x="2.75" y="3.67" width="256" height="256" rx="46"/><path class="cls-2" d="M667.25,396.21s26,27,53,9.29c13.74-9,81.09-87.42,81.09-87.42" transform="translate(-552.25 -252.33)"/><line class="cls-3" x1="136.67" y1="73.42" x2="184.04" y2="64.83"/><path class="cls-2" d="M734.13,264.33c-18.67,26.67-45.22,61.44-45.22,61.44L680,285.16" transform="translate(-552.25 -252.33)"/><path class="cls-2" d="M698.38,370.62s-26-26.95-53-9.29c-13.73,9-81.08,87.42-81.08,87.42" transform="translate(-552.25 -252.33)"/><line class="cls-3" x1="124.45" y1="188.75" x2="77.08" y2="197.34"/><path class="cls-2" d="M631.5,502.5c18.67-26.67,45.22-61.44,45.22-61.44l8.95,40.61" transform="translate(-552.25 -252.33)"/></svg>