<svg width="100%" height="100%" id="svg" viewBox="0 0 1440 600" xmlns="http://www.w3.org/2000/svg" class="transition duration-300 ease-in-out delay-150"><defs><linearGradient id="gradient" x1="0%" y1="50%" x2="100%" y2="50%"><stop offset="5%" stop-color="#002bdc"></stop><stop offset="95%" stop-color="#32ded4"></stop></linearGradient></defs><path d="M 0,600 C 0,600 0,150 0,150 C 76.03827751196172,175.4736842105263 152.07655502392345,200.94736842105263 252,199 C 351.92344497607655,197.05263157894737 475.73205741626793,167.6842105263158 584,158 C 692.2679425837321,148.3157894736842 784.9952153110048,158.3157894736842 881,151 C 977.0047846889952,143.6842105263158 1076.2870813397128,119.05263157894737 1170,116 C 1263.7129186602872,112.94736842105263 1351.8564593301435,131.4736842105263 1440,150 C 1440,150 1440,600 1440,600 Z" stroke="none" stroke-width="0" fill="url(#gradient)" fill-opacity="0.4" class="transition-all duration-300 ease-in-out delay-150 path-0"></path><defs><linearGradient id="gradient" x1="0%" y1="50%" x2="100%" y2="50%"><stop offset="5%" stop-color="#002bdc"></stop><stop offset="95%" stop-color="#32ded4"></stop></linearGradient></defs><path d="M 0,600 C 0,600 0,300 0,300 C 105.57894736842104,279.5311004784689 211.15789473684208,259.0622009569378 307,270 C 402.8421052631579,280.9377990430622 488.9473684210527,323.28229665071774 591,324 C 693.0526315789473,324.71770334928226 811.0526315789473,283.8086124401913 909,288 C 1006.9473684210527,292.1913875598087 1084.842105263158,341.4832535885168 1170,351 C 1255.157894736842,360.5167464114832 1347.578947368421,330.2583732057416 1440,300 C 1440,300 1440,600 1440,600 Z" stroke="none" stroke-width="0" fill="url(#gradient)" fill-opacity="0.53" class="transition-all duration-300 ease-in-out delay-150 path-1"></path><defs><linearGradient id="gradient" x1="0%" y1="50%" x2="100%" y2="50%"><stop offset="5%" stop-color="#002bdc"></stop><stop offset="95%" stop-color="#32ded4"></stop></linearGradient></defs><path d="M 0,600 C 0,600 0,450 0,450 C 64.40191387559807,458.8421052631579 128.80382775119614,467.6842105263158 236,461 C 343.19617224880386,454.3157894736842 493.18660287081343,432.10526315789474 615,424 C 736.8133971291866,415.89473684210526 830.4497607655503,421.8947368421052 910,419 C 989.5502392344497,416.1052631578948 1055.0143540669856,404.3157894736843 1141,408 C 1226.9856459330144,411.6842105263157 1333.4928229665072,430.84210526315786 1440,450 C 1440,450 1440,600 1440,600 Z" stroke="none" stroke-width="0" fill="url(#gradient)" fill-opacity="1" class="transition-all duration-300 ease-in-out delay-150 path-2"></path></svg>