<svg width="100%" height="100%" id="svg" viewBox="0 0 1440 690" xmlns="http://www.w3.org/2000/svg" class="transition duration-300 ease-in-out delay-150"><defs><linearGradient id="gradient" x1="0%" y1="50%" x2="100%" y2="50%"><stop offset="5%" stop-color="#0693e3"></stop><stop offset="95%" stop-color="#8ED1FC"></stop></linearGradient></defs><path d="M 0,700 C 0,700 0,233 0,233 C 68.95693779904306,202.2822966507177 137.91387559808612,171.56459330143542 242,184 C 346.0861244019139,196.43540669856458 485.3014354066985,252.02392344497605 584,276 C 682.6985645933015,299.97607655502395 740.8803827751196,292.3397129186603 819,266 C 897.1196172248804,239.6602870813397 995.177033492823,194.6172248803828 1102,186 C 1208.822966507177,177.3827751196172 1324.4114832535884,205.19138755980862 1440,233 C 1440,233 1440,700 1440,700 Z" stroke="none" stroke-width="0" fill="url(#gradient)" fill-opacity="0.53" class="transition-all duration-300 ease-in-out delay-150 path-0"></path><defs><linearGradient id="gradient" x1="0%" y1="50%" x2="100%" y2="50%"><stop offset="5%" stop-color="#0693e3"></stop><stop offset="95%" stop-color="#8ED1FC"></stop></linearGradient></defs><path d="M 0,700 C 0,700 0,466 0,466 C 104.63157894736838,493.6363636363636 209.26315789473676,521.2727272727273 298,504 C 386.73684210526324,486.7272727272727 459.57894736842115,424.5454545454545 565,412 C 670.4210526315788,399.4545454545455 808.421052631579,436.54545454545456 906,439 C 1003.578947368421,441.45454545454544 1060.7368421052631,409.27272727272725 1143,408 C 1225.2631578947369,406.72727272727275 1332.6315789473683,436.3636363636364 1440,466 C 1440,466 1440,700 1440,700 Z" stroke="none" stroke-width="0" fill="url(#gradient)" fill-opacity="1" class="transition-all duration-300 ease-in-out delay-150 path-1"></path></svg>